<?xml version="1.0" encoding="utf-8" standalone="no"?>
<!DOCTYPE svg PUBLIC "-//W3C//DTD SVG 1.1//EN"
  "http://www.w3.org/Graphics/SVG/1.1/DTD/svg11.dtd">
<!-- Created with matplotlib (http://matplotlib.org/) -->
<svg height="300pt" version="1.1" viewBox="0 0 401 300" width="401pt" xmlns="http://www.w3.org/2000/svg" xmlns:xlink="http://www.w3.org/1999/xlink">
 <defs>
  <style type="text/css">
*{stroke-linecap:butt;stroke-linejoin:round;}
  </style>
 </defs>
 <g id="figure_1">
  <g id="patch_1">
   <path d="M 0 300.690125 
L 401.1075 300.690125 
L 401.1075 0 
L 0 0 
z
" style="fill:#ffffff;"/>
  </g>
  <g id="axes_1">
   <g id="patch_2">
    <path d="M 33.2875 276.812 
L 390.4075 276.812 
L 390.4075 10.7 
L 33.2875 10.7 
z
" style="fill:#ffffff;"/>
   </g>
   <g id="patch_3">
    <path clip-path="url(#p4617c2ef38)" d="M 33.2875 276.812 
L 33.2875 10.7 
L 390.4075 10.7 
L 390.4075 276.812 
z
"/>
   </g>
   <g id="patch_4">
    <path clip-path="url(#p4617c2ef38)" d="M 51.653671 269.809053 
L 91.447043 260.705221 
L 84.304643 243.197853 
L 43.490929 238.996084 
L 53.694357 229.191958 
L 87.365671 228.491663 
L 96.548757 244.598442 
L 131.240414 232.693432 
L 130.220071 214.485768 
L 107.772529 213.085179 
L 123.077671 193.476926 
L 89.406357 199.079284 
L 90.4267 181.571916 
L 121.036986 171.767789 
L 108.792871 164.764842 
L 144.504871 164.064547 
L 128.179386 91.233895 
L 151.647271 104.539495 
L 190.4203 103.8392 
L 192.460986 75.827411 
L 175.115157 84.931242 
L 150.626929 72.325937 
L 173.074471 49.916505 
L 188.379614 60.420926 
L 216.949214 56.219158 
L 162.871043 41.512968 
L 164.911729 33.109432 
L 207.766129 39.412084 
L 173.074471 19.803832 
L 238.376414 33.809726 
L 242.457786 46.415032 
L 266.946014 46.415032 
L 268.9867 29.607958 
L 214.908529 17.702947 
L 380.204071 21.204421 
L 374.082014 239.696379 
L 346.532757 244.598442 
L 373.061671 269.809053 
z
" style="fill:#ffffff;"/>
   </g>
   <g id="patch_5">
    <path clip-path="url(#p4617c2ef38)" d="M 189.399957 20.504126 
L 189.399957 17.002653 
L 196.542357 17.002653 
L 196.542357 21.904716 
z
"/>
   </g>
   <g id="patch_6">
    <path clip-path="url(#p4617c2ef38)" d="M 58.796071 211.684589 
L 58.796071 208.883411 
L 75.121557 204.681642 
L 72.060529 208.883411 
z
"/>
   </g>
   <g id="patch_7">
    <path clip-path="url(#p4617c2ef38)" d="M 90.4267 165.465137 
L 43.490929 161.263368 
L 43.490929 154.960716 
z
"/>
   </g>
   <g id="patch_8">
    <path clip-path="url(#p4617c2ef38)" d="M 287.352871 73.026232 
L 311.8411 73.726526 
L 313.881786 56.219158 
L 288.373214 55.518863 
z
"/>
   </g>
   <g id="patch_9">
    <path clip-path="url(#p4617c2ef38)" d="M 231.234014 91.934189 
L 255.722243 90.5336 
L 254.7019 73.026232 
L 223.071271 77.928295 
z
"/>
   </g>
   <g id="patch_10">
    <path clip-path="url(#p4617c2ef38)" d="M 339.390357 98.236842 
L 364.898929 98.937137 
L 366.939614 82.830358 
L 341.431043 81.429768 
z
"/>
   </g>
   <g id="patch_11">
    <path clip-path="url(#p4617c2ef38)" d="M 287.352871 108.040968 
L 311.8411 107.340674 
L 310.820757 89.833305 
L 286.332529 90.5336 
z
"/>
   </g>
   <g id="patch_12">
    <path clip-path="url(#p4617c2ef38)" d="M 159.810014 123.447453 
L 165.932071 122.046863 
L 164.911729 111.542442 
L 155.728643 112.242737 
z
"/>
   </g>
   <g id="patch_13">
    <path clip-path="url(#p4617c2ef38)" d="M 165.932071 154.960716 
L 171.033786 154.260421 
L 170.013443 149.358358 
L 164.911729 150.058653 
z
"/>
   </g>
   <g id="patch_14">
    <path clip-path="url(#p4617c2ef38)" d="M 181.237214 164.064547 
L 227.152643 165.465137 
L 229.193329 133.951874 
L 183.2779 132.551284 
z
"/>
   </g>
   <g id="patch_15">
    <path clip-path="url(#p4617c2ef38)" d="M 276.1291 166.865726 
L 322.044529 168.266316 
L 324.085214 137.453347 
L 278.169786 135.352463 
z
"/>
   </g>
   <g id="patch_16">
    <path clip-path="url(#p4617c2ef38)" d="M 154.7083 172.468084 
L 159.810014 173.168379 
L 160.830357 169.666905 
L 155.728643 168.966611 
z
"/>
   </g>
   <g id="patch_17">
    <path clip-path="url(#p4617c2ef38)" d="M 247.5595 202.580758 
L 273.068071 203.281053 
L 275.108757 186.473979 
L 248.579843 185.073389 
z
"/>
   </g>
   <g id="patch_18">
    <path clip-path="url(#p4617c2ef38)" d="M 156.748986 205.381937 
L 181.237214 203.981347 
L 180.216871 185.773684 
L 155.728643 186.473979 
z
"/>
   </g>
   <g id="patch_19">
    <path clip-path="url(#p4617c2ef38)" d="M 298.576643 231.292842 
L 324.085214 231.993137 
L 326.1259 215.186063 
L 299.596986 213.785474 
z
"/>
   </g>
   <g id="patch_20">
    <path clip-path="url(#p4617c2ef38)" d="M 201.644071 234.794316 
L 227.152643 235.494611 
L 229.193329 217.987242 
L 203.684757 216.586653 
z
"/>
   </g>
   <g id="patch_21">
    <path clip-path="url(#p4617c2ef38)" d="M 263.884986 262.806105 
L 264.905329 245.999032 
L 239.396757 244.598442 
L 238.376414 262.105811 
z
"/>
   </g>
   <g id="matplotlib.axis_1">
    <g id="xtick_1">
     <g id="line2d_1">
      <defs>
       <path d="M 0 0 
L 0 3.5 
" id="m5cdf4f86d6" style="stroke:#000000;stroke-width:0.8;"/>
      </defs>
      <g>
       <use style="stroke:#000000;stroke-width:0.8;" x="65.938471" xlink:href="#m5cdf4f86d6" y="276.812"/>
      </g>
     </g>
     <g id="text_1">
      <!-- 150 -->
      <defs>
       <path d="M 12.40625 8.296875 
L 28.515625 8.296875 
L 28.515625 63.921875 
L 10.984375 60.40625 
L 10.984375 69.390625 
L 28.421875 72.90625 
L 38.28125 72.90625 
L 38.28125 8.296875 
L 54.390625 8.296875 
L 54.390625 0 
L 12.40625 0 
z
" id="DejaVuSans-31"/>
       <path d="M 10.796875 72.90625 
L 49.515625 72.90625 
L 49.515625 64.59375 
L 19.828125 64.59375 
L 19.828125 46.734375 
Q 21.96875 47.46875 24.109375 47.828125 
Q 26.265625 48.1875 28.421875 48.1875 
Q 40.625 48.1875 47.75 41.5 
Q 54.890625 34.8125 54.890625 23.390625 
Q 54.890625 11.625 47.5625 5.09375 
Q 40.234375 -1.421875 26.90625 -1.421875 
Q 22.3125 -1.421875 17.546875 -0.640625 
Q 12.796875 0.140625 7.71875 1.703125 
L 7.71875 11.625 
Q 12.109375 9.234375 16.796875 8.0625 
Q 21.484375 6.890625 26.703125 6.890625 
Q 35.15625 6.890625 40.078125 11.328125 
Q 45.015625 15.765625 45.015625 23.390625 
Q 45.015625 31 40.078125 35.4375 
Q 35.15625 39.890625 26.703125 39.890625 
Q 22.75 39.890625 18.8125 39.015625 
Q 14.890625 38.140625 10.796875 36.28125 
z
" id="DejaVuSans-35"/>
       <path d="M 31.78125 66.40625 
Q 24.171875 66.40625 20.328125 58.90625 
Q 16.5 51.421875 16.5 36.375 
Q 16.5 21.390625 20.328125 13.890625 
Q 24.171875 6.390625 31.78125 6.390625 
Q 39.453125 6.390625 43.28125 13.890625 
Q 47.125 21.390625 47.125 36.375 
Q 47.125 51.421875 43.28125 58.90625 
Q 39.453125 66.40625 31.78125 66.40625 
z
M 31.78125 74.21875 
Q 44.046875 74.21875 50.515625 64.515625 
Q 56.984375 54.828125 56.984375 36.375 
Q 56.984375 17.96875 50.515625 8.265625 
Q 44.046875 -1.421875 31.78125 -1.421875 
Q 19.53125 -1.421875 13.0625 8.265625 
Q 6.59375 17.96875 6.59375 36.375 
Q 6.59375 54.828125 13.0625 64.515625 
Q 19.53125 74.21875 31.78125 74.21875 
z
" id="DejaVuSans-30"/>
      </defs>
      <g transform="translate(56.394721 291.410437)scale(0.1 -0.1)">
       <use xlink:href="#DejaVuSans-31"/>
       <use x="63.623047" xlink:href="#DejaVuSans-35"/>
       <use x="127.246094" xlink:href="#DejaVuSans-30"/>
      </g>
     </g>
    </g>
    <g id="xtick_2">
     <g id="line2d_2">
      <g>
       <use style="stroke:#000000;stroke-width:0.8;" x="116.955614" xlink:href="#m5cdf4f86d6" y="276.812"/>
      </g>
     </g>
     <g id="text_2">
      <!-- 200 -->
      <defs>
       <path d="M 19.1875 8.296875 
L 53.609375 8.296875 
L 53.609375 0 
L 7.328125 0 
L 7.328125 8.296875 
Q 12.9375 14.109375 22.625 23.890625 
Q 32.328125 33.6875 34.8125 36.53125 
Q 39.546875 41.84375 41.421875 45.53125 
Q 43.3125 49.21875 43.3125 52.78125 
Q 43.3125 58.59375 39.234375 62.25 
Q 35.15625 65.921875 28.609375 65.921875 
Q 23.96875 65.921875 18.8125 64.3125 
Q 13.671875 62.703125 7.8125 59.421875 
L 7.8125 69.390625 
Q 13.765625 71.78125 18.9375 73 
Q 24.125 74.21875 28.421875 74.21875 
Q 39.75 74.21875 46.484375 68.546875 
Q 53.21875 62.890625 53.21875 53.421875 
Q 53.21875 48.921875 51.53125 44.890625 
Q 49.859375 40.875 45.40625 35.40625 
Q 44.1875 33.984375 37.640625 27.21875 
Q 31.109375 20.453125 19.1875 8.296875 
z
" id="DejaVuSans-32"/>
      </defs>
      <g transform="translate(107.411864 291.410437)scale(0.1 -0.1)">
       <use xlink:href="#DejaVuSans-32"/>
       <use x="63.623047" xlink:href="#DejaVuSans-30"/>
       <use x="127.246094" xlink:href="#DejaVuSans-30"/>
      </g>
     </g>
    </g>
    <g id="xtick_3">
     <g id="line2d_3">
      <g>
       <use style="stroke:#000000;stroke-width:0.8;" x="167.972757" xlink:href="#m5cdf4f86d6" y="276.812"/>
      </g>
     </g>
     <g id="text_3">
      <!-- 250 -->
      <g transform="translate(158.429007 291.410437)scale(0.1 -0.1)">
       <use xlink:href="#DejaVuSans-32"/>
       <use x="63.623047" xlink:href="#DejaVuSans-35"/>
       <use x="127.246094" xlink:href="#DejaVuSans-30"/>
      </g>
     </g>
    </g>
    <g id="xtick_4">
     <g id="line2d_4">
      <g>
       <use style="stroke:#000000;stroke-width:0.8;" x="218.9899" xlink:href="#m5cdf4f86d6" y="276.812"/>
      </g>
     </g>
     <g id="text_4">
      <!-- 300 -->
      <defs>
       <path d="M 40.578125 39.3125 
Q 47.65625 37.796875 51.625 33 
Q 55.609375 28.21875 55.609375 21.1875 
Q 55.609375 10.40625 48.1875 4.484375 
Q 40.765625 -1.421875 27.09375 -1.421875 
Q 22.515625 -1.421875 17.65625 -0.515625 
Q 12.796875 0.390625 7.625 2.203125 
L 7.625 11.71875 
Q 11.71875 9.328125 16.59375 8.109375 
Q 21.484375 6.890625 26.8125 6.890625 
Q 36.078125 6.890625 40.9375 10.546875 
Q 45.796875 14.203125 45.796875 21.1875 
Q 45.796875 27.640625 41.28125 31.265625 
Q 36.765625 34.90625 28.71875 34.90625 
L 20.21875 34.90625 
L 20.21875 43.015625 
L 29.109375 43.015625 
Q 36.375 43.015625 40.234375 45.921875 
Q 44.09375 48.828125 44.09375 54.296875 
Q 44.09375 59.90625 40.109375 62.90625 
Q 36.140625 65.921875 28.71875 65.921875 
Q 24.65625 65.921875 20.015625 65.03125 
Q 15.375 64.15625 9.8125 62.3125 
L 9.8125 71.09375 
Q 15.4375 72.65625 20.34375 73.4375 
Q 25.25 74.21875 29.59375 74.21875 
Q 40.828125 74.21875 47.359375 69.109375 
Q 53.90625 64.015625 53.90625 55.328125 
Q 53.90625 49.265625 50.4375 45.09375 
Q 46.96875 40.921875 40.578125 39.3125 
z
" id="DejaVuSans-33"/>
      </defs>
      <g transform="translate(209.44615 291.410437)scale(0.1 -0.1)">
       <use xlink:href="#DejaVuSans-33"/>
       <use x="63.623047" xlink:href="#DejaVuSans-30"/>
       <use x="127.246094" xlink:href="#DejaVuSans-30"/>
      </g>
     </g>
    </g>
    <g id="xtick_5">
     <g id="line2d_5">
      <g>
       <use style="stroke:#000000;stroke-width:0.8;" x="270.007043" xlink:href="#m5cdf4f86d6" y="276.812"/>
      </g>
     </g>
     <g id="text_5">
      <!-- 350 -->
      <g transform="translate(260.463293 291.410437)scale(0.1 -0.1)">
       <use xlink:href="#DejaVuSans-33"/>
       <use x="63.623047" xlink:href="#DejaVuSans-35"/>
       <use x="127.246094" xlink:href="#DejaVuSans-30"/>
      </g>
     </g>
    </g>
    <g id="xtick_6">
     <g id="line2d_6">
      <g>
       <use style="stroke:#000000;stroke-width:0.8;" x="321.024186" xlink:href="#m5cdf4f86d6" y="276.812"/>
      </g>
     </g>
     <g id="text_6">
      <!-- 400 -->
      <defs>
       <path d="M 37.796875 64.3125 
L 12.890625 25.390625 
L 37.796875 25.390625 
z
M 35.203125 72.90625 
L 47.609375 72.90625 
L 47.609375 25.390625 
L 58.015625 25.390625 
L 58.015625 17.1875 
L 47.609375 17.1875 
L 47.609375 0 
L 37.796875 0 
L 37.796875 17.1875 
L 4.890625 17.1875 
L 4.890625 26.703125 
z
" id="DejaVuSans-34"/>
      </defs>
      <g transform="translate(311.480436 291.410437)scale(0.1 -0.1)">
       <use xlink:href="#DejaVuSans-34"/>
       <use x="63.623047" xlink:href="#DejaVuSans-30"/>
       <use x="127.246094" xlink:href="#DejaVuSans-30"/>
      </g>
     </g>
    </g>
    <g id="xtick_7">
     <g id="line2d_7">
      <g>
       <use style="stroke:#000000;stroke-width:0.8;" x="372.041329" xlink:href="#m5cdf4f86d6" y="276.812"/>
      </g>
     </g>
     <g id="text_7">
      <!-- 450 -->
      <g transform="translate(362.497579 291.410437)scale(0.1 -0.1)">
       <use xlink:href="#DejaVuSans-34"/>
       <use x="63.623047" xlink:href="#DejaVuSans-35"/>
       <use x="127.246094" xlink:href="#DejaVuSans-30"/>
      </g>
     </g>
    </g>
   </g>
   <g id="matplotlib.axis_2">
    <g id="ytick_1">
     <g id="line2d_8">
      <defs>
       <path d="M 0 0 
L -3.5 0 
" id="m44590687ad" style="stroke:#000000;stroke-width:0.8;"/>
      </defs>
      <g>
       <use style="stroke:#000000;stroke-width:0.8;" x="33.2875" xlink:href="#m44590687ad" y="251.601389"/>
      </g>
     </g>
     <g id="text_8">
      <!-- 250 -->
      <g transform="translate(7.2 255.400608)scale(0.1 -0.1)">
       <use xlink:href="#DejaVuSans-32"/>
       <use x="63.623047" xlink:href="#DejaVuSans-35"/>
       <use x="127.246094" xlink:href="#DejaVuSans-30"/>
      </g>
     </g>
    </g>
    <g id="ytick_2">
     <g id="line2d_9">
      <g>
       <use style="stroke:#000000;stroke-width:0.8;" x="33.2875" xlink:href="#m44590687ad" y="216.586653"/>
      </g>
     </g>
     <g id="text_9">
      <!-- 300 -->
      <g transform="translate(7.2 220.385871)scale(0.1 -0.1)">
       <use xlink:href="#DejaVuSans-33"/>
       <use x="63.623047" xlink:href="#DejaVuSans-30"/>
       <use x="127.246094" xlink:href="#DejaVuSans-30"/>
      </g>
     </g>
    </g>
    <g id="ytick_3">
     <g id="line2d_10">
      <g>
       <use style="stroke:#000000;stroke-width:0.8;" x="33.2875" xlink:href="#m44590687ad" y="181.571916"/>
      </g>
     </g>
     <g id="text_10">
      <!-- 350 -->
      <g transform="translate(7.2 185.371135)scale(0.1 -0.1)">
       <use xlink:href="#DejaVuSans-33"/>
       <use x="63.623047" xlink:href="#DejaVuSans-35"/>
       <use x="127.246094" xlink:href="#DejaVuSans-30"/>
      </g>
     </g>
    </g>
    <g id="ytick_4">
     <g id="line2d_11">
      <g>
       <use style="stroke:#000000;stroke-width:0.8;" x="33.2875" xlink:href="#m44590687ad" y="146.557179"/>
      </g>
     </g>
     <g id="text_11">
      <!-- 400 -->
      <g transform="translate(7.2 150.356398)scale(0.1 -0.1)">
       <use xlink:href="#DejaVuSans-34"/>
       <use x="63.623047" xlink:href="#DejaVuSans-30"/>
       <use x="127.246094" xlink:href="#DejaVuSans-30"/>
      </g>
     </g>
    </g>
    <g id="ytick_5">
     <g id="line2d_12">
      <g>
       <use style="stroke:#000000;stroke-width:0.8;" x="33.2875" xlink:href="#m44590687ad" y="111.542442"/>
      </g>
     </g>
     <g id="text_12">
      <!-- 450 -->
      <g transform="translate(7.2 115.341661)scale(0.1 -0.1)">
       <use xlink:href="#DejaVuSans-34"/>
       <use x="63.623047" xlink:href="#DejaVuSans-35"/>
       <use x="127.246094" xlink:href="#DejaVuSans-30"/>
      </g>
     </g>
    </g>
    <g id="ytick_6">
     <g id="line2d_13">
      <g>
       <use style="stroke:#000000;stroke-width:0.8;" x="33.2875" xlink:href="#m44590687ad" y="76.527705"/>
      </g>
     </g>
     <g id="text_13">
      <!-- 500 -->
      <g transform="translate(7.2 80.326924)scale(0.1 -0.1)">
       <use xlink:href="#DejaVuSans-35"/>
       <use x="63.623047" xlink:href="#DejaVuSans-30"/>
       <use x="127.246094" xlink:href="#DejaVuSans-30"/>
      </g>
     </g>
    </g>
    <g id="ytick_7">
     <g id="line2d_14">
      <g>
       <use style="stroke:#000000;stroke-width:0.8;" x="33.2875" xlink:href="#m44590687ad" y="41.512968"/>
      </g>
     </g>
     <g id="text_14">
      <!-- 550 -->
      <g transform="translate(7.2 45.312187)scale(0.1 -0.1)">
       <use xlink:href="#DejaVuSans-35"/>
       <use x="63.623047" xlink:href="#DejaVuSans-35"/>
       <use x="127.246094" xlink:href="#DejaVuSans-30"/>
      </g>
     </g>
    </g>
   </g>
   <g id="line2d_15">
    <path clip-path="url(#p4617c2ef38)" d="M 273.602929 81.41644 
L 286.055316 81.758299 
L 286.5668 81.765326 
L 287.077857 81.765326 
L 287.588914 81.765326 
L 288.099971 81.765326 
L 288.611029 81.765326 
L 289.122086 81.765326 
L 289.633143 81.765326 
L 290.1442 81.765326 
L 290.655257 81.765326 
L 291.166314 81.765326 
L 291.677371 81.765326 
L 292.188429 81.765326 
L 292.699486 81.765326 
L 293.210543 81.765326 
L 293.7216 81.765326 
L 294.232657 81.765326 
L 294.743714 81.765326 
L 295.254771 81.765326 
L 295.765829 81.765326 
L 296.276886 81.765326 
L 296.787943 81.765326 
L 297.299 81.765326 
L 297.810057 81.765326 
L 298.321114 81.765326 
L 298.832171 81.765326 
L 299.343229 81.765326 
L 299.854286 81.765326 
L 300.365343 81.765326 
L 300.8764 81.765326 
L 301.387457 81.765326 
L 301.898514 81.765326 
L 302.409571 81.765326 
L 302.920629 81.765326 
L 303.431686 81.765326 
L 303.942743 81.765326 
L 304.4538 81.765326 
L 304.964857 81.765326 
L 305.475914 81.765326 
L 305.986971 81.765326 
L 306.498029 81.765326 
L 307.009086 81.765326 
L 307.520143 81.765326 
L 308.0312 81.765326 
L 308.542257 81.765326 
L 309.053314 81.765326 
L 309.564371 81.765326 
L 310.075429 81.765326 
L 310.586486 81.765326 
L 311.097081 81.772938 
L 323.999015 82.157939 
" style="fill:none;stroke:#dcdcdc;stroke-linecap:square;stroke-width:1.5;"/>
   </g>
   <g id="line2d_16">
    <path clip-path="url(#p4617c2ef38)" d="M 273.602929 81.41644 
L 273.582324 81.450945 
L 273.377929 81.807264 
L 273.182051 82.163349 
L 272.994688 82.519201 
L 272.815843 82.874818 
L 272.645513 83.230202 
L 272.483701 83.585352 
L 272.330404 83.940268 
L 272.185625 84.29495 
L 272.049361 84.649399 
L 271.921614 85.003613 
L 271.802384 85.357594 
L 271.69167 85.711341 
L 271.589472 86.064855 
L 271.495791 86.418134 
L 271.410626 86.77118 
L 271.333978 87.123992 
L 271.265847 87.47657 
L 271.206231 87.828914 
L 271.155133 88.181024 
L 271.11255 88.532901 
L 271.078484 88.884544 
L 271.052935 89.235953 
L 271.035902 89.587128 
L 271.027386 89.938069 
L 271.027386 91.129131 
L 271.018869 91.480072 
L 271.001836 91.831247 
L 270.976287 92.182656 
L 270.942221 92.534299 
L 270.899639 92.886176 
L 270.84854 93.238286 
L 270.788925 93.59063 
L 270.720793 93.943208 
L 270.644145 94.29602 
L 270.55898 94.649066 
L 270.465299 95.002345 
L 270.363102 95.355859 
L 270.252388 95.709606 
L 270.133157 96.063587 
L 270.00541 96.417801 
L 269.869147 96.77225 
L 269.724367 97.126932 
L 269.571071 97.481848 
L 269.409258 97.836998 
L 269.238929 98.192382 
L 269.060083 98.547999 
L 268.872721 98.903851 
L 268.676842 99.259936 
L 268.472447 99.616255 
L 268.259536 99.972807 
L 268.038108 100.329594 
L 267.808163 100.686614 
L 267.569702 101.043868 
L 267.322725 101.401356 
L 267.067231 101.759078 
L 266.803221 102.117034 
L 266.530694 102.475223 
L 266.249651 102.833646 
L 265.960091 103.192303 
L 265.662015 103.551194 
L 265.355422 103.910319 
L 265.040313 104.269677 
L 264.716688 104.629269 
L 264.384546 104.989095 
L 264.043887 105.349155 
L 263.694712 105.709449 
L 263.337021 106.069976 
L 262.970813 106.430737 
L 262.596089 106.791732 
L 262.212848 107.152961 
L 261.821091 107.514424 
L 261.420817 107.87612 
L 261.012027 108.23805 
L 260.59472 108.600214 
L 257.933949 110.864671 
L 257.469123 111.267314 
L 257.005073 111.676348 
L 256.541799 112.091773 
L 256.079301 112.51359 
L 255.617579 112.941797 
L 255.156633 113.376396 
L 254.696463 113.817386 
L 254.237069 114.264767 
L 253.778451 114.71854 
L 253.320609 115.178703 
L 253.040864 115.464255 
" style="fill:none;stroke:#dcdcdc;stroke-linecap:square;stroke-width:1.5;"/>
   </g>
   <g id="line2d_17">
    <path clip-path="url(#p4617c2ef38)" d="M 273.602929 81.41644 
L 273.422641 81.104622 
L 273.23102 80.759175 
L 273.047384 80.413508 
L 272.871732 80.067623 
L 272.704064 79.721518 
L 272.54438 79.375195 
L 272.392681 79.028652 
L 272.248966 78.68189 
L 272.113235 78.334908 
L 271.985488 77.987708 
L 271.865725 77.640288 
L 271.753946 77.292649 
L 271.650152 76.944791 
L 271.554342 76.596714 
L 271.466516 76.248417 
L 271.386674 75.899902 
L 271.314816 75.551167 
L 271.250943 75.202213 
L 271.195054 74.853039 
L 271.147148 74.503647 
L 271.107228 74.154035 
L 271.075291 73.804204 
L 271.051338 73.454154 
L 271.03537 73.103885 
L 271.027386 72.753397 
L 271.027386 72.402689 
L 271.019402 72.051762 
L 271.003433 71.700616 
L 270.979481 71.349251 
L 270.947544 70.997667 
L 270.907623 70.645863 
L 270.859718 70.29384 
L 270.803829 69.941599 
L 270.739955 69.589137 
L 270.668097 69.236457 
L 270.588256 68.883558 
L 270.50043 68.530439 
L 270.404619 68.177101 
L 270.300825 67.823544 
L 270.189047 67.469767 
L 270.069284 67.115772 
L 269.941537 66.761557 
L 269.805806 66.407123 
L 269.66209 66.05247 
L 269.510391 65.697598 
L 269.350707 65.342507 
L 269.183039 64.987196 
L 269.007387 64.631666 
L 268.823751 64.275917 
L 268.632131 63.919949 
L 268.432526 63.563762 
L 268.224938 63.207355 
L 268.009365 62.850729 
L 267.785807 62.493884 
L 267.554266 62.13682 
L 267.314741 61.779537 
L 267.067231 61.422034 
L 266.811737 61.064312 
L 266.771529 61.009688 
" style="fill:none;stroke:#dcdcdc;stroke-linecap:square;stroke-width:1.5;"/>
   </g>
   <g id="line2d_18">
    <defs>
     <path d="M 0 1.5 
C 0.397805 1.5 0.77937 1.341951 1.06066 1.06066 
C 1.341951 0.77937 1.5 0.397805 1.5 0 
C 1.5 -0.397805 1.341951 -0.77937 1.06066 -1.06066 
C 0.77937 -1.341951 0.397805 -1.5 0 -1.5 
C -0.397805 -1.5 -0.77937 -1.341951 -1.06066 -1.06066 
C -1.341951 -0.77937 -1.5 -0.397805 -1.5 0 
C -1.5 0.397805 -1.341951 0.77937 -1.06066 1.06066 
C -0.77937 1.341951 -0.397805 1.5 0 1.5 
z
" id="m62a916292b" style="stroke:#00bfbf;"/>
    </defs>
    <g clip-path="url(#p4617c2ef38)">
     <use style="fill:#00bfbf;stroke:#00bfbf;" x="273.602929" xlink:href="#m62a916292b" y="81.41644"/>
    </g>
   </g>
   <g id="line2d_19">
    <path clip-path="url(#p4617c2ef38)" d="M 254.737531 117.258181 
L 279.795267 121.226938 
L 282.7989 121.610047 
L 286.322335 121.859372 
L 291.383324 121.932338 
L 308.903061 122.081281 
L 315.696614 122.071096 
L 319.267178 121.83523 
L 322.857143 121.399639 
L 325.433281 120.966222 
L 336.835626 118.782277 
L 336.835626 118.782277 
" style="fill:none;stroke:#dcdcdc;stroke-linecap:square;stroke-width:1.5;"/>
   </g>
   <g id="line2d_20">
    <path clip-path="url(#p4617c2ef38)" d="M 254.737531 117.258181 
L 253.040864 115.464255 
" style="fill:none;stroke:#dcdcdc;stroke-linecap:square;stroke-width:1.5;"/>
   </g>
   <g id="line2d_21">
    <path clip-path="url(#p4617c2ef38)" d="M 254.737531 117.258181 
L 251.902289 162.136408 
L 251.515521 168.230196 
L 251.515521 168.230196 
" style="fill:none;stroke:#dcdcdc;stroke-linecap:square;stroke-width:1.5;"/>
   </g>
   <g id="line2d_22">
    <g clip-path="url(#p4617c2ef38)">
     <use style="fill:#00bfbf;stroke:#00bfbf;" x="254.737531" xlink:href="#m62a916292b" y="117.258181"/>
    </g>
   </g>
   <g id="line2d_23">
    <path clip-path="url(#p4617c2ef38)" d="M 338.33638 191.142247 
L 340.878542 193.793629 
L 343.222479 196.569593 
L 345.003761 198.995002 
L 346.533355 201.417089 
L 347.811264 203.835854 
L 348.837485 206.251298 
L 349.612021 208.663419 
L 350.134869 211.072218 
L 350.406032 213.477696 
L 350.425507 215.879851 
L 350.051922 221.021846 
L 349.646027 226.458578 
L 341.823169 232.831359 
L 320.175521 250.854603 
L 295.454616 250.491725 
L 293.001711 250.361156 
L 293.001711 250.361156 
" style="fill:none;stroke:#dcdcdc;stroke-linecap:square;stroke-width:1.5;"/>
   </g>
   <g id="line2d_24">
    <path clip-path="url(#p4617c2ef38)" d="M 338.33638 191.142247 
L 328.519012 191.544514 
L 328.00375 191.562999 
L 327.488784 191.578842 
L 326.974114 191.592046 
L 326.45974 191.602608 
L 325.945662 191.61053 
L 325.43188 191.615811 
L 324.918394 191.618452 
L 324.405203 191.618452 
L 323.892309 191.615811 
L 323.379711 191.61053 
L 322.867409 191.602608 
L 322.355402 191.592046 
L 321.843692 191.578842 
L 321.332277 191.562999 
L 320.821159 191.544514 
L 320.310336 191.523389 
L 320.285777 191.522246 
L 319.799532 191.502105 
L 319.781574 191.501267 
L 319.288727 191.48082 
L 319.27737 191.480289 
L 318.777923 191.459534 
L 318.773167 191.459312 
L 318.268964 191.438325 
L 318.267117 191.438258 
L 317.764763 191.417314 
L 317.756309 191.417005 
L 317.260562 191.396304 
L 317.245501 191.395752 
L 316.756361 191.375294 
L 316.734692 191.374499 
L 316.252159 191.354284 
L 316.223884 191.353245 
L 315.747958 191.333275 
L 315.713076 191.331991 
L 315.243756 191.312266 
L 315.202268 191.310736 
L 314.739555 191.291258 
L 314.69146 191.289481 
L 314.235354 191.27025 
L 314.180652 191.268225 
L 313.731152 191.249243 
L 313.669845 191.246969 
L 313.226951 191.228236 
L 313.159037 191.225712 
L 312.722749 191.207229 
L 312.648229 191.204455 
L 312.218548 191.186223 
L 312.137421 191.183198 
L 311.714346 191.165217 
L 311.626614 191.16194 
L 311.210145 191.144212 
L 311.115806 191.140682 
L 310.705943 191.123207 
L 310.604999 191.119423 
L 310.201741 191.102203 
L 310.094191 191.098164 
L 309.69754 191.081199 
L 309.583384 191.076905 
L 309.193338 191.060196 
L 309.072576 191.055645 
L 308.689136 191.039193 
L 308.561769 191.034384 
L 308.408528 191.027799 
" style="fill:none;stroke:#dcdcdc;stroke-linecap:square;stroke-width:1.5;"/>
   </g>
   <g id="line2d_25">
    <path clip-path="url(#p4617c2ef38)" d="M 338.33638 191.142247 
L 340.532803 188.642141 
L 342.631899 185.924819 
L 344.435087 183.203592 
L 345.77014 180.819315 
L 346.878638 178.432047 
L 347.760582 176.041789 
L 348.415972 173.648541 
L 348.844807 171.252302 
L 349.048205 168.853088 
L 350.447271 135.244976 
L 350.152256 132.839183 
L 349.625641 130.430334 
L 348.867427 128.018428 
L 347.877612 125.603466 
L 346.656196 123.185446 
L 345.09179 120.594136 
L 345.09179 120.594136 
" style="fill:none;stroke:#dcdcdc;stroke-linecap:square;stroke-width:1.5;"/>
   </g>
   <g id="line2d_26">
    <g clip-path="url(#p4617c2ef38)">
     <use style="fill:#00bfbf;stroke:#00bfbf;" x="338.33638" xlink:href="#m62a916292b" y="191.142247"/>
    </g>
   </g>
   <g id="line2d_27">
    <path clip-path="url(#p4617c2ef38)" d="M 336.835626 118.782277 
L 328.367718 106.71161 
L 328.135619 106.367274 
L 327.912805 106.022683 
L 327.699275 105.677838 
L 327.495028 105.332737 
L 327.300065 104.987382 
L 327.114387 104.641772 
L 326.937992 104.295907 
L 326.770881 103.949787 
L 326.613054 103.603412 
L 326.464511 103.256783 
L 326.325252 102.909898 
L 326.195277 102.562759 
L 326.074586 102.215365 
L 325.963179 101.867716 
L 325.861056 101.519812 
L 325.768216 101.171653 
L 325.684661 100.823239 
L 325.61039 100.47457 
L 325.545402 100.125647 
L 325.489698 99.776469 
L 325.443279 99.427035 
L 325.406143 99.077347 
L 325.378291 98.727404 
L 325.359723 98.377206 
L 325.350439 98.026754 
L 325.350439 97.676046 
L 325.359723 97.325084 
L 325.363255 97.258281 
L 325.370756 96.974073 
L 325.374329 96.906335 
L 325.381789 96.623063 
L 325.385404 96.55439 
L 325.392823 96.272052 
L 325.396478 96.202444 
L 325.403856 95.921042 
L 325.407552 95.850499 
L 325.414889 95.570031 
L 325.418626 95.498553 
L 325.425922 95.219021 
L 325.4297 95.146608 
L 325.436956 94.86801 
L 325.440774 94.794662 
L 325.44799 94.517 
L 325.451848 94.442716 
L 325.459023 94.165989 
L 325.462921 94.090771 
L 325.470057 93.814979 
L 325.473995 93.738825 
L 325.481091 93.463968 
L 325.485068 93.38688 
L 325.492125 93.112957 
L 325.496142 93.034934 
L 325.503159 92.761947 
L 325.507215 92.682988 
L 325.514193 92.410936 
L 325.518288 92.331043 
L 325.525227 92.059926 
L 325.529362 91.979097 
L 325.536261 91.708915 
L 325.540435 91.627152 
L 325.547296 91.357905 
L 325.551508 91.275206 
L 325.55833 91.006894 
L 325.562581 90.92326 
L 325.569365 90.655884 
L 325.573653 90.571315 
L 325.580399 90.304873 
L 325.584726 90.219369 
L 325.591434 89.953863 
L 325.595799 89.867423 
L 325.602469 89.602852 
L 325.606871 89.515478 
L 325.615729 89.163405 
L 325.615729 88.810826 
L 325.606871 88.457741 
L 325.589157 88.104149 
L 325.562586 87.75005 
L 325.527157 87.395445 
L 325.482871 87.040333 
L 325.429729 86.684714 
L 325.367729 86.328589 
L 325.296871 85.971958 
L 325.217157 85.61482 
L 325.128586 85.257175 
L 325.031157 84.899024 
L 324.924871 84.540366 
L 324.809729 84.181201 
L 324.685729 83.82153 
L 324.552871 83.461353 
L 324.411157 83.100668 
L 324.260586 82.739478 
L 324.101157 82.37778 
L 323.999015 82.157939 
" style="fill:none;stroke:#dcdcdc;stroke-linecap:square;stroke-width:1.5;"/>
   </g>
   <g id="line2d_28">
    <path clip-path="url(#p4617c2ef38)" d="M 336.835626 118.782277 
L 338.43135 119.075634 
L 338.936741 119.171676 
L 339.44195 119.270816 
L 339.946979 119.373054 
L 340.451828 119.47839 
L 340.956496 119.586824 
L 341.460984 119.698357 
L 341.965291 119.812987 
L 342.469417 119.930716 
L 342.973363 120.051543 
L 343.477128 120.175468 
L 343.980713 120.302491 
L 344.484117 120.432612 
L 344.987341 120.565831 
L 345.09179 120.594136 
" style="fill:none;stroke:#dcdcdc;stroke-linecap:square;stroke-width:1.5;"/>
   </g>
   <g id="line2d_29">
    <g clip-path="url(#p4617c2ef38)">
     <use style="fill:#00bfbf;stroke:#00bfbf;" x="336.835626" xlink:href="#m62a916292b" y="118.782277"/>
    </g>
   </g>
   <g id="line2d_30">
    <path clip-path="url(#p4617c2ef38)" d="M 323.999015 82.157939 
L 324.090129 82.024571 
L 324.313358 81.684759 
L 324.528002 81.344457 
L 324.73406 81.003663 
L 324.931533 80.662378 
L 328.360806 74.457373 
L 328.558414 74.115835 
L 328.764613 73.774768 
L 328.979404 73.434174 
L 329.202787 73.09405 
L 329.434761 72.754399 
L 329.675327 72.415219 
L 329.924485 72.076512 
L 330.182234 71.738275 
L 330.448575 71.400511 
L 330.723508 71.063218 
L 331.007032 70.726397 
L 331.299148 70.390048 
L 331.599855 70.054171 
L 331.909154 69.718765 
L 332.227045 69.383831 
L 332.553527 69.049369 
L 332.888601 68.715378 
L 333.232267 68.381859 
L 333.584524 68.048812 
L 333.945373 67.716237 
L 334.314814 67.384133 
L 334.692846 67.052501 
L 335.07947 66.721341 
L 335.474686 66.390653 
L 335.878493 66.060436 
L 336.290892 65.730692 
L 336.711882 65.401418 
L 337.141464 65.072617 
L 337.579638 64.744287 
L 338.026403 64.416429 
L 338.48176 64.089043 
L 338.945709 63.762129 
L 339.418249 63.435686 
L 339.899381 63.109715 
L 340.389105 62.784216 
L 340.88742 62.459188 
L 341.394327 62.134632 
L 341.909825 61.810548 
L 342.433916 61.486936 
L 342.966597 61.163796 
L 343.507871 60.841127 
L 344.057736 60.51893 
L 344.130014 60.47729 
L 344.608729 60.196795 
L 344.681 60.15515 
L 345.159722 59.874659 
L 345.231986 59.833009 
L 345.710715 59.552524 
L 345.782971 59.510868 
L 346.261707 59.230389 
L 346.333957 59.188728 
L 346.389199 59.156364 
" style="fill:none;stroke:#dcdcdc;stroke-linecap:square;stroke-width:1.5;"/>
   </g>
   <g id="line2d_31">
    <g clip-path="url(#p4617c2ef38)">
     <use style="fill:#00bfbf;stroke:#00bfbf;" x="323.999015" xlink:href="#m62a916292b" y="82.157939"/>
    </g>
   </g>
   <g id="line2d_32">
    <path clip-path="url(#p4617c2ef38)" d="M 137.521174 180.078343 
L 135.77852 182.01479 
L 138.092813 187.097591 
L 138.242743 187.444407 
L 138.384782 187.791424 
L 138.518929 188.138642 
L 138.645186 188.48606 
L 138.763551 188.833679 
L 138.874026 189.181499 
L 138.976609 189.529519 
L 139.071301 189.877739 
L 139.158103 190.226161 
L 139.237013 190.574782 
L 139.308032 190.923605 
L 139.371161 191.272628 
L 139.426398 191.621851 
L 139.473744 191.971275 
L 139.513199 192.3209 
L 139.544763 192.670726 
L 139.568436 193.020751 
L 139.584218 193.370978 
L 139.59211 193.721405 
L 139.59211 194.072033 
L 139.584218 194.422861 
L 139.568436 194.77389 
L 139.544763 195.125119 
L 139.513199 195.476549 
L 139.473744 195.82818 
L 139.426398 196.180011 
L 139.371161 196.532043 
L 139.308032 196.884275 
L 139.237013 197.236708 
L 139.158103 197.589342 
L 139.071301 197.942176 
L 138.976609 198.295211 
L 138.874026 198.648446 
L 138.763551 199.001882 
L 138.645186 199.355519 
L 138.631812 199.392999 
L 138.525922 199.709178 
L 138.513558 199.743826 
L 138.406659 200.062837 
L 138.395304 200.094653 
L 138.287395 200.416496 
L 138.27705 200.445481 
L 138.168131 200.770156 
L 138.158797 200.796308 
L 138.048867 201.123815 
L 138.040543 201.147135 
L 137.929603 201.477474 
L 137.92229 201.497963 
L 137.810339 201.831134 
L 137.804036 201.84879 
L 137.691075 202.184793 
L 137.685783 202.199617 
L 137.592603 202.476637 
L 137.6533 202.536381 
L 137.990903 202.878427 
L 138.318861 203.220718 
L 138.637173 203.563254 
L 138.94584 203.906036 
L 139.24486 204.249062 
L 139.534235 204.592334 
L 139.813963 204.935851 
L 140.084046 205.279614 
L 140.344484 205.623621 
L 146.613123 214.228367 
L 146.873407 214.572161 
L 147.14333 214.915702 
L 147.422893 215.258987 
L 147.712097 215.602018 
L 148.01094 215.944795 
L 148.319424 216.287317 
L 148.637548 216.629585 
L 148.965312 216.971598 
L 149.302716 217.313357 
L 149.64976 217.654861 
L 150.006444 217.996111 
L 150.372768 218.337106 
L 150.748733 218.677847 
L 151.134338 219.018333 
L 151.529582 219.358565 
L 151.934467 219.698543 
L 152.348992 220.038266 
L 152.773157 220.377734 
L 153.206962 220.716948 
L 153.650408 221.055908 
L 154.103493 221.394613 
L 154.566219 221.733063 
L 155.038584 222.071259 
L 155.52059 222.409201 
L 156.012236 222.746888 
L 156.513522 223.084321 
L 157.024448 223.421499 
L 157.545014 223.758423 
L 158.075221 224.095092 
L 158.615067 224.431507 
L 159.164554 224.767667 
L 159.374973 224.894081 
L 159.717694 225.103731 
L 159.929605 225.231073 
L 160.270834 225.439795 
L 160.484236 225.568064 
L 160.823974 225.775859 
L 161.038867 225.905056 
L 161.377113 226.111923 
L 161.593498 226.242047 
L 161.930251 226.447987 
L 162.148129 226.579037 
L 162.483389 226.78405 
L 162.702761 226.916028 
L 163.036526 227.120114 
L 163.257392 227.253018 
L 163.589663 227.456178 
L 163.812023 227.590008 
L 164.1428 227.792242 
L 164.366654 227.926997 
L 164.695936 228.128306 
L 164.921284 228.263986 
L 165.249072 228.46437 
L 165.475915 228.600975 
L 165.802208 228.800434 
L 166.030546 228.937964 
L 166.355343 229.136498 
L 166.585177 229.274953 
L 166.616117 229.293864 
" style="fill:none;stroke:#dcdcdc;stroke-linecap:square;stroke-width:1.5;"/>
   </g>
   <g id="line2d_33">
    <path clip-path="url(#p4617c2ef38)" d="M 137.521174 180.078343 
L 137.674602 176.603358 
L 138.115756 176.167153 
L 138.606751 175.696513 
L 139.09834 175.240135 
L 139.590523 174.798018 
L 140.0833 174.370164 
L 140.576671 173.956571 
L 141.070635 173.55724 
L 141.565192 173.172171 
L 142.060344 172.801364 
L 142.556089 172.444819 
L 143.052428 172.102535 
L 143.549361 171.774513 
L 144.046887 171.460753 
L 144.545007 171.161255 
L 144.9547 170.926934 
L 145.498802 170.597006 
L 146.01649 170.263453 
L 146.507767 169.926274 
L 146.97263 169.585469 
L 147.411081 169.241039 
L 147.823119 168.892983 
L 148.208744 168.541302 
L 148.567957 168.185995 
L 153.424056 162.948581 
L 153.806993 162.559762 
L 154.21479 162.168317 
L 154.647447 161.774248 
L 155.104964 161.377553 
L 155.58734 160.978234 
L 156.094577 160.57629 
L 156.310062 160.41245 
" style="fill:none;stroke:#dcdcdc;stroke-linecap:square;stroke-width:1.5;"/>
   </g>
   <g id="line2d_34">
    <path clip-path="url(#p4617c2ef38)" d="M 137.521174 180.078343 
L 152.939591 179.549235 
L 153.531769 179.540153 
L 154.120639 179.542423 
L 154.706201 179.556047 
L 155.288454 179.581023 
L 155.566766 179.598487 
L 155.868921 179.61213 
L 156.079485 179.625849 
L 156.449342 179.643393 
L 156.592193 179.653048 
L 157.029716 179.674816 
L 157.104891 179.680083 
L 157.610044 179.706402 
L 157.617579 179.706949 
L 158.130333 179.734885 
L 158.64252 179.753509 
L 159.154143 179.762821 
L 159.6652 179.762821 
L 160.175692 179.753509 
L 160.685618 179.734885 
L 161.194979 179.706949 
L 161.703775 179.6697 
L 162.212006 179.62314 
L 162.719671 179.567267 
L 163.226771 179.502083 
L 163.733305 179.427586 
L 164.239274 179.343777 
L 164.744678 179.250656 
L 165.249517 179.148223 
L 165.75379 179.036478 
L 166.257498 178.915421 
L 166.76064 178.785052 
L 167.263218 178.645371 
L 167.76523 178.496377 
L 168.266676 178.338072 
L 168.767557 178.170454 
L 169.267873 177.993525 
L 169.767624 177.807283 
L 170.266809 177.611729 
L 170.765429 177.406863 
L 171.263484 177.192685 
L 171.760973 176.969195 
L 172.257897 176.736393 
L 172.754255 176.494279 
L 173.250049 176.242852 
L 173.745277 175.982114 
L 174.239939 175.712063 
L 174.734036 175.432701 
L 175.227568 175.144026 
L 175.31067 175.093793 
L 175.721064 174.854752 
L 175.86894 174.76581 
L 176.016601 174.680144 
" style="fill:none;stroke:#dcdcdc;stroke-linecap:square;stroke-width:1.5;"/>
   </g>
   <g id="line2d_35">
    <g clip-path="url(#p4617c2ef38)">
     <use style="fill:#00bfbf;stroke:#00bfbf;" x="137.521174" xlink:href="#m62a916292b" y="180.078343"/>
    </g>
   </g>
   <g id="line2d_36">
    <path clip-path="url(#p4617c2ef38)" d="M 259.675429 224.28702 
L 259.470352 224.406893 
L 259.463393 224.41103 
L 258.919366 224.729029 
L 258.912408 224.733166 
L 258.36838 225.051164 
L 258.361423 225.055303 
L 257.817394 225.3733 
L 257.810437 225.377439 
L 257.266408 225.695436 
L 257.259452 225.699575 
L 256.715422 226.017571 
L 256.708467 226.021711 
L 256.164436 226.339707 
L 256.157482 226.343848 
L 255.61345 226.661842 
L 255.606496 226.665984 
L 255.062463 226.983978 
L 255.055511 226.98812 
L 254.511477 227.306113 
L 254.504526 227.310257 
L 253.960491 227.628249 
L 253.953541 227.632393 
L 253.409504 227.950384 
L 253.402555 227.95453 
L 252.858518 228.27252 
L 252.85157 228.276666 
L 252.307531 228.594655 
L 252.300585 228.598803 
L 251.756545 228.916791 
L 251.7496 228.920939 
L 251.205558 229.238926 
L 251.198614 229.243076 
L 250.654571 229.561062 
L 250.647629 229.565213 
L 250.103585 229.883197 
L 250.096644 229.887349 
L 249.552598 230.205333 
L 249.545659 230.209486 
L 249.001611 230.527468 
L 248.994673 230.531623 
L 248.450624 230.849604 
L 248.443688 230.85376 
L 247.899637 231.171739 
L 247.892703 231.175897 
L 247.34865 231.493875 
L 247.341717 231.498034 
L 246.797662 231.81601 
L 246.790732 231.820171 
L 246.246675 232.138145 
L 246.239747 232.142308 
L 245.695687 232.460281 
L 245.688761 232.464446 
L 245.1447 232.782416 
L 245.137776 232.786583 
L 244.593712 233.104552 
L 244.586791 233.108721 
L 244.042724 233.426687 
L 244.035805 233.430858 
L 243.491736 233.748823 
L 243.48482 233.752996 
L 242.940747 234.070958 
L 242.933834 234.075134 
L 242.389759 234.393093 
L 242.382849 234.397272 
L 241.83877 234.715229 
L 241.831864 234.719411 
L 241.287781 235.037364 
L 241.280878 235.041549 
L 240.736791 235.359499 
L 240.729893 235.363688 
L 240.185801 235.681635 
L 239.654253 236.004838 
L 226.377182 244.416365 
L 225.846604 244.752507 
L 225.316026 245.088648 
L 224.785447 245.42479 
L 224.254869 245.760931 
L 223.724291 246.097073 
L 223.193713 246.433214 
L 222.663134 246.769356 
L 222.132556 247.105497 
L 221.601978 247.441639 
L 221.071399 247.77778 
L 220.540821 248.113922 
L 220.010243 248.450063 
L 219.479665 248.786205 
L 218.949086 249.122346 
L 218.418508 249.458488 
L 217.88793 249.794629 
L 217.357351 250.130771 
L 216.826773 250.466912 
L 216.296195 250.803053 
L 215.765617 251.139195 
L 215.235038 251.475336 
L 214.70446 251.811478 
L 214.173882 252.147619 
L 213.659629 252.473418 
" style="fill:none;stroke:#dcdcdc;stroke-linecap:square;stroke-width:1.5;"/>
   </g>
   <g id="line2d_37">
    <path clip-path="url(#p4617c2ef38)" d="M 259.675429 224.28702 
L 259.835249 224.293326 
L 259.989737 224.300295 
L 260.345014 224.314309 
L 260.500722 224.32133 
L 260.854779 224.335291 
L 261.011706 224.342365 
L 261.364543 224.356274 
L 261.522691 224.363401 
L 261.874308 224.377256 
L 262.033676 224.384436 
L 262.384073 224.398239 
L 262.54466 224.405471 
L 262.893838 224.419221 
L 263.055645 224.426506 
L 263.403603 224.440204 
L 263.566629 224.447541 
L 263.913368 224.461187 
L 264.077614 224.468576 
L 264.423132 224.482169 
L 264.588599 224.489611 
L 264.932897 224.503152 
L 265.099583 224.510646 
L 265.442662 224.524134 
L 265.610568 224.531681 
L 265.952427 224.545117 
L 266.121553 224.552716 
L 266.462192 224.5661 
L 266.632537 224.573751 
L 266.971956 224.587082 
L 267.143522 224.594786 
L 267.481721 224.608065 
L 267.664326 224.616262 
" style="fill:none;stroke:#dcdcdc;stroke-linecap:square;stroke-width:1.5;"/>
   </g>
   <g id="line2d_38">
    <path clip-path="url(#p4617c2ef38)" d="M 259.675429 224.28702 
L 259.367386 224.048852 
L 259.339775 224.027143 
L 258.877286 223.669554 
L 258.85084 223.648754 
L 258.387187 223.290256 
L 258.361905 223.270365 
L 257.897088 222.910958 
L 257.87297 222.891976 
L 257.406989 222.53166 
L 257.384035 222.513588 
L 256.91689 222.152362 
L 256.8951 222.1352 
L 256.426792 221.773064 
L 256.406165 221.756812 
L 255.936694 221.393766 
L 255.91723 221.378424 
L 255.446597 221.014468 
L 255.428295 221.000037 
L 254.956499 220.63517 
L 254.93936 220.621649 
L 254.466402 220.255872 
L 254.450425 220.243262 
L 253.976306 219.876574 
L 253.96149 219.864876 
L 253.48621 219.497276 
L 253.472555 219.486489 
L 252.983608 219.108305 
L 252.494211 218.73784 
L 252.004365 218.375092 
L 251.514069 218.020062 
L 251.023323 217.672751 
L 250.532127 217.333157 
L 250.040481 217.001281 
L 249.548385 216.677124 
L 249.05584 216.360684 
L 248.562845 216.051963 
L 248.0694 215.750959 
L 247.575505 215.457674 
L 247.08116 215.172107 
L 230.359271 205.782013 
L 229.878252 205.503891 
L 229.39811 205.218252 
L 228.918845 204.925096 
L 228.440455 204.624423 
L 227.962941 204.316234 
L 227.486304 204.000528 
L 227.010543 203.677305 
L 226.535658 203.346565 
L 226.061649 203.008308 
L 225.588516 202.662535 
L 225.11626 202.309244 
L 224.64488 201.948437 
L 224.417026 201.770067 
L 224.173929 201.583941 
L 223.947169 201.40646 
L 223.702979 201.219446 
L 223.477314 201.042853 
L 223.232029 200.854951 
L 223.007459 200.679246 
L 222.761078 200.490457 
L 222.537606 200.31564 
L 222.290127 200.125964 
L 222.067753 199.952033 
L 221.819177 199.761472 
L 221.597901 199.588427 
L 221.348226 199.396979 
L 221.12805 199.22482 
L 220.877275 199.032488 
L 220.6582 198.861214 
L 220.406324 198.667997 
L 220.188351 198.497607 
L 219.935373 198.303506 
L 219.718502 198.134 
L 219.464422 197.939016 
L 219.248654 197.770394 
L 218.993471 197.574527 
L 218.778807 197.406788 
L 218.52252 197.210038 
L 218.30896 197.043181 
L 218.051569 196.845549 
L 217.839114 196.679575 
L 217.580618 196.48106 
L 217.369268 196.315968 
L 217.109666 196.116572 
L 216.899423 195.952362 
L 216.638715 195.752085 
L 216.429578 195.588755 
L 216.167764 195.387597 
L 215.959734 195.225149 
L 215.696812 195.02311 
L 215.48989 194.861543 
L 215.225861 194.658623 
L 215.020046 194.497936 
L 214.75491 194.294137 
L 214.550203 194.13433 
L 214.367747 193.994064 
" style="fill:none;stroke:#dcdcdc;stroke-linecap:square;stroke-width:1.5;"/>
   </g>
   <g id="line2d_39">
    <g clip-path="url(#p4617c2ef38)">
     <use style="fill:#00bfbf;stroke:#00bfbf;" x="259.675429" xlink:href="#m62a916292b" y="224.28702"/>
    </g>
   </g>
   <g id="line2d_40">
    <path clip-path="url(#p4617c2ef38)" d="M 163.486783 136.598461 
L 163.863276 136.296362 
L 164.269266 135.961763 
L 164.664652 135.62684 
L 165.049436 135.291594 
L 165.423616 134.956024 
L 165.620342 134.774276 
L 165.792915 134.620305 
L 166.049397 134.384437 
L 166.161922 134.284578 
L 166.478546 133.994791 
L 166.530616 133.94884 
L 166.899286 133.613103 
L 166.907711 133.605178 
L 167.269512 133.277412 
L 167.336466 133.214719 
L 167.639471 132.941714 
L 167.765309 132.824444 
L 168.009143 132.606006 
L 168.194249 132.434366 
L 168.378504 132.27029 
L 168.62329 132.044499 
L 169.0558 131.661774 
L 169.493751 131.29025 
L 169.937142 130.929927 
L 182.569817 121.103679 
L 183.083932 120.716324 
L 183.615183 120.328185 
L 184.163572 119.939262 
L 184.355976 119.806675 
L 184.71841 119.550044 
L 184.885612 119.434905 
L 185.273271 119.160824 
L 185.41525 119.063119 
L 185.828152 118.771604 
L 185.944888 118.691321 
L 186.383052 118.382383 
L 186.474527 118.31951 
L 186.537 118.275517 
" style="fill:none;stroke:#dcdcdc;stroke-linecap:square;stroke-width:1.5;"/>
   </g>
   <g id="line2d_41">
    <path clip-path="url(#p4617c2ef38)" d="M 163.486783 136.598461 
L 163.068813 136.653628 
L 162.499437 136.722793 
L 161.92838 136.786194 
L 161.355645 136.843832 
L 158.609305 137.091845 
" style="fill:none;stroke:#dcdcdc;stroke-linecap:square;stroke-width:1.5;"/>
   </g>
   <g id="line2d_42">
    <path clip-path="url(#p4617c2ef38)" d="M 163.486783 136.598461 
L 163.546848 136.633694 
L 163.675027 136.710878 
L 164.16934 136.999666 
L 164.386743 137.130173 
L 164.791511 137.365628 
L 165.09839 137.549235 
L 165.41332 137.731579 
L 165.809963 137.968037 
L 166.03472 138.097518 
L 166.52145 138.386551 
L 166.655655 138.463442 
L 167.274377 138.829299 
L 167.87215 139.194517 
L 168.448973 139.559096 
L 169.004846 139.923036 
L 169.539769 140.286336 
L 170.053741 140.648998 
L 170.546764 141.011021 
L 171.018837 141.372404 
L 171.46996 141.733149 
L 171.900133 142.093254 
L 172.309356 142.452721 
L 172.697629 142.811548 
L 173.064952 143.169737 
L 173.411325 143.527286 
L 173.736748 143.884196 
L 174.041221 144.240467 
L 174.324744 144.596099 
L 174.587317 144.951092 
L 174.82894 145.305446 
L 175.049613 145.659161 
L 175.249336 146.012237 
L 175.42811 146.364674 
L 175.585933 146.716472 
L 175.722806 147.067631 
L 175.838729 147.418151 
L 175.933703 147.768031 
L 176.007726 148.117273 
L 176.060799 148.465876 
L 176.092922 148.813839 
L 176.097439 148.954226 
L 176.11786 149.161583 
L 176.124474 149.336352 
L 176.142593 149.509321 
L 176.151715 149.718459 
L 176.167116 149.857053 
L 176.179165 150.100545 
L 176.191424 150.204778 
L 176.206831 150.482609 
L 176.215512 150.552497 
L 176.234717 150.864653 
L 176.239372 150.900208 
L 176.262829 151.246674 
L 176.262999 151.247913 
L 176.28873 151.595681 
L 176.289062 151.628879 
L 176.314349 151.943446 
L 176.315419 152.011072 
L 176.339762 152.291205 
L 176.341983 152.393245 
L 176.364965 152.638957 
L 176.368761 152.775397 
L 176.389951 152.986703 
L 176.395757 153.157527 
L 176.414714 153.334442 
L 176.422977 153.539635 
L 176.439249 153.682174 
L 176.455462 154.029652 
L 176.44814 154.376413 
L 176.417282 154.722455 
L 176.362888 155.06778 
L 176.284958 155.412386 
L 176.183492 155.756275 
L 176.058491 156.099445 
L 175.909953 156.441898 
L 175.73788 156.783633 
L 175.542271 157.12465 
L 175.323126 157.464949 
L 175.080445 157.804529 
L 174.814228 158.143393 
L 174.524476 158.481538 
L 174.211187 158.818965 
L 173.874363 159.155674 
L 173.514003 159.491665 
L 173.130107 159.826939 
L 172.722675 160.161494 
L 172.507244 160.328372 
L 172.304844 160.495733 
L 172.029275 160.711216 
L 171.886583 160.829958 
L 171.551386 161.094334 
L 171.467949 161.164172 
L 171.073567 161.477695 
L 171.048991 161.498375 
L 170.631581 161.832627 
L 170.595495 161.860185 
L 170.215031 162.166904 
L 170.117278 162.242181 
L 169.798017 162.501167 
L 169.639145 162.624463 
L 169.380592 162.835418 
L 169.161087 163.007002 
L 168.962802 163.169657 
L 168.89855 163.220221 
" style="fill:none;stroke:#dcdcdc;stroke-linecap:square;stroke-width:1.5;"/>
   </g>
   <g id="line2d_43">
    <g clip-path="url(#p4617c2ef38)">
     <use style="fill:#00bfbf;stroke:#00bfbf;" x="163.486783" xlink:href="#m62a916292b" y="136.598461"/>
    </g>
   </g>
   <g id="line2d_44">
    <path clip-path="url(#p4617c2ef38)" d="M 293.001711 250.361156 
L 272.496901 263.815319 
L 270.500578 264.837713 
L 268.504255 265.592036 
L 266.507932 266.078287 
L 264.511609 266.296467 
L 261.383492 266.27293 
L 249.539187 266.113361 
L 236.064007 265.795844 
L 234.067684 265.391706 
L 232.071361 264.743868 
L 230.075038 263.852328 
L 228.078715 262.717087 
L 225.420572 260.873361 
L 213.659629 252.473418 
L 213.659629 252.473418 
" style="fill:none;stroke:#dcdcdc;stroke-linecap:square;stroke-width:1.5;"/>
   </g>
   <g id="line2d_45">
    <path clip-path="url(#p4617c2ef38)" d="M 293.001711 250.361156 
L 292.734651 250.127047 
L 292.328987 249.764691 
L 291.931277 249.402562 
L 291.541521 249.040661 
L 291.15972 248.678988 
L 290.785872 248.317541 
L 290.419979 247.956323 
L 290.062041 247.595331 
L 289.712056 247.234567 
L 289.370025 246.874031 
L 274.138594 230.446583 
L 273.796982 230.086497 
L 273.447426 229.726193 
L 273.089925 229.365671 
L 272.72448 229.00493 
L 272.35109 228.643972 
L 271.969756 228.282796 
L 271.580478 227.921401 
L 271.183255 227.559788 
L 270.778087 227.197957 
L 270.364975 226.835909 
L 269.943919 226.473642 
L 269.514918 226.111156 
L 269.077972 225.748453 
L 268.633083 225.385532 
L 268.180248 225.022393 
L 267.71947 224.659035 
L 267.664326 224.616262 
" style="fill:none;stroke:#dcdcdc;stroke-linecap:square;stroke-width:1.5;"/>
   </g>
   <g id="line2d_46">
    <g clip-path="url(#p4617c2ef38)">
     <use style="fill:#00bfbf;stroke:#00bfbf;" x="293.001711" xlink:href="#m62a916292b" y="250.361156"/>
    </g>
   </g>
   <g id="line2d_47">
    <path clip-path="url(#p4617c2ef38)" d="M 219.578002 112.01844 
L 219.228612 112.171405 
L 218.708568 112.395048 
L 218.188793 112.614536 
L 217.669287 112.829872 
L 217.15005 113.041054 
L 216.631082 113.248082 
L 216.112382 113.450957 
L 215.593952 113.649679 
L 215.075791 113.844247 
L 214.557898 114.034661 
L 214.040275 114.220922 
L 213.52292 114.40303 
L 213.005835 114.580984 
L 212.489018 114.754784 
L 211.972471 114.924431 
L 211.456192 115.089925 
L 210.940183 115.251265 
L 210.424442 115.408451 
L 209.90897 115.561484 
L 209.393768 115.710364 
L 208.878834 115.85509 
L 208.364169 115.995663 
L 207.849773 116.132082 
L 207.335646 116.264347 
L 206.821788 116.392459 
L 206.3082 116.516418 
L 205.79488 116.636223 
L 205.281829 116.751875 
L 204.769047 116.863373 
L 204.256533 116.970718 
L 203.744289 117.073909 
L 203.232314 117.172946 
L 202.720608 117.267831 
L 202.209171 117.358561 
L 201.698003 117.445139 
L 201.187103 117.527562 
L 200.676473 117.605832 
L 200.166112 117.679949 
L 199.656019 117.749912 
L 199.146196 117.815722 
L 198.636641 117.877378 
L 198.127356 117.934881 
L 197.618339 117.988231 
L 197.109592 118.037426 
L 196.601113 118.082469 
L 196.092904 118.123357 
L 195.584963 118.160093 
L 195.077291 118.192675 
L 194.569888 118.221103 
L 194.062755 118.245378 
L 193.55589 118.265499 
L 193.049294 118.281467 
L 192.542967 118.293281 
L 192.036909 118.300942 
L 191.53112 118.30445 
L 191.0256 118.303804 
L 190.719537 118.300896 
L 190.520242 118.300659 
L 190.208891 118.297728 
L 190.014884 118.297515 
L 189.698244 118.29456 
L 189.509526 118.29437 
L 189.187598 118.291392 
L 189.004168 118.291224 
L 188.676952 118.288225 
L 188.498809 118.288078 
L 188.166306 118.285059 
L 187.993451 118.284932 
L 187.65566 118.281892 
L 187.488093 118.281785 
L 187.145014 118.278727 
L 186.982735 118.278637 
L 186.634368 118.275562 
L 186.537 118.275517 
" style="fill:none;stroke:#dcdcdc;stroke-linecap:square;stroke-width:1.5;"/>
   </g>
   <g id="line2d_48">
    <path clip-path="url(#p4617c2ef38)" d="M 219.578002 112.01844 
L 219.742498 112.042871 
L 220.243428 112.114386 
L 220.744544 112.183046 
L 221.245845 112.24885 
L 221.74733 112.311798 
L 222.249001 112.371891 
L 222.750856 112.429128 
L 223.252896 112.48351 
L 223.755121 112.535037 
L 224.257531 112.583708 
L 224.760126 112.629523 
L 225.262906 112.672483 
L 225.765871 112.712587 
L 226.269021 112.749836 
L 226.772356 112.784229 
L 227.275875 112.815767 
L 227.77958 112.844449 
L 228.283469 112.870275 
L 228.787543 112.893246 
L 229.291802 112.913362 
L 229.796247 112.930622 
L 230.300876 112.945027 
L 234.052392 113.030853 
L 234.567895 113.045585 
L 235.083755 113.063263 
L 235.599974 113.083887 
L 236.11655 113.107458 
L 236.633484 113.133975 
L 237.150776 113.163438 
L 237.668425 113.195848 
L 238.186432 113.231204 
L 238.704797 113.269507 
L 239.22352 113.310755 
L 239.7426 113.354951 
L 240.262038 113.402092 
L 240.781834 113.45218 
L 241.301988 113.505214 
L 241.822499 113.561194 
L 242.343368 113.620121 
L 242.864595 113.681995 
L 243.38618 113.746814 
L 243.908122 113.81458 
L 244.430422 113.885292 
L 244.95308 113.958951 
L 245.476095 114.035556 
L 245.999468 114.115107 
L 246.523199 114.197604 
L 247.047288 114.283048 
L 247.571735 114.371439 
L 248.096539 114.462775 
L 248.621701 114.557058 
L 249.147221 114.654287 
L 249.673098 114.754463 
L 250.199333 114.857585 
L 250.725926 114.963653 
L 251.252877 115.072668 
L 251.780185 115.184629 
L 252.307851 115.299536 
L 252.835875 115.41739 
L 253.040864 115.464255 
" style="fill:none;stroke:#dcdcdc;stroke-linecap:square;stroke-width:1.5;"/>
   </g>
   <g id="line2d_49">
    <path clip-path="url(#p4617c2ef38)" d="M 219.578002 112.01844 
L 214.926563 104.506828 
L 213.925425 102.739027 
L 212.934322 100.624881 
L 212.172597 98.518606 
L 211.452226 95.720372 
L 209.719169 88.583807 
L 207.916632 81.0381 
L 207.712896 79.297662 
L 207.715998 77.564323 
L 207.817143 76.527727 
L 208.737195 70.213106 
L 211.30527 69.205026 
L 214.166472 68.294716 
L 217.089205 67.581483 
L 220.266195 67.034156 
L 223.204852 66.49339 
L 226.080296 65.760489 
L 228.892527 64.835454 
L 231.641545 63.718285 
L 234.32735 62.40898 
L 236.949941 60.907541 
L 237.390833 60.668831 
L 240.999732 60.586459 
L 247.304414 60.120757 
L 253.936643 59.725239 
L 257.507843 59.78974 
L 261.079043 60.079993 
L 264.650243 60.596 
L 266.771529 61.009688 
L 266.771529 61.009688 
" style="fill:none;stroke:#dcdcdc;stroke-linecap:square;stroke-width:1.5;"/>
   </g>
   <g id="line2d_50">
    <g clip-path="url(#p4617c2ef38)">
     <use style="fill:#00bfbf;stroke:#00bfbf;" x="219.578002" xlink:href="#m62a916292b" y="112.01844"/>
    </g>
   </g>
   <g id="line2d_51">
    <path clip-path="url(#p4617c2ef38)" d="M 158.609305 137.091845 
L 156.205865 135.480797 
L 153.864331 133.637727 
L 152.196622 132.071893 
L 150.786703 130.47884 
L 149.634576 128.858566 
L 148.74024 127.211072 
L 148.103695 125.536358 
L 144.34953 111.997347 
L 144.312772 110.730933 
L 153.586425 108.512017 
L 155.62216 108.346048 
L 163.514541 107.978863 
L 165.817014 107.938121 
L 167.868206 108.175281 
L 169.929791 108.68348 
L 172.001768 109.462718 
L 174.084137 110.512996 
L 177.744559 112.775459 
L 186.537 118.275517 
L 186.537 118.275517 
" style="fill:none;stroke:#dcdcdc;stroke-linecap:square;stroke-width:1.5;"/>
   </g>
   <g id="line2d_52">
    <path clip-path="url(#p4617c2ef38)" d="M 158.609305 137.091845 
L 158.388971 137.340596 
L 158.059233 137.723798 
L 157.740186 138.105871 
L 157.431828 138.486816 
L 157.134161 138.866632 
L 156.847182 139.245319 
L 156.570894 139.622877 
L 156.305295 139.999307 
L 156.050386 140.374608 
L 155.806167 140.748781 
L 155.572638 141.121824 
L 155.349798 141.493739 
L 155.137648 141.864525 
L 154.936188 142.234183 
L 154.745417 142.602711 
L 154.565336 142.970111 
L 154.395945 143.336383 
L 154.237244 143.701525 
L 154.089232 144.065539 
L 153.95191 144.428424 
L 153.825278 144.79018 
L 153.709335 145.150808 
L 153.604083 145.510307 
L 153.50952 145.868677 
L 153.425646 146.225919 
L 153.352463 146.582031 
L 153.289969 146.937015 
L 153.238165 147.290871 
L 153.197051 147.643597 
L 153.166626 147.995195 
L 153.146891 148.345664 
L 153.137846 148.695004 
L 153.139491 149.043216 
L 153.151825 149.390299 
L 153.174849 149.736253 
L 153.208563 150.081079 
L 153.252966 150.424775 
L 153.308059 150.767343 
L 153.373842 151.108783 
L 153.433981 151.376406 
L 153.447789 151.44936 
L 153.515037 151.753236 
L 153.521856 151.789925 
L 153.595972 152.130078 
L 153.596044 152.130476 
L 153.66911 152.471147 
L 153.677911 152.506821 
L 153.742283 152.811806 
L 153.759742 152.883575 
L 153.815576 153.152452 
L 153.841452 153.260341 
L 153.888989 153.493086 
L 153.923042 153.637119 
L 153.962523 153.833707 
L 154.00451 154.013909 
L 154.036179 154.174315 
L 154.085858 154.39071 
L 154.109955 154.51491 
L 154.167084 154.767523 
L 154.183852 154.855493 
L 154.248189 155.144348 
L 154.25787 155.196062 
L 154.329173 155.521185 
L 154.332009 155.536619 
L 154.405546 155.87724 
L 154.410691 155.89797 
L 154.478667 156.217904 
L 154.561789 156.557513 
L 154.655637 156.895989 
L 154.760211 157.233332 
L 154.87551 157.569543 
L 155.001534 157.904621 
L 155.138284 158.238567 
L 155.285759 158.571381 
L 155.44396 158.903062 
L 155.612887 159.23361 
L 155.792539 159.563026 
L 155.982916 159.89131 
L 156.184019 160.21846 
L 156.310062 160.41245 
" style="fill:none;stroke:#dcdcdc;stroke-linecap:square;stroke-width:1.5;"/>
   </g>
   <g id="line2d_53">
    <g clip-path="url(#p4617c2ef38)">
     <use style="fill:#00bfbf;stroke:#00bfbf;" x="158.609305" xlink:href="#m62a916292b" y="137.091845"/>
    </g>
   </g>
   <g id="line2d_54">
    <path clip-path="url(#p4617c2ef38)" d="M 267.664326 224.616262 
L 268.004854 224.399673 
L 268.132732 224.319673 
L 268.535433 224.063523 
L 268.663324 223.983532 
L 269.066012 223.727372 
L 269.193915 223.647391 
L 269.596591 223.391221 
L 269.724508 223.31125 
L 270.12717 223.05507 
L 270.2551 222.975109 
L 270.657748 222.718918 
L 270.785694 222.638967 
L 271.188327 222.382767 
L 271.316288 222.302826 
L 271.718906 222.046614 
L 271.846882 221.966685 
L 272.375159 221.630481 
L 272.893831 221.294012 
L 273.402897 220.95728 
L 273.902359 220.620285 
L 274.392216 220.283025 
L 274.872467 219.945502 
L 275.343114 219.607715 
L 275.804155 219.269665 
L 276.255592 218.931351 
L 276.697423 218.592773 
L 277.12965 218.253931 
L 277.552271 217.914826 
L 277.965288 217.575457 
L 278.368699 217.235824 
L 278.762505 216.895928 
L 279.146706 216.555768 
L 279.521303 216.215344 
L 279.886294 215.874657 
L 280.24168 215.533706 
L 280.587461 215.192491 
L 280.923637 214.851013 
L 281.250208 214.509271 
L 281.567175 214.167265 
L 281.874536 213.824995 
L 282.172292 213.482462 
L 290.077881 204.077629 
L 290.370086 203.741762 
L 290.671716 203.406435 
L 290.982772 203.071647 
L 291.303255 202.737398 
L 291.633163 202.403688 
L 291.972497 202.070517 
L 292.321257 201.737885 
L 292.679443 201.405792 
L 293.047055 201.074239 
L 293.424093 200.743224 
L 293.810557 200.412749 
L 294.206447 200.082812 
L 294.611763 199.753415 
L 295.026505 199.424557 
L 295.450673 199.096238 
L 295.884266 198.768459 
L 296.327286 198.441218 
L 296.779732 198.114516 
L 297.241603 197.788354 
L 297.712901 197.46273 
L 298.193624 197.137646 
L 298.683774 196.813101 
L 299.183349 196.489095 
L 299.69235 196.165628 
L 300.210778 195.8427 
L 300.738631 195.520311 
L 301.27591 195.198462 
L 301.822615 194.877151 
L 301.983175 194.784542 
L 302.37208 194.555999 
L 302.532342 194.46354 
L 302.921545 194.234846 
L 303.08151 194.142538 
L 303.471009 193.913693 
L 303.630677 193.821537 
L 304.020472 193.592541 
L 304.179845 193.500535 
L 304.569935 193.271388 
L 304.729012 193.179535 
L 305.119397 192.950235 
L 305.27818 192.858535 
L 305.668859 192.629082 
L 305.827347 192.537535 
L 306.21832 192.30793 
L 306.376514 192.216535 
L 306.767781 191.986777 
L 306.925682 191.895536 
L 307.317241 191.665624 
L 307.474849 191.574537 
L 307.866701 191.344471 
L 308.024016 191.253538 
L 308.408528 191.027799 
" style="fill:none;stroke:#dcdcdc;stroke-linecap:square;stroke-width:1.5;"/>
   </g>
   <g id="line2d_55">
    <g clip-path="url(#p4617c2ef38)">
     <use style="fill:#00bfbf;stroke:#00bfbf;" x="267.664326" xlink:href="#m62a916292b" y="224.616262"/>
    </g>
   </g>
   <g id="line2d_56">
    <g clip-path="url(#p4617c2ef38)">
     <use style="fill:#00bfbf;stroke:#00bfbf;" x="253.040864" xlink:href="#m62a916292b" y="115.464255"/>
    </g>
   </g>
   <g id="line2d_57">
    <path clip-path="url(#p4617c2ef38)" d="M 345.09179 120.594136 
L 365.576281 107.308134 
L 367.317829 105.958607 
L 368.754844 104.60506 
L 369.887325 103.247494 
L 370.715274 101.885908 
L 371.23869 100.520303 
L 371.45746 99.15216 
L 371.592173 97.396225 
L 372.703664 83.040093 
L 372.660353 82.010136 
L 372.422145 80.977607 
L 371.989041 79.942506 
L 371.361039 78.904832 
L 370.220529 77.517265 
L 368.733536 76.125126 
L 366.016464 74.030494 
L 350.11594 61.98132 
L 346.389199 59.156364 
L 346.389199 59.156364 
" style="fill:none;stroke:#dcdcdc;stroke-linecap:square;stroke-width:1.5;"/>
   </g>
   <g id="line2d_58">
    <g clip-path="url(#p4617c2ef38)">
     <use style="fill:#00bfbf;stroke:#00bfbf;" x="345.09179" xlink:href="#m62a916292b" y="120.594136"/>
    </g>
   </g>
   <g id="line2d_59">
    <path clip-path="url(#p4617c2ef38)" d="M 266.771529 61.009688 
L 269.578613 59.036027 
L 271.656281 57.339527 
L 273.43714 55.63488 
L 273.757694 55.292973 
L 282.515468 45.718912 
L 284.434627 44.065782 
L 286.644567 42.429284 
L 289.676441 40.487216 
L 294.542362 37.535853 
L 320.021582 38.323053 
L 324.011638 38.788387 
L 325.505499 39.016482 
L 325.505499 39.016482 
" style="fill:none;stroke:#dcdcdc;stroke-linecap:square;stroke-width:1.5;"/>
   </g>
   <g id="line2d_60">
    <g clip-path="url(#p4617c2ef38)">
     <use style="fill:#00bfbf;stroke:#00bfbf;" x="266.771529" xlink:href="#m62a916292b" y="61.009688"/>
    </g>
   </g>
   <g id="line2d_61">
    <path clip-path="url(#p4617c2ef38)" d="M 251.515521 168.230196 
L 251.219547 168.389366 
L 250.674189 168.676378 
L 225.864938 181.446929 
L 225.341533 181.72248 
L 224.817717 182.00437 
L 224.29349 182.2926 
L 223.768853 182.587169 
L 223.243806 182.888077 
L 222.718348 183.195325 
L 222.192479 183.508912 
L 221.6662 183.828838 
L 221.13951 184.155104 
L 220.622683 184.481227 
L 220.612418 184.487586 
L 220.089786 184.817304 
L 220.085326 184.820068 
L 219.558235 185.152534 
L 219.556912 185.153383 
L 219.031147 185.484949 
L 219.024111 185.489463 
L 218.504059 185.817367 
L 218.491307 185.825544 
L 217.976971 186.149786 
L 217.958501 186.161624 
L 217.449883 186.482206 
L 217.425693 186.497704 
L 216.922795 186.814629 
L 216.892883 186.833785 
L 216.395706 187.147053 
L 216.36007 187.169865 
L 215.868618 187.479478 
L 215.827255 187.505945 
L 215.341529 187.811904 
L 215.294439 187.842025 
L 214.81444 188.144332 
L 214.761621 188.178105 
L 214.374026 188.422181 
" style="fill:none;stroke:#dcdcdc;stroke-linecap:square;stroke-width:1.5;"/>
   </g>
   <g id="line2d_62">
    <path clip-path="url(#p4617c2ef38)" d="M 251.515521 168.230196 
L 251.733833 168.379588 
L 252.21117 168.69948 
L 252.68921 169.0131 
L 253.167953 169.320448 
L 253.6474 169.621523 
L 254.127549 169.916325 
L 254.608401 170.204856 
L 255.089956 170.487113 
L 255.572214 170.763099 
L 256.055176 171.032812 
L 256.53884 171.296253 
L 257.023207 171.553421 
L 257.508277 171.804317 
L 257.99405 172.04894 
L 258.480526 172.287292 
L 258.967706 172.51937 
L 259.455588 172.745177 
L 259.944173 172.964711 
L 260.433461 173.177972 
L 260.923452 173.384961 
L 261.414147 173.585678 
L 261.905544 173.780122 
L 262.397644 173.968294 
L 262.890447 174.150194 
L 263.383953 174.325821 
L 263.878162 174.495176 
L 264.373075 174.658258 
L 264.86869 174.815068 
L 265.365008 174.965605 
L 265.862029 175.10987 
L 266.359753 175.247863 
L 266.858181 175.379584 
L 267.357311 175.505032 
L 267.857144 175.624207 
L 268.35768 175.73711 
L 268.858919 175.843741 
L 269.360862 175.944099 
L 269.863507 176.038185 
L 270.366855 176.125999 
L 270.870906 176.20754 
L 271.37566 176.282809 
L 271.881118 176.351805 
L 272.387278 176.414529 
L 272.894141 176.470981 
L 273.401707 176.52116 
L 273.909976 176.565067 
L 274.418948 176.602701 
L 274.928624 176.634063 
L 275.439002 176.659153 
L 275.74696 176.670491 
L 275.949807 176.68043 
L 276.251162 176.691478 
L 276.755131 176.716087 
L 277.258703 176.746815 
L 277.761878 176.783661 
L 278.264658 176.826625 
L 278.767041 176.875708 
L 279.269029 176.930909 
L 279.77062 176.992228 
L 280.271814 177.059666 
L 280.772613 177.133222 
L 281.273015 177.212896 
L 281.773022 177.298689 
L 282.272632 177.3906 
L 282.771845 177.488629 
L 283.270663 177.592777 
L 283.769084 177.703043 
L 284.26711 177.819427 
L 284.764739 177.94193 
L 285.261971 178.070551 
L 285.758808 178.20529 
L 286.255248 178.346148 
L 286.751292 178.493124 
L 287.24694 178.646218 
L 287.742192 178.805431 
L 288.237048 178.970762 
L 288.731507 179.142211 
L 289.22557 179.319779 
L 289.719237 179.503465 
L 290.212508 179.693269 
L 290.705383 179.889192 
L 291.197861 180.091233 
L 291.689943 180.299392 
L 292.181629 180.51367 
L 292.672919 180.734066 
L 293.163813 180.96058 
L 293.65431 181.193213 
L 294.144411 181.431964 
L 294.634116 181.676834 
L 295.123425 181.927821 
L 295.612337 182.184927 
L 296.100854 182.448152 
L 296.588974 182.717494 
L 297.076698 182.992956 
L 297.564026 183.274535 
L 298.050957 183.562233 
L 298.537492 183.856049 
L 299.023632 184.155983 
L 299.509375 184.462036 
L 299.994721 184.774207 
L 300.479672 185.092496 
L 300.964226 185.416904 
L 301.448384 185.74743 
L 301.932146 186.084075 
L 302.415512 186.426837 
L 302.898482 186.775718 
L 303.381055 187.130718 
L 303.863232 187.491836 
L 304.345013 187.859072 
L 304.826398 188.232426 
L 304.987006 188.359137 
L 305.307652 188.607793 
L 305.474811 188.739616 
L 305.788906 188.98316 
L 305.962619 189.120094 
L 306.270161 189.358529 
L 306.450427 189.500573 
L 306.751415 189.733899 
L 306.938237 189.881052 
L 307.232669 190.109269 
L 307.426049 190.261531 
L 307.713923 190.484641 
L 307.913862 190.64201 
L 308.195177 190.860014 
L 308.401676 191.022489 
L 308.408528 191.027799 
" style="fill:none;stroke:#dcdcdc;stroke-linecap:square;stroke-width:1.5;"/>
   </g>
   <g id="line2d_63">
    <g clip-path="url(#p4617c2ef38)">
     <use style="fill:#00bfbf;stroke:#00bfbf;" x="251.515521" xlink:href="#m62a916292b" y="168.230196"/>
    </g>
   </g>
   <g id="line2d_64">
    <path clip-path="url(#p4617c2ef38)" d="M 346.389199 59.156364 
L 346.399835 59.01706 
L 346.408377 58.886054 
L 346.424605 58.674259 
L 346.433717 58.535057 
L 346.449372 58.331457 
L 346.45906 58.18406 
L 346.474137 57.988656 
L 346.496761 57.645826 
L 346.515562 57.302946 
L 346.530538 56.960015 
L 346.541691 56.617034 
L 346.54902 56.274002 
L 346.552525 55.93092 
L 346.552207 55.587788 
L 346.548064 55.244605 
L 346.540098 54.901371 
L 346.528308 54.558087 
L 346.512694 54.214753 
L 346.493256 53.871368 
L 346.469995 53.527933 
L 346.442909 53.184447 
L 346.412 52.84091 
L 346.377267 52.497324 
L 346.338711 52.153686 
L 346.29633 51.809999 
L 346.250126 51.466261 
L 346.200097 51.122472 
L 346.146246 50.778633 
L 346.08857 50.434743 
L 346.02707 50.090803 
L 345.961747 49.746813 
L 345.8926 49.402771 
L 345.819629 49.05868 
L 345.742834 48.714538 
L 345.662215 48.370346 
L 345.577773 48.026103 
L 345.489506 47.681809 
L 345.397416 47.337466 
L 345.301502 46.993071 
L 345.201765 46.648627 
L 345.098203 46.304131 
L 344.990818 45.959586 
L 344.879609 45.614989 
L 344.764576 45.270343 
L 344.645719 44.925646 
L 344.523039 44.580898 
L 344.498176 44.513134 
L 344.313947 44.43603 
L 343.82169 44.233318 
L 343.329287 44.033855 
L 342.836738 43.83764 
L 342.344043 43.644674 
L 341.851202 43.454955 
L 341.358215 43.268485 
L 340.865082 43.085263 
L 340.371802 42.905289 
L 339.878377 42.728564 
L 339.384805 42.555086 
L 338.891088 42.384857 
L 338.397224 42.217876 
L 337.903214 42.054143 
L 337.409059 41.893658 
L 336.914757 41.736421 
L 336.420309 41.582433 
L 335.925715 41.431693 
L 335.430975 41.284201 
L 334.936089 41.139957 
L 334.441056 40.998962 
L 333.945878 40.861214 
L 333.450554 40.726715 
L 332.955083 40.595464 
L 332.459467 40.467461 
L 331.963704 40.342707 
L 331.467796 40.2212 
L 330.971741 40.102942 
L 330.47554 39.987932 
L 329.979193 39.87617 
L 329.4827 39.767656 
L 328.986061 39.662391 
L 328.489276 39.560374 
L 327.992345 39.461605 
L 327.495268 39.366084 
L 326.998045 39.273811 
L 326.500676 39.184787 
L 326.00316 39.09901 
L 325.505499 39.016482 
" style="fill:none;stroke:#dcdcdc;stroke-linecap:square;stroke-width:1.5;"/>
   </g>
   <g id="line2d_65">
    <g clip-path="url(#p4617c2ef38)">
     <use style="fill:#00bfbf;stroke:#00bfbf;" x="346.389199" xlink:href="#m62a916292b" y="59.156364"/>
    </g>
   </g>
   <g id="line2d_66">
    <path clip-path="url(#p4617c2ef38)" d="M 213.659629 252.473418 
L 213.643919 252.473193 
L 213.605373 252.472908 
L 213.133338 252.466221 
L 213.106293 252.466026 
L 212.622756 252.459251 
L 212.607212 252.459141 
L 212.112175 252.452283 
L 212.108131 252.452255 
L 211.60905 252.445418 
L 211.601596 252.445266 
L 211.10997 252.438608 
L 211.091019 252.438223 
L 210.610889 252.431796 
L 210.580442 252.431183 
L 210.111808 252.424982 
L 210.069864 252.424144 
L 209.612727 252.418167 
L 209.559286 252.417107 
L 209.113647 252.411349 
L 209.048709 252.410071 
L 208.614566 252.40453 
L 208.538131 252.403038 
L 208.115485 252.397709 
L 208.027553 252.396006 
L 207.616404 252.390886 
L 207.516975 252.388976 
L 207.117324 252.384061 
L 207.006397 252.381948 
L 206.618243 252.377235 
L 206.495819 252.374922 
L 206.119162 252.370406 
L 205.98524 252.367898 
L 205.620081 252.363576 
L 205.474662 252.360875 
L 205.121001 252.356744 
L 204.964084 252.353854 
L 204.62192 252.34991 
L 204.453505 252.346835 
L 204.122839 252.343075 
L 203.942926 252.339818 
L 203.623758 252.336238 
L 203.432347 252.332802 
L 203.124678 252.329398 
L 202.921768 252.325789 
L 202.625597 252.322558 
L 202.411189 252.318777 
L 202.126516 252.315715 
L 201.90061 252.311767 
L 201.627435 252.30887 
L 201.390031 252.304758 
L 201.128355 252.302024 
L 200.879452 252.297752 
L 200.629274 252.295176 
L 200.130193 252.286687 
L 199.631112 252.274847 
L 199.132032 252.259657 
L 198.632951 252.241115 
L 198.13387 252.219223 
L 197.634789 252.193979 
L 197.135709 252.165385 
L 196.636628 252.13344 
L 196.137547 252.098144 
L 195.638466 252.059497 
L 195.139386 252.017499 
L 194.640305 251.97215 
L 194.141224 251.923451 
L 193.642143 251.8714 
L 193.143063 251.815999 
L 192.643982 251.757246 
L 192.144901 251.695143 
L 191.64582 251.629689 
L 191.14674 251.560884 
L 190.647659 251.488728 
L 190.148578 251.413222 
L 189.649498 251.334364 
L 189.150417 251.252156 
L 188.651336 251.166596 
L 188.152255 251.077686 
L 187.653175 250.985425 
L 187.154094 250.889813 
L 186.655013 250.79085 
L 186.155932 250.688536 
L 185.656852 250.582871 
L 185.157771 250.473855 
L 184.65869 250.361489 
L 184.159609 250.245771 
L 183.660529 250.126703 
L 183.161448 250.004284 
L 182.662367 249.878514 
L 182.163286 249.749393 
L 181.664206 249.616921 
L 181.165125 249.481098 
L 180.666044 249.341925 
L 180.166963 249.1994 
L 179.667883 249.053525 
L 179.168802 248.904298 
L 178.669721 248.751721 
L 178.17064 248.595793 
L 177.67156 248.436514 
L 177.172479 248.273884 
L 176.673398 248.107903 
L 176.174317 247.938572 
L 175.675237 247.765889 
L 175.176156 247.589856 
L 174.677075 247.410471 
L 174.177994 247.227736 
L 173.678914 247.04165 
L 173.179833 246.852213 
L 172.680752 246.659425 
L 172.181671 246.463286 
L 171.682591 246.263797 
L 171.18351 246.060956 
L 170.684429 245.854765 
" style="fill:none;stroke:#dcdcdc;stroke-linecap:square;stroke-width:1.5;"/>
   </g>
   <g id="line2d_67">
    <g clip-path="url(#p4617c2ef38)">
     <use style="fill:#00bfbf;stroke:#00bfbf;" x="213.659629" xlink:href="#m62a916292b" y="252.473418"/>
    </g>
   </g>
   <g id="line2d_68">
    <g clip-path="url(#p4617c2ef38)">
     <use style="fill:#00bfbf;stroke:#00bfbf;" x="186.537" xlink:href="#m62a916292b" y="118.275517"/>
    </g>
   </g>
   <g id="line2d_69">
    <path clip-path="url(#p4617c2ef38)" d="M 156.310062 160.41245 
L 158.315573 161.100674 
L 158.854488 161.274372 
L 159.39638 161.437853 
L 159.94125 161.591116 
L 160.489098 161.734161 
L 161.039923 161.866989 
L 161.593725 161.9896 
L 162.150504 162.101993 
L 162.710262 162.204168 
L 168.618974 163.169726 
L 168.89855 163.220221 
" style="fill:none;stroke:#dcdcdc;stroke-linecap:square;stroke-width:1.5;"/>
   </g>
   <g id="line2d_70">
    <g clip-path="url(#p4617c2ef38)">
     <use style="fill:#00bfbf;stroke:#00bfbf;" x="156.310062" xlink:href="#m62a916292b" y="160.41245"/>
    </g>
   </g>
   <g id="line2d_71">
    <path clip-path="url(#p4617c2ef38)" d="M 214.374026 188.422181 
L 214.294468 188.366873 
L 214.067522 188.211435 
L 213.810543 188.032739 
L 213.578327 187.873683 
L 213.326619 187.698606 
L 213.089132 187.535932 
L 212.842694 187.364473 
L 212.599937 187.19818 
L 212.358769 187.030341 
L 212.110743 186.860428 
L 211.874845 186.696209 
L 211.621549 186.522676 
L 211.39092 186.362077 
L 211.132356 186.184924 
L 210.906996 186.027946 
L 210.643163 185.847172 
L 210.423071 185.693814 
L 210.153971 185.50942 
L 209.939146 185.359684 
L 209.66478 185.171668 
L 209.455221 185.025554 
L 208.971142 184.693806 
L 208.486705 184.367585 
L 208.001911 184.046891 
L 207.516758 183.731724 
L 207.031247 183.422084 
L 206.545379 183.117972 
L 206.059152 182.819386 
L 205.572568 182.526328 
L 205.085625 182.238797 
L 204.598325 181.956792 
L 204.110667 181.680315 
L 203.622651 181.409365 
L 203.134277 181.143942 
L 202.645545 180.884046 
L 202.156455 180.629678 
L 201.667007 180.380836 
L 201.177202 180.137521 
L 200.687038 179.899734 
L 200.196517 179.667473 
L 199.705637 179.44074 
L 199.2144 179.219534 
L 198.722805 179.003855 
L 198.230852 178.793703 
L 197.738541 178.589077 
L 197.245872 178.38998 
L 196.752845 178.196409 
L 196.25946 178.008365 
L 195.765717 177.825848 
L 195.271617 177.648859 
L 194.777158 177.477396 
L 194.282342 177.311461 
L 193.787167 177.151053 
L 193.291635 176.996171 
L 192.795745 176.846817 
L 192.299497 176.70299 
L 191.802891 176.56469 
L 191.305927 176.431917 
L 190.808605 176.304671 
L 190.310925 176.182953 
L 189.812888 176.066761 
L 189.314492 175.956096 
L 188.815739 175.850959 
L 188.316627 175.751349 
L 187.817158 175.657265 
L 187.317331 175.568709 
L 186.817146 175.48568 
L 186.316602 175.408178 
L 185.815701 175.336203 
L 185.314443 175.269755 
L 184.812826 175.208834 
L 184.310851 175.153441 
L 183.808518 175.103574 
L 183.305828 175.059235 
L 182.802779 175.020422 
L 182.299373 174.987137 
L 181.795609 174.959379 
L 181.291486 174.937147 
L 180.787006 174.920443 
L 179.300454 174.887531 
L 178.788365 174.870537 
L 178.275932 174.847877 
L 177.763156 174.819552 
L 177.250035 174.785562 
L 176.73657 174.745908 
L 176.222762 174.700588 
L 176.016601 174.680144 
" style="fill:none;stroke:#dcdcdc;stroke-linecap:square;stroke-width:1.5;"/>
   </g>
   <g id="line2d_72">
    <path clip-path="url(#p4617c2ef38)" d="M 214.374026 188.422181 
L 214.374026 188.518172 
L 214.373633 188.55402 
L 214.373633 188.868868 
L 214.373241 188.904696 
L 214.373241 189.219565 
L 214.372849 189.255371 
L 214.372849 189.570262 
L 214.372456 189.606047 
L 214.372456 189.920959 
L 214.372064 189.956723 
L 214.372064 190.271656 
L 214.371671 190.307399 
L 214.371671 190.622353 
L 214.371279 190.658074 
L 214.371279 190.973049 
L 214.370886 191.00875 
L 214.370886 191.323746 
L 214.370494 191.359426 
L 214.370494 191.674443 
L 214.370101 191.710101 
L 214.370101 192.02514 
L 214.369709 192.060777 
L 214.369709 192.375837 
L 214.369317 192.411453 
L 214.369317 192.726534 
L 214.368924 192.762128 
L 214.368924 193.07723 
L 214.368532 193.112804 
L 214.368532 193.427927 
L 214.368139 193.46348 
L 214.368139 193.778624 
L 214.367747 193.814156 
L 214.367747 193.994064 
" style="fill:none;stroke:#dcdcdc;stroke-linecap:square;stroke-width:1.5;"/>
   </g>
   <g id="line2d_73">
    <g clip-path="url(#p4617c2ef38)">
     <use style="fill:#00bfbf;stroke:#00bfbf;" x="214.374026" xlink:href="#m62a916292b" y="188.422181"/>
    </g>
   </g>
   <g id="line2d_74">
    <path clip-path="url(#p4617c2ef38)" d="M 176.016601 174.680144 
L 175.735414 174.342867 
L 175.372297 173.888408 
L 175.026979 173.436393 
L 174.699462 172.986821 
L 174.389744 172.539692 
L 174.097827 172.095007 
L 173.823709 171.652765 
L 169.084069 163.52034 
L 168.89855 163.220221 
" style="fill:none;stroke:#dcdcdc;stroke-linecap:square;stroke-width:1.5;"/>
   </g>
   <g id="line2d_75">
    <g clip-path="url(#p4617c2ef38)">
     <use style="fill:#00bfbf;stroke:#00bfbf;" x="176.016601" xlink:href="#m62a916292b" y="174.680144"/>
    </g>
   </g>
   <g id="line2d_76">
    <path clip-path="url(#p4617c2ef38)" d="M 214.367747 193.994064 
L 214.268821 194.059514 
L 214.096203 194.171989 
L 213.712698 194.425728 
L 213.54143 194.537299 
L 213.156575 194.791943 
L 212.986656 194.902609 
L 212.600452 195.158158 
L 212.431882 195.267919 
L 212.044329 195.524373 
L 211.877107 195.633229 
L 211.488206 195.890588 
L 211.322333 195.998539 
L 210.932082 196.256804 
L 210.767557 196.363849 
L 210.375959 196.62302 
L 210.212781 196.729159 
L 209.819836 196.989236 
L 209.658005 197.094469 
L 209.263713 197.355453 
L 209.103228 197.459779 
L 208.707589 197.72167 
L 208.54845 197.825089 
L 208.151466 198.087888 
L 207.993672 198.190399 
L 207.595342 198.454106 
L 207.438893 198.555709 
L 207.039219 198.820325 
L 206.884113 198.921019 
L 206.483095 199.186544 
L 206.329332 199.286329 
L 205.926972 199.552763 
L 205.774551 199.651639 
L 205.223046 200.016863 
L 204.68353 200.38177 
L 204.156003 200.746361 
L 203.640466 201.110635 
L 203.136918 201.474592 
L 202.645359 201.838234 
L 202.165789 202.201558 
L 201.698209 202.564567 
L 201.242618 202.927258 
L 200.799016 203.289634 
L 185.859481 215.82168 
L 185.453487 216.152465 
L 185.03652 216.48267 
L 184.60858 216.812296 
L 184.169667 217.141343 
L 183.719782 217.469811 
L 183.258923 217.797699 
L 182.787092 218.125008 
L 182.704447 218.180937 
L 182.313355 218.452217 
L 182.230483 218.508323 
L 181.839618 218.779425 
L 181.756519 218.835709 
L 181.365882 219.106634 
L 181.282556 219.163094 
L 180.892146 219.433842 
L 180.808592 219.490478 
L 180.41841 219.76105 
L 180.334628 219.817863 
L 179.944676 220.088259 
L 179.860664 220.145247 
L 179.470941 220.415467 
L 179.3867 220.472631 
L 178.997207 220.742676 
L 178.912736 220.800014 
L 178.523473 221.069885 
L 178.438772 221.127397 
L 178.04974 221.397093 
L 177.964808 221.45478 
L 177.576007 221.724302 
L 177.490844 221.782163 
L 177.102275 222.05151 
L 177.01688 222.109546 
L 176.628542 222.378719 
L 176.542916 222.436928 
L 176.15481 222.705928 
L 176.068952 222.76431 
L 175.681079 223.033136 
L 175.594988 223.091692 
L 175.207347 223.360345 
L 175.121024 223.419074 
L 174.733616 223.687554 
L 174.647059 223.746455 
L 174.259885 224.014762 
L 174.173095 224.073837 
L 173.786155 224.341971 
L 173.699131 224.401218 
L 173.312424 224.66918 
L 173.225167 224.728599 
L 172.838694 224.996389 
L 172.751202 225.05598 
L 172.364964 225.323597 
L 172.277238 225.383361 
L 171.891234 225.650806 
L 171.803274 225.710742 
L 171.417504 225.978015 
L 171.32931 226.038122 
L 170.943775 226.305224 
L 170.855345 226.365503 
L 170.470046 226.632432 
L 170.381381 226.692883 
L 169.996317 226.959641 
L 169.907417 227.020264 
L 169.522588 227.28685 
L 169.433452 227.347644 
L 169.048859 227.614059 
L 168.959488 227.675024 
L 168.57513 227.941268 
L 168.485524 228.002404 
L 168.101402 228.268476 
L 168.011559 228.329784 
L 167.627673 228.595685 
L 167.537595 228.657163 
L 167.153945 228.922894 
L 167.06363 228.984543 
L 166.680217 229.250103 
L 166.616117 229.293864 
" style="fill:none;stroke:#dcdcdc;stroke-linecap:square;stroke-width:1.5;"/>
   </g>
   <g id="line2d_77">
    <g clip-path="url(#p4617c2ef38)">
     <use style="fill:#00bfbf;stroke:#00bfbf;" x="214.367747" xlink:href="#m62a916292b" y="193.994064"/>
    </g>
   </g>
   <g id="line2d_78">
    <g clip-path="url(#p4617c2ef38)">
     <use style="fill:#00bfbf;stroke:#00bfbf;" x="168.89855" xlink:href="#m62a916292b" y="163.220221"/>
    </g>
   </g>
   <g id="line2d_79">
    <path clip-path="url(#p4617c2ef38)" d="M 166.616117 229.293864 
L 166.610252 229.480435 
L 166.607777 229.598498 
L 166.60045 229.831359 
L 166.597957 229.950199 
L 166.590648 230.182283 
L 166.588137 230.301899 
L 166.580847 230.533207 
L 166.578316 230.6536 
L 166.571045 230.884131 
L 166.568496 231.005301 
L 166.561243 231.235055 
L 166.558676 231.357002 
L 166.551441 231.585979 
L 166.548856 231.708703 
L 166.537736 232.060335 
L 166.522911 232.411771 
L 166.504379 232.763012 
L 165.813676 243.666211 
L 166.192702 243.848251 
L 166.691783 244.084601 
L 167.190864 244.317599 
L 167.689945 244.547247 
L 168.189025 244.773544 
L 168.688106 244.99649 
L 169.187187 245.216085 
L 169.686268 245.432329 
L 170.185348 245.645222 
L 170.684429 245.854765 
" style="fill:none;stroke:#dcdcdc;stroke-linecap:square;stroke-width:1.5;"/>
   </g>
   <g id="line2d_80">
    <g clip-path="url(#p4617c2ef38)">
     <use style="fill:#00bfbf;stroke:#00bfbf;" x="166.616117" xlink:href="#m62a916292b" y="229.293864"/>
    </g>
   </g>
   <g id="line2d_81">
    <g clip-path="url(#p4617c2ef38)">
     <use style="fill:#00bfbf;stroke:#00bfbf;" x="308.408528" xlink:href="#m62a916292b" y="191.027799"/>
    </g>
   </g>
   <g id="line2d_82">
    <path clip-path="url(#p4617c2ef38)" d="M 326.920982 34.770845 
L 325.505499 39.016482 
" style="fill:none;stroke:#dcdcdc;stroke-linecap:square;stroke-width:1.5;"/>
   </g>
   <g id="line2d_83">
    <g clip-path="url(#p4617c2ef38)">
     <use style="fill:#00bfbf;stroke:#00bfbf;" x="326.920982" xlink:href="#m62a916292b" y="34.770845"/>
    </g>
   </g>
   <g id="line2d_84">
    <g clip-path="url(#p4617c2ef38)">
     <use style="fill:#00bfbf;stroke:#00bfbf;" x="325.505499" xlink:href="#m62a916292b" y="39.016482"/>
    </g>
   </g>
   <g id="line2d_85">
    <path clip-path="url(#p4617c2ef38)" d="M 161.8507 255.803158 
L 170.684429 245.854765 
" style="fill:none;stroke:#dcdcdc;stroke-linecap:square;stroke-width:1.5;"/>
   </g>
   <g id="line2d_86">
    <g clip-path="url(#p4617c2ef38)">
     <use style="fill:#00bfbf;stroke:#00bfbf;" x="161.8507" xlink:href="#m62a916292b" y="255.803158"/>
    </g>
   </g>
   <g id="line2d_87">
    <g clip-path="url(#p4617c2ef38)">
     <use style="fill:#00bfbf;stroke:#00bfbf;" x="170.684429" xlink:href="#m62a916292b" y="245.854765"/>
    </g>
   </g>
   <g id="line2d_88">
    <path clip-path="url(#p4617c2ef38)" d="M 326.920982 34.770845 
L 325.505499 39.016482 
" style="fill:none;stroke:#00bfbf;stroke-linecap:square;stroke-width:2;"/>
   </g>
   <g id="line2d_89">
    <path clip-path="url(#p4617c2ef38)" d="M 325.505499 39.016482 
L 316.022177 38.065604 
L 294.456765 37.587413 
L 283.248237 45.055664 
L 266.771529 61.009688 
" style="fill:none;stroke:#00bfbf;stroke-linecap:square;stroke-width:2;"/>
   </g>
   <g id="line2d_90">
    <path clip-path="url(#p4617c2ef38)" d="M 266.771529 61.009688 
L 260.0587 59.974028 
L 253.936643 59.725239 
L 237.390833 60.668831 
L 236.949941 60.907541 
L 230.73223 64.112023 
L 224.650476 66.150956 
L 209.897743 69.734086 
L 207.817143 76.527727 
L 207.810317 80.341073 
L 212.934322 100.624881 
L 219.578002 112.01844 
" style="fill:none;stroke:#00bfbf;stroke-linecap:square;stroke-width:2;"/>
   </g>
   <g id="line2d_91">
    <path clip-path="url(#p4617c2ef38)" d="M 219.578002 112.01844 
L 230.300876 112.945027 
L 244.95308 113.958951 
L 253.040864 115.464255 
" style="fill:none;stroke:#00bfbf;stroke-linecap:square;stroke-width:2;"/>
   </g>
   <g id="line2d_92">
    <path clip-path="url(#p4617c2ef38)" d="M 253.040864 115.464255 
L 254.737531 117.258181 
" style="fill:none;stroke:#00bfbf;stroke-linecap:square;stroke-width:2;"/>
   </g>
   <g id="line2d_93">
    <path clip-path="url(#p4617c2ef38)" d="M 254.737531 117.258181 
L 251.515521 168.230196 
" style="fill:none;stroke:#00bfbf;stroke-linecap:square;stroke-width:2;"/>
   </g>
   <g id="line2d_94">
    <path clip-path="url(#p4617c2ef38)" d="M 251.515521 168.230196 
L 214.374026 188.422181 
" style="fill:none;stroke:#00bfbf;stroke-linecap:square;stroke-width:2;"/>
   </g>
   <g id="line2d_95">
    <path clip-path="url(#p4617c2ef38)" d="M 214.374026 188.422181 
L 214.367747 193.994064 
" style="fill:none;stroke:#00bfbf;stroke-linecap:square;stroke-width:2;"/>
   </g>
   <g id="line2d_96">
    <path clip-path="url(#p4617c2ef38)" d="M 214.367747 193.994064 
L 166.616117 229.293864 
" style="fill:none;stroke:#00bfbf;stroke-linecap:square;stroke-width:2;"/>
   </g>
   <g id="line2d_97">
    <path clip-path="url(#p4617c2ef38)" d="M 166.616117 229.293864 
L 166.192702 243.848251 
L 170.684429 245.854765 
" style="fill:none;stroke:#00bfbf;stroke-linecap:square;stroke-width:2;"/>
   </g>
   <g id="line2d_98">
    <path clip-path="url(#p4617c2ef38)" d="M 170.684429 245.854765 
L 161.8507 255.803158 
" style="fill:none;stroke:#00bfbf;stroke-linecap:square;stroke-width:2;"/>
   </g>
   <g id="patch_22">
    <path d="M 33.2875 276.812 
L 33.2875 10.7 
" style="fill:none;stroke:#000000;stroke-linecap:square;stroke-linejoin:miter;stroke-width:0.8;"/>
   </g>
   <g id="patch_23">
    <path d="M 390.4075 276.812 
L 390.4075 10.7 
" style="fill:none;stroke:#000000;stroke-linecap:square;stroke-linejoin:miter;stroke-width:0.8;"/>
   </g>
   <g id="patch_24">
    <path d="M 33.2875 276.812 
L 390.4075 276.812 
" style="fill:none;stroke:#000000;stroke-linecap:square;stroke-linejoin:miter;stroke-width:0.8;"/>
   </g>
   <g id="patch_25">
    <path d="M 33.2875 10.7 
L 390.4075 10.7 
" style="fill:none;stroke:#000000;stroke-linecap:square;stroke-linejoin:miter;stroke-width:0.8;"/>
   </g>
   <g id="text_15">
    <g id="patch_26">
     <path d="M 326.920982 40.28772 
C 328.969511 40.28772 330.934412 39.473831 332.38294 38.025303 
C 333.831468 36.576775 334.645357 34.611873 334.645357 32.563345 
C 334.645357 30.514817 333.831468 28.549915 332.38294 27.101387 
C 330.934412 25.652859 328.969511 24.83897 326.920982 24.83897 
C 324.872454 24.83897 322.907553 25.652859 321.459024 27.101387 
C 320.010496 28.549915 319.196607 30.514817 319.196607 32.563345 
C 319.196607 34.611873 320.010496 36.576775 321.459024 38.025303 
C 322.907553 39.473831 324.872454 40.28772 326.920982 40.28772 
z
" style="fill:#0000ff;opacity:0.5;stroke:#0000ff;stroke-linejoin:miter;stroke-width:2;"/>
    </g>
    <!-- R2 -->
    <defs>
     <path d="M 44.390625 34.1875 
Q 47.5625 33.109375 50.5625 29.59375 
Q 53.5625 26.078125 56.59375 19.921875 
L 66.609375 0 
L 56 0 
L 46.6875 18.703125 
Q 43.0625 26.03125 39.671875 28.421875 
Q 36.28125 30.8125 30.421875 30.8125 
L 19.671875 30.8125 
L 19.671875 0 
L 9.8125 0 
L 9.8125 72.90625 
L 32.078125 72.90625 
Q 44.578125 72.90625 50.734375 67.671875 
Q 56.890625 62.453125 56.890625 51.90625 
Q 56.890625 45.015625 53.6875 40.46875 
Q 50.484375 35.9375 44.390625 34.1875 
z
M 19.671875 64.796875 
L 19.671875 38.921875 
L 32.078125 38.921875 
Q 39.203125 38.921875 42.84375 42.21875 
Q 46.484375 45.515625 46.484375 51.90625 
Q 46.484375 58.296875 42.84375 61.546875 
Q 39.203125 64.796875 32.078125 64.796875 
z
" id="DejaVuSans-52"/>
    </defs>
    <g transform="translate(321.596607 34.770845)scale(0.08 -0.08)">
     <use xlink:href="#DejaVuSans-52"/>
     <use x="69.482422" xlink:href="#DejaVuSans-32"/>
    </g>
   </g>
   <g id="text_16">
    <g id="patch_27">
     <path d="M 161.8507 259.866908 
C 163.513855 259.866908 165.109115 259.206129 166.285143 258.030101 
C 167.461172 256.854073 168.12195 255.258813 168.12195 253.595658 
C 168.12195 251.932503 167.461172 250.337243 166.285143 249.161214 
C 165.109115 247.985186 163.513855 247.324408 161.8507 247.324408 
C 160.187545 247.324408 158.592285 247.985186 157.416257 249.161214 
C 156.240228 250.337243 155.57945 251.932503 155.57945 253.595658 
C 155.57945 255.258813 156.240228 256.854073 157.416257 258.030101 
C 158.592285 259.206129 160.187545 259.866908 161.8507 259.866908 
z
" style="fill:#ff0000;opacity:0.5;stroke:#ff0000;stroke-linejoin:miter;stroke-width:2;"/>
    </g>
    <!-- E -->
    <defs>
     <path d="M 9.8125 72.90625 
L 55.90625 72.90625 
L 55.90625 64.59375 
L 19.671875 64.59375 
L 19.671875 43.015625 
L 54.390625 43.015625 
L 54.390625 34.71875 
L 19.671875 34.71875 
L 19.671875 8.296875 
L 56.78125 8.296875 
L 56.78125 0 
L 9.8125 0 
z
" id="DejaVuSans-45"/>
    </defs>
    <g transform="translate(159.3232 255.803158)scale(0.08 -0.08)">
     <use xlink:href="#DejaVuSans-45"/>
    </g>
   </g>
   <g id="text_17">
    <!-- maxCost: 291 -->
    <defs>
     <path d="M 52 44.1875 
Q 55.375 50.25 60.0625 53.125 
Q 64.75 56 71.09375 56 
Q 79.640625 56 84.28125 50.015625 
Q 88.921875 44.046875 88.921875 33.015625 
L 88.921875 0 
L 79.890625 0 
L 79.890625 32.71875 
Q 79.890625 40.578125 77.09375 44.375 
Q 74.3125 48.1875 68.609375 48.1875 
Q 61.625 48.1875 57.5625 43.546875 
Q 53.515625 38.921875 53.515625 30.90625 
L 53.515625 0 
L 44.484375 0 
L 44.484375 32.71875 
Q 44.484375 40.625 41.703125 44.40625 
Q 38.921875 48.1875 33.109375 48.1875 
Q 26.21875 48.1875 22.15625 43.53125 
Q 18.109375 38.875 18.109375 30.90625 
L 18.109375 0 
L 9.078125 0 
L 9.078125 54.6875 
L 18.109375 54.6875 
L 18.109375 46.1875 
Q 21.1875 51.21875 25.484375 53.609375 
Q 29.78125 56 35.6875 56 
Q 41.65625 56 45.828125 52.96875 
Q 50 49.953125 52 44.1875 
z
" id="DejaVuSans-6d"/>
     <path d="M 34.28125 27.484375 
Q 23.390625 27.484375 19.1875 25 
Q 14.984375 22.515625 14.984375 16.5 
Q 14.984375 11.71875 18.140625 8.90625 
Q 21.296875 6.109375 26.703125 6.109375 
Q 34.1875 6.109375 38.703125 11.40625 
Q 43.21875 16.703125 43.21875 25.484375 
L 43.21875 27.484375 
z
M 52.203125 31.203125 
L 52.203125 0 
L 43.21875 0 
L 43.21875 8.296875 
Q 40.140625 3.328125 35.546875 0.953125 
Q 30.953125 -1.421875 24.3125 -1.421875 
Q 15.921875 -1.421875 10.953125 3.296875 
Q 6 8.015625 6 15.921875 
Q 6 25.140625 12.171875 29.828125 
Q 18.359375 34.515625 30.609375 34.515625 
L 43.21875 34.515625 
L 43.21875 35.40625 
Q 43.21875 41.609375 39.140625 45 
Q 35.0625 48.390625 27.6875 48.390625 
Q 23 48.390625 18.546875 47.265625 
Q 14.109375 46.140625 10.015625 43.890625 
L 10.015625 52.203125 
Q 14.9375 54.109375 19.578125 55.046875 
Q 24.21875 56 28.609375 56 
Q 40.484375 56 46.34375 49.84375 
Q 52.203125 43.703125 52.203125 31.203125 
z
" id="DejaVuSans-61"/>
     <path d="M 54.890625 54.6875 
L 35.109375 28.078125 
L 55.90625 0 
L 45.3125 0 
L 29.390625 21.484375 
L 13.484375 0 
L 2.875 0 
L 24.125 28.609375 
L 4.6875 54.6875 
L 15.28125 54.6875 
L 29.78125 35.203125 
L 44.28125 54.6875 
z
" id="DejaVuSans-78"/>
     <path d="M 64.40625 67.28125 
L 64.40625 56.890625 
Q 59.421875 61.53125 53.78125 63.8125 
Q 48.140625 66.109375 41.796875 66.109375 
Q 29.296875 66.109375 22.65625 58.46875 
Q 16.015625 50.828125 16.015625 36.375 
Q 16.015625 21.96875 22.65625 14.328125 
Q 29.296875 6.6875 41.796875 6.6875 
Q 48.140625 6.6875 53.78125 8.984375 
Q 59.421875 11.28125 64.40625 15.921875 
L 64.40625 5.609375 
Q 59.234375 2.09375 53.4375 0.328125 
Q 47.65625 -1.421875 41.21875 -1.421875 
Q 24.65625 -1.421875 15.125 8.703125 
Q 5.609375 18.84375 5.609375 36.375 
Q 5.609375 53.953125 15.125 64.078125 
Q 24.65625 74.21875 41.21875 74.21875 
Q 47.75 74.21875 53.53125 72.484375 
Q 59.328125 70.75 64.40625 67.28125 
z
" id="DejaVuSans-43"/>
     <path d="M 30.609375 48.390625 
Q 23.390625 48.390625 19.1875 42.75 
Q 14.984375 37.109375 14.984375 27.296875 
Q 14.984375 17.484375 19.15625 11.84375 
Q 23.34375 6.203125 30.609375 6.203125 
Q 37.796875 6.203125 41.984375 11.859375 
Q 46.1875 17.53125 46.1875 27.296875 
Q 46.1875 37.015625 41.984375 42.703125 
Q 37.796875 48.390625 30.609375 48.390625 
z
M 30.609375 56 
Q 42.328125 56 49.015625 48.375 
Q 55.71875 40.765625 55.71875 27.296875 
Q 55.71875 13.875 49.015625 6.21875 
Q 42.328125 -1.421875 30.609375 -1.421875 
Q 18.84375 -1.421875 12.171875 6.21875 
Q 5.515625 13.875 5.515625 27.296875 
Q 5.515625 40.765625 12.171875 48.375 
Q 18.84375 56 30.609375 56 
z
" id="DejaVuSans-6f"/>
     <path d="M 44.28125 53.078125 
L 44.28125 44.578125 
Q 40.484375 46.53125 36.375 47.5 
Q 32.28125 48.484375 27.875 48.484375 
Q 21.1875 48.484375 17.84375 46.4375 
Q 14.5 44.390625 14.5 40.28125 
Q 14.5 37.15625 16.890625 35.375 
Q 19.28125 33.59375 26.515625 31.984375 
L 29.59375 31.296875 
Q 39.15625 29.25 43.1875 25.515625 
Q 47.21875 21.78125 47.21875 15.09375 
Q 47.21875 7.46875 41.1875 3.015625 
Q 35.15625 -1.421875 24.609375 -1.421875 
Q 20.21875 -1.421875 15.453125 -0.5625 
Q 10.6875 0.296875 5.421875 2 
L 5.421875 11.28125 
Q 10.40625 8.6875 15.234375 7.390625 
Q 20.0625 6.109375 24.8125 6.109375 
Q 31.15625 6.109375 34.5625 8.28125 
Q 37.984375 10.453125 37.984375 14.40625 
Q 37.984375 18.0625 35.515625 20.015625 
Q 33.0625 21.96875 24.703125 23.78125 
L 21.578125 24.515625 
Q 13.234375 26.265625 9.515625 29.90625 
Q 5.8125 33.546875 5.8125 39.890625 
Q 5.8125 47.609375 11.28125 51.796875 
Q 16.75 56 26.8125 56 
Q 31.78125 56 36.171875 55.265625 
Q 40.578125 54.546875 44.28125 53.078125 
z
" id="DejaVuSans-73"/>
     <path d="M 18.3125 70.21875 
L 18.3125 54.6875 
L 36.8125 54.6875 
L 36.8125 47.703125 
L 18.3125 47.703125 
L 18.3125 18.015625 
Q 18.3125 11.328125 20.140625 9.421875 
Q 21.96875 7.515625 27.59375 7.515625 
L 36.8125 7.515625 
L 36.8125 0 
L 27.59375 0 
Q 17.1875 0 13.234375 3.875 
Q 9.28125 7.765625 9.28125 18.015625 
L 9.28125 47.703125 
L 2.6875 47.703125 
L 2.6875 54.6875 
L 9.28125 54.6875 
L 9.28125 70.21875 
z
" id="DejaVuSans-74"/>
     <path d="M 11.71875 12.40625 
L 22.015625 12.40625 
L 22.015625 0 
L 11.71875 0 
z
M 11.71875 51.703125 
L 22.015625 51.703125 
L 22.015625 39.3125 
L 11.71875 39.3125 
z
" id="DejaVuSans-3a"/>
     <path id="DejaVuSans-20"/>
     <path d="M 10.984375 1.515625 
L 10.984375 10.5 
Q 14.703125 8.734375 18.5 7.8125 
Q 22.3125 6.890625 25.984375 6.890625 
Q 35.75 6.890625 40.890625 13.453125 
Q 46.046875 20.015625 46.78125 33.40625 
Q 43.953125 29.203125 39.59375 26.953125 
Q 35.25 24.703125 29.984375 24.703125 
Q 19.046875 24.703125 12.671875 31.3125 
Q 6.296875 37.9375 6.296875 49.421875 
Q 6.296875 60.640625 12.9375 67.421875 
Q 19.578125 74.21875 30.609375 74.21875 
Q 43.265625 74.21875 49.921875 64.515625 
Q 56.59375 54.828125 56.59375 36.375 
Q 56.59375 19.140625 48.40625 8.859375 
Q 40.234375 -1.421875 26.421875 -1.421875 
Q 22.703125 -1.421875 18.890625 -0.6875 
Q 15.09375 0.046875 10.984375 1.515625 
z
M 30.609375 32.421875 
Q 37.25 32.421875 41.125 36.953125 
Q 45.015625 41.5 45.015625 49.421875 
Q 45.015625 57.28125 41.125 61.84375 
Q 37.25 66.40625 30.609375 66.40625 
Q 23.96875 66.40625 20.09375 61.84375 
Q 16.21875 57.28125 16.21875 49.421875 
Q 16.21875 41.5 20.09375 36.953125 
Q 23.96875 32.421875 30.609375 32.421875 
z
" id="DejaVuSans-39"/>
    </defs>
    <g style="fill:#ff0000;" transform="translate(294.903409 19.019501)scale(0.1 -0.1)">
     <use xlink:href="#DejaVuSans-6d"/>
     <use x="97.412109" xlink:href="#DejaVuSans-61"/>
     <use x="158.691406" xlink:href="#DejaVuSans-78"/>
     <use x="217.871094" xlink:href="#DejaVuSans-43"/>
     <use x="287.695312" xlink:href="#DejaVuSans-6f"/>
     <use x="348.876953" xlink:href="#DejaVuSans-73"/>
     <use x="400.976562" xlink:href="#DejaVuSans-74"/>
     <use x="440.185547" xlink:href="#DejaVuSans-3a"/>
     <use x="473.876953" xlink:href="#DejaVuSans-20"/>
     <use x="505.664062" xlink:href="#DejaVuSans-32"/>
     <use x="569.287109" xlink:href="#DejaVuSans-39"/>
     <use x="632.910156" xlink:href="#DejaVuSans-31"/>
    </g>
   </g>
   <g id="text_18">
    <g id="patch_28">
     <path d="M 292.527366 33.261706 
L 295.292631 31.753012 
L 299.047088 38.634505 
L 296.281823 40.1432 
L 297.220437 41.863573 
L 289.243474 39.518296 
L 291.588751 31.541333 
L 292.527366 33.261706 
z
" style="fill:#ffffff;opacity:0.8;stroke:#00bfbf;stroke-linejoin:miter;"/>
    </g>
    <!-- 1 -->
    <g transform="translate(295.1923 34.701018)rotate(-208.616333)scale(0.05 -0.05)">
     <use xlink:href="#DejaVuSans-31"/>
    </g>
   </g>
   <g id="text_19">
    <g id="patch_29">
     <path d="M 221.309816 62.940605 
L 222.998418 60.281381 
L 229.616023 64.483548 
L 227.92742 67.142772 
L 229.581822 68.193313 
L 221.466993 70.004892 
L 219.655414 61.890063 
L 221.309816 62.940605 
z
" style="fill:#ffffff;opacity:0.8;stroke:#00bfbf;stroke-linejoin:miter;"/>
    </g>
    <!-- 1 -->
    <g transform="translate(224.338429 62.909151)rotate(-237.584528)scale(0.05 -0.05)">
     <use xlink:href="#DejaVuSans-31"/>
    </g>
   </g>
   <g id="text_20">
    <g id="patch_30">
     <path d="M 249.208102 140.52846 
L 249.344636 137.381364 
L 257.176332 137.721135 
L 257.039798 140.86823 
L 258.997722 140.953173 
L 252.869122 146.572117 
L 247.250179 140.443517 
L 249.208102 140.52846 
z
" style="fill:#ffffff;opacity:0.8;stroke:#00bfbf;stroke-linejoin:miter;"/>
    </g>
    <!-- 1 -->
    <g transform="translate(251.817078 138.99004)rotate(-267.515837)scale(0.05 -0.05)">
     <use xlink:href="#DejaVuSans-31"/>
    </g>
   </g>
   <g id="text_21">
    <g id="patch_31">
     <path d="M 230.464487 174.3757 
L 232.933744 172.41978 
L 237.801144 178.564641 
L 235.331887 180.520561 
L 236.548737 182.056777 
L 228.289541 181.09868 
L 229.247638 172.839485 
L 230.464487 174.3757 
z
" style="fill:#ffffff;opacity:0.8;stroke:#00bfbf;stroke-linejoin:miter;"/>
    </g>
    <!-- 1 -->
    <g transform="translate(233.334958 175.342079)rotate(-218.383059)scale(0.05 -0.05)">
     <use xlink:href="#DejaVuSans-31"/>
    </g>
   </g>
   <g id="text_22">
    <g id="patch_32">
     <path d="M 187.579091 208.033384 
L 189.722378 205.724884 
L 195.467188 211.058557 
L 193.3239 213.367056 
L 194.760103 214.700474 
L 186.451241 215.008827 
L 186.142888 206.699966 
L 187.579091 208.033384 
z
" style="fill:#ffffff;opacity:0.8;stroke:#00bfbf;stroke-linejoin:miter;"/>
    </g>
    <!-- 1 -->
    <g transform="translate(190.563092 208.552252)rotate(-227.125348)scale(0.05 -0.05)">
     <use xlink:href="#DejaVuSans-31"/>
    </g>
   </g>
  </g>
 </g>
 <defs>
  <clipPath id="p4617c2ef38">
   <rect height="266.112" width="357.12" x="33.2875" y="10.7"/>
  </clipPath>
 </defs>
</svg>
