<?xml version="1.0" encoding="utf-8" standalone="no"?>
<!DOCTYPE svg PUBLIC "-//W3C//DTD SVG 1.1//EN"
  "http://www.w3.org/Graphics/SVG/1.1/DTD/svg11.dtd">
<!-- Created with matplotlib (http://matplotlib.org/) -->
<svg height="300pt" version="1.1" viewBox="0 0 406 300" width="406pt" xmlns="http://www.w3.org/2000/svg" xmlns:xlink="http://www.w3.org/1999/xlink">
 <defs>
  <style type="text/css">
*{stroke-linecap:butt;stroke-linejoin:round;}
  </style>
 </defs>
 <g id="figure_1">
  <g id="patch_1">
   <path d="M 0 300.690125 
L 406.017536 300.690125 
L 406.017536 0 
L 0 0 
z
" style="fill:#ffffff;"/>
  </g>
  <g id="axes_1">
   <g id="patch_2">
    <path d="M 33.2875 276.812 
L 390.4075 276.812 
L 390.4075 10.7 
L 33.2875 10.7 
z
" style="fill:#ffffff;"/>
   </g>
   <g id="patch_3">
    <path clip-path="url(#p8671b9c27d)" d="M 33.2875 276.812 
L 33.2875 10.7 
L 390.4075 10.7 
L 390.4075 276.812 
z
"/>
   </g>
   <g id="patch_4">
    <path clip-path="url(#p8671b9c27d)" d="M 365.465786 269.809053 
L 44.624643 267.708168 
L 45.758357 233.393726 
L 96.7755 234.794316 
L 95.641786 217.987242 
L 45.758357 220.088126 
L 55.961786 17.702947 
L 146.658929 19.103537 
L 134.188071 45.714737 
L 162.530929 43.613853 
L 154.594929 19.103537 
L 227.152643 22.605011 
L 211.280643 47.115326 
L 238.489786 47.115326 
L 266.832643 23.305305 
L 306.512643 23.305305 
L 253.228071 52.717684 
L 316.716071 42.913558 
L 325.785786 52.017389 
L 228.286357 59.020337 
L 199.9435 77.928295 
L 203.344643 88.432716 
L 325.785786 84.931242 
L 256.629214 90.5336 
L 253.228071 112.242737 
L 298.576643 137.453347 
L 273.634929 137.453347 
L 263.4315 154.960716 
L 228.286357 132.551284 
L 180.670357 135.352463 
L 178.402929 166.165432 
L 230.553786 167.566021 
L 243.024643 206.082232 
L 270.233786 205.381937 
L 284.972071 167.566021 
L 306.512643 171.767789 
L 267.966357 231.993137 
L 379.070357 224.990189 
L 379.070357 235.494611 
L 318.9835 244.598442 
z
" style="fill:#ffffff;"/>
   </g>
   <g id="patch_5">
    <path clip-path="url(#p8671b9c27d)" d="M 307.646357 34.510021 
L 308.780071 28.207368 
L 313.314929 28.207368 
L 313.314929 33.809726 
z
"/>
   </g>
   <g id="patch_6">
    <path clip-path="url(#p8671b9c27d)" d="M 66.165214 68.824463 
L 94.508071 69.524758 
L 95.641786 52.717684 
L 62.764071 53.417979 
z
"/>
   </g>
   <g id="patch_7">
    <path clip-path="url(#p8671b9c27d)" d="M 119.449786 85.631537 
L 146.658929 87.032126 
L 148.926357 69.524758 
L 121.717214 68.124168 
z
"/>
   </g>
   <g id="patch_8">
    <path clip-path="url(#p8671b9c27d)" d="M 173.868071 119.245684 
L 176.1355 101.738316 
L 148.926357 100.337726 
L 146.658929 117.845095 
z
"/>
   </g>
   <g id="patch_9">
    <path clip-path="url(#p8671b9c27d)" d="M 181.804071 127.649221 
L 187.472643 128.349516 
L 188.606357 124.848042 
L 182.937786 124.147747 
z
"/>
   </g>
   <g id="patch_10">
    <path clip-path="url(#p8671b9c27d)" d="M 117.182357 162.663958 
L 120.5835 130.4504 
L 70.700071 129.049811 
L 57.0955 141.655116 
L 67.298929 160.563074 
z
"/>
   </g>
   <g id="patch_11">
    <path clip-path="url(#p8671b9c27d)" d="M 139.856643 200.479874 
L 168.1995 201.880463 
L 173.868071 185.773684 
L 142.124071 182.972505 
z
"/>
   </g>
   <g id="patch_12">
    <path clip-path="url(#p8671b9c27d)" d="M 186.338929 234.094021 
L 213.548071 232.693432 
L 211.280643 212.384884 
L 185.205214 216.586653 
z
"/>
   </g>
   <g id="patch_13">
    <path clip-path="url(#p8671b9c27d)" d="M 135.321786 262.806105 
L 162.530929 260.004926 
L 160.2635 242.497558 
L 131.920643 243.898147 
z
"/>
   </g>
   <g id="matplotlib.axis_1">
    <g id="xtick_1">
     <g id="line2d_1">
      <defs>
       <path d="M 0 0 
L 0 3.5 
" id="m0d0dfa10f0" style="stroke:#000000;stroke-width:0.8;"/>
      </defs>
      <g>
       <use style="stroke:#000000;stroke-width:0.8;" x="49.1595" xlink:href="#m0d0dfa10f0" y="276.812"/>
      </g>
     </g>
     <g id="text_1">
      <!-- 100 -->
      <defs>
       <path d="M 12.40625 8.296875 
L 28.515625 8.296875 
L 28.515625 63.921875 
L 10.984375 60.40625 
L 10.984375 69.390625 
L 28.421875 72.90625 
L 38.28125 72.90625 
L 38.28125 8.296875 
L 54.390625 8.296875 
L 54.390625 0 
L 12.40625 0 
z
" id="DejaVuSans-31"/>
       <path d="M 31.78125 66.40625 
Q 24.171875 66.40625 20.328125 58.90625 
Q 16.5 51.421875 16.5 36.375 
Q 16.5 21.390625 20.328125 13.890625 
Q 24.171875 6.390625 31.78125 6.390625 
Q 39.453125 6.390625 43.28125 13.890625 
Q 47.125 21.390625 47.125 36.375 
Q 47.125 51.421875 43.28125 58.90625 
Q 39.453125 66.40625 31.78125 66.40625 
z
M 31.78125 74.21875 
Q 44.046875 74.21875 50.515625 64.515625 
Q 56.984375 54.828125 56.984375 36.375 
Q 56.984375 17.96875 50.515625 8.265625 
Q 44.046875 -1.421875 31.78125 -1.421875 
Q 19.53125 -1.421875 13.0625 8.265625 
Q 6.59375 17.96875 6.59375 36.375 
Q 6.59375 54.828125 13.0625 64.515625 
Q 19.53125 74.21875 31.78125 74.21875 
z
" id="DejaVuSans-30"/>
      </defs>
      <g transform="translate(39.61575 291.410437)scale(0.1 -0.1)">
       <use xlink:href="#DejaVuSans-31"/>
       <use x="63.623047" xlink:href="#DejaVuSans-30"/>
       <use x="127.246094" xlink:href="#DejaVuSans-30"/>
      </g>
     </g>
    </g>
    <g id="xtick_2">
     <g id="line2d_2">
      <g>
       <use style="stroke:#000000;stroke-width:0.8;" x="105.845214" xlink:href="#m0d0dfa10f0" y="276.812"/>
      </g>
     </g>
     <g id="text_2">
      <!-- 150 -->
      <defs>
       <path d="M 10.796875 72.90625 
L 49.515625 72.90625 
L 49.515625 64.59375 
L 19.828125 64.59375 
L 19.828125 46.734375 
Q 21.96875 47.46875 24.109375 47.828125 
Q 26.265625 48.1875 28.421875 48.1875 
Q 40.625 48.1875 47.75 41.5 
Q 54.890625 34.8125 54.890625 23.390625 
Q 54.890625 11.625 47.5625 5.09375 
Q 40.234375 -1.421875 26.90625 -1.421875 
Q 22.3125 -1.421875 17.546875 -0.640625 
Q 12.796875 0.140625 7.71875 1.703125 
L 7.71875 11.625 
Q 12.109375 9.234375 16.796875 8.0625 
Q 21.484375 6.890625 26.703125 6.890625 
Q 35.15625 6.890625 40.078125 11.328125 
Q 45.015625 15.765625 45.015625 23.390625 
Q 45.015625 31 40.078125 35.4375 
Q 35.15625 39.890625 26.703125 39.890625 
Q 22.75 39.890625 18.8125 39.015625 
Q 14.890625 38.140625 10.796875 36.28125 
z
" id="DejaVuSans-35"/>
      </defs>
      <g transform="translate(96.301464 291.410437)scale(0.1 -0.1)">
       <use xlink:href="#DejaVuSans-31"/>
       <use x="63.623047" xlink:href="#DejaVuSans-35"/>
       <use x="127.246094" xlink:href="#DejaVuSans-30"/>
      </g>
     </g>
    </g>
    <g id="xtick_3">
     <g id="line2d_3">
      <g>
       <use style="stroke:#000000;stroke-width:0.8;" x="162.530929" xlink:href="#m0d0dfa10f0" y="276.812"/>
      </g>
     </g>
     <g id="text_3">
      <!-- 200 -->
      <defs>
       <path d="M 19.1875 8.296875 
L 53.609375 8.296875 
L 53.609375 0 
L 7.328125 0 
L 7.328125 8.296875 
Q 12.9375 14.109375 22.625 23.890625 
Q 32.328125 33.6875 34.8125 36.53125 
Q 39.546875 41.84375 41.421875 45.53125 
Q 43.3125 49.21875 43.3125 52.78125 
Q 43.3125 58.59375 39.234375 62.25 
Q 35.15625 65.921875 28.609375 65.921875 
Q 23.96875 65.921875 18.8125 64.3125 
Q 13.671875 62.703125 7.8125 59.421875 
L 7.8125 69.390625 
Q 13.765625 71.78125 18.9375 73 
Q 24.125 74.21875 28.421875 74.21875 
Q 39.75 74.21875 46.484375 68.546875 
Q 53.21875 62.890625 53.21875 53.421875 
Q 53.21875 48.921875 51.53125 44.890625 
Q 49.859375 40.875 45.40625 35.40625 
Q 44.1875 33.984375 37.640625 27.21875 
Q 31.109375 20.453125 19.1875 8.296875 
z
" id="DejaVuSans-32"/>
      </defs>
      <g transform="translate(152.987179 291.410437)scale(0.1 -0.1)">
       <use xlink:href="#DejaVuSans-32"/>
       <use x="63.623047" xlink:href="#DejaVuSans-30"/>
       <use x="127.246094" xlink:href="#DejaVuSans-30"/>
      </g>
     </g>
    </g>
    <g id="xtick_4">
     <g id="line2d_4">
      <g>
       <use style="stroke:#000000;stroke-width:0.8;" x="219.216643" xlink:href="#m0d0dfa10f0" y="276.812"/>
      </g>
     </g>
     <g id="text_4">
      <!-- 250 -->
      <g transform="translate(209.672893 291.410437)scale(0.1 -0.1)">
       <use xlink:href="#DejaVuSans-32"/>
       <use x="63.623047" xlink:href="#DejaVuSans-35"/>
       <use x="127.246094" xlink:href="#DejaVuSans-30"/>
      </g>
     </g>
    </g>
    <g id="xtick_5">
     <g id="line2d_5">
      <g>
       <use style="stroke:#000000;stroke-width:0.8;" x="275.902357" xlink:href="#m0d0dfa10f0" y="276.812"/>
      </g>
     </g>
     <g id="text_5">
      <!-- 300 -->
      <defs>
       <path d="M 40.578125 39.3125 
Q 47.65625 37.796875 51.625 33 
Q 55.609375 28.21875 55.609375 21.1875 
Q 55.609375 10.40625 48.1875 4.484375 
Q 40.765625 -1.421875 27.09375 -1.421875 
Q 22.515625 -1.421875 17.65625 -0.515625 
Q 12.796875 0.390625 7.625 2.203125 
L 7.625 11.71875 
Q 11.71875 9.328125 16.59375 8.109375 
Q 21.484375 6.890625 26.8125 6.890625 
Q 36.078125 6.890625 40.9375 10.546875 
Q 45.796875 14.203125 45.796875 21.1875 
Q 45.796875 27.640625 41.28125 31.265625 
Q 36.765625 34.90625 28.71875 34.90625 
L 20.21875 34.90625 
L 20.21875 43.015625 
L 29.109375 43.015625 
Q 36.375 43.015625 40.234375 45.921875 
Q 44.09375 48.828125 44.09375 54.296875 
Q 44.09375 59.90625 40.109375 62.90625 
Q 36.140625 65.921875 28.71875 65.921875 
Q 24.65625 65.921875 20.015625 65.03125 
Q 15.375 64.15625 9.8125 62.3125 
L 9.8125 71.09375 
Q 15.4375 72.65625 20.34375 73.4375 
Q 25.25 74.21875 29.59375 74.21875 
Q 40.828125 74.21875 47.359375 69.109375 
Q 53.90625 64.015625 53.90625 55.328125 
Q 53.90625 49.265625 50.4375 45.09375 
Q 46.96875 40.921875 40.578125 39.3125 
z
" id="DejaVuSans-33"/>
      </defs>
      <g transform="translate(266.358607 291.410437)scale(0.1 -0.1)">
       <use xlink:href="#DejaVuSans-33"/>
       <use x="63.623047" xlink:href="#DejaVuSans-30"/>
       <use x="127.246094" xlink:href="#DejaVuSans-30"/>
      </g>
     </g>
    </g>
    <g id="xtick_6">
     <g id="line2d_6">
      <g>
       <use style="stroke:#000000;stroke-width:0.8;" x="332.588071" xlink:href="#m0d0dfa10f0" y="276.812"/>
      </g>
     </g>
     <g id="text_6">
      <!-- 350 -->
      <g transform="translate(323.044321 291.410437)scale(0.1 -0.1)">
       <use xlink:href="#DejaVuSans-33"/>
       <use x="63.623047" xlink:href="#DejaVuSans-35"/>
       <use x="127.246094" xlink:href="#DejaVuSans-30"/>
      </g>
     </g>
    </g>
    <g id="xtick_7">
     <g id="line2d_7">
      <g>
       <use style="stroke:#000000;stroke-width:0.8;" x="389.273786" xlink:href="#m0d0dfa10f0" y="276.812"/>
      </g>
     </g>
     <g id="text_7">
      <!-- 400 -->
      <defs>
       <path d="M 37.796875 64.3125 
L 12.890625 25.390625 
L 37.796875 25.390625 
z
M 35.203125 72.90625 
L 47.609375 72.90625 
L 47.609375 25.390625 
L 58.015625 25.390625 
L 58.015625 17.1875 
L 47.609375 17.1875 
L 47.609375 0 
L 37.796875 0 
L 37.796875 17.1875 
L 4.890625 17.1875 
L 4.890625 26.703125 
z
" id="DejaVuSans-34"/>
      </defs>
      <g transform="translate(379.730036 291.410437)scale(0.1 -0.1)">
       <use xlink:href="#DejaVuSans-34"/>
       <use x="63.623047" xlink:href="#DejaVuSans-30"/>
       <use x="127.246094" xlink:href="#DejaVuSans-30"/>
      </g>
     </g>
    </g>
   </g>
   <g id="matplotlib.axis_2">
    <g id="ytick_1">
     <g id="line2d_8">
      <defs>
       <path d="M 0 0 
L -3.5 0 
" id="m6408a89ac4" style="stroke:#000000;stroke-width:0.8;"/>
      </defs>
      <g>
       <use style="stroke:#000000;stroke-width:0.8;" x="33.2875" xlink:href="#m6408a89ac4" y="252.301684"/>
      </g>
     </g>
     <g id="text_8">
      <!-- 250 -->
      <g transform="translate(7.2 256.100903)scale(0.1 -0.1)">
       <use xlink:href="#DejaVuSans-32"/>
       <use x="63.623047" xlink:href="#DejaVuSans-35"/>
       <use x="127.246094" xlink:href="#DejaVuSans-30"/>
      </g>
     </g>
    </g>
    <g id="ytick_2">
     <g id="line2d_9">
      <g>
       <use style="stroke:#000000;stroke-width:0.8;" x="33.2875" xlink:href="#m6408a89ac4" y="217.286947"/>
      </g>
     </g>
     <g id="text_9">
      <!-- 300 -->
      <g transform="translate(7.2 221.086166)scale(0.1 -0.1)">
       <use xlink:href="#DejaVuSans-33"/>
       <use x="63.623047" xlink:href="#DejaVuSans-30"/>
       <use x="127.246094" xlink:href="#DejaVuSans-30"/>
      </g>
     </g>
    </g>
    <g id="ytick_3">
     <g id="line2d_10">
      <g>
       <use style="stroke:#000000;stroke-width:0.8;" x="33.2875" xlink:href="#m6408a89ac4" y="182.272211"/>
      </g>
     </g>
     <g id="text_10">
      <!-- 350 -->
      <g transform="translate(7.2 186.071429)scale(0.1 -0.1)">
       <use xlink:href="#DejaVuSans-33"/>
       <use x="63.623047" xlink:href="#DejaVuSans-35"/>
       <use x="127.246094" xlink:href="#DejaVuSans-30"/>
      </g>
     </g>
    </g>
    <g id="ytick_4">
     <g id="line2d_11">
      <g>
       <use style="stroke:#000000;stroke-width:0.8;" x="33.2875" xlink:href="#m6408a89ac4" y="147.257474"/>
      </g>
     </g>
     <g id="text_11">
      <!-- 400 -->
      <g transform="translate(7.2 151.056692)scale(0.1 -0.1)">
       <use xlink:href="#DejaVuSans-34"/>
       <use x="63.623047" xlink:href="#DejaVuSans-30"/>
       <use x="127.246094" xlink:href="#DejaVuSans-30"/>
      </g>
     </g>
    </g>
    <g id="ytick_5">
     <g id="line2d_12">
      <g>
       <use style="stroke:#000000;stroke-width:0.8;" x="33.2875" xlink:href="#m6408a89ac4" y="112.242737"/>
      </g>
     </g>
     <g id="text_12">
      <!-- 450 -->
      <g transform="translate(7.2 116.041956)scale(0.1 -0.1)">
       <use xlink:href="#DejaVuSans-34"/>
       <use x="63.623047" xlink:href="#DejaVuSans-35"/>
       <use x="127.246094" xlink:href="#DejaVuSans-30"/>
      </g>
     </g>
    </g>
    <g id="ytick_6">
     <g id="line2d_13">
      <g>
       <use style="stroke:#000000;stroke-width:0.8;" x="33.2875" xlink:href="#m6408a89ac4" y="77.228"/>
      </g>
     </g>
     <g id="text_13">
      <!-- 500 -->
      <g transform="translate(7.2 81.027219)scale(0.1 -0.1)">
       <use xlink:href="#DejaVuSans-35"/>
       <use x="63.623047" xlink:href="#DejaVuSans-30"/>
       <use x="127.246094" xlink:href="#DejaVuSans-30"/>
      </g>
     </g>
    </g>
    <g id="ytick_7">
     <g id="line2d_14">
      <g>
       <use style="stroke:#000000;stroke-width:0.8;" x="33.2875" xlink:href="#m6408a89ac4" y="42.213263"/>
      </g>
     </g>
     <g id="text_14">
      <!-- 550 -->
      <g transform="translate(7.2 46.012482)scale(0.1 -0.1)">
       <use xlink:href="#DejaVuSans-35"/>
       <use x="63.623047" xlink:href="#DejaVuSans-35"/>
       <use x="127.246094" xlink:href="#DejaVuSans-30"/>
      </g>
     </g>
    </g>
   </g>
   <g id="line2d_15">
    <path clip-path="url(#p8671b9c27d)" d="M 117.606892 54.722696 
L 116.923122 53.433775 
L 110.180053 39.510761 
L 108.672666 37.156331 
L 108.202831 36.496439 
L 104.068997 35.979494 
L 99.811653 35.647813 
L 95.546126 35.518299 
L 83.278084 35.550122 
L 60.763816 49.652888 
L 59.748873 50.613597 
L 59.026371 51.579932 
L 58.59631 52.551892 
L 58.458691 53.529478 
L 58.810017 57.783911 
L 59.148955 61.739546 
L 59.863499 69.893715 
L 60.151616 70.87949 
L 60.636578 71.869052 
L 61.5894 73.194358 
L 62.892169 74.526395 
L 64.544887 75.865165 
L 67.532983 77.88311 
L 86.315324 90.340384 
L 86.315324 90.340384 
" style="fill:none;stroke:#dcdcdc;stroke-linecap:square;stroke-width:1.5;"/>
   </g>
   <g id="line2d_16">
    <path clip-path="url(#p8671b9c27d)" d="M 117.606892 54.722696 
L 117.504166 54.795629 
L 117.057427 55.120857 
L 116.621629 55.446365 
L 116.196772 55.772156 
L 115.782854 56.098227 
L 115.379878 56.424581 
L 114.987842 56.751216 
L 114.606746 57.078133 
L 114.236591 57.405331 
L 113.877377 57.732811 
L 113.529103 58.060572 
L 113.19177 58.388615 
L 112.865377 58.716939 
L 112.549925 59.045546 
L 112.245413 59.374433 
L 111.951842 59.703602 
L 111.669211 60.033053 
L 111.397521 60.362786 
L 111.136772 60.6928 
L 110.886963 61.023095 
L 110.648094 61.353673 
L 110.420166 61.684531 
L 110.203179 62.015672 
L 109.997132 62.347094 
L 109.802026 62.678797 
L 109.61786 63.010782 
L 109.444635 63.343049 
L 109.28235 63.675597 
L 109.131006 64.008427 
L 108.990602 64.341538 
L 108.861139 64.674931 
L 108.742617 65.008606 
L 108.635035 65.342562 
L 108.538393 65.6768 
L 108.452692 66.011319 
L 108.377932 66.34612 
L 108.314112 66.681203 
L 108.261233 67.016567 
L 108.219294 67.352212 
L 108.194092 67.625328 
L 108.186241 67.688087 
L 108.160883 67.962522 
L 108.153188 68.023961 
L 108.127674 68.299716 
L 108.120135 68.359835 
L 108.094465 68.636909 
L 108.087083 68.69571 
L 108.061255 68.974103 
L 108.05403 69.031584 
L 108.028046 69.311297 
L 108.020978 69.367458 
L 107.994836 69.648491 
L 107.987926 69.703333 
L 107.961626 69.985685 
L 107.919147 70.32242 
L 107.865606 70.65861 
" style="fill:none;stroke:#dcdcdc;stroke-linecap:square;stroke-width:1.5;"/>
   </g>
   <g id="line2d_17">
    <path clip-path="url(#p8671b9c27d)" d="M 117.606892 54.722696 
L 123.626734 56.000914 
L 124.160102 56.109089 
L 124.694136 56.212329 
L 125.228835 56.310632 
L 125.764201 56.404 
L 126.300233 56.492432 
L 126.83693 56.575929 
L 127.374294 56.654489 
L 127.912323 56.728114 
L 128.451018 56.796804 
L 128.990379 56.860557 
L 129.530406 56.919375 
L 130.071099 56.973257 
L 130.612457 57.022203 
L 131.154482 57.066213 
L 131.697172 57.105288 
L 132.240528 57.139427 
L 132.78455 57.16863 
L 133.329238 57.192897 
L 133.874592 57.212229 
L 134.420612 57.226625 
L 134.967298 57.236085 
L 135.514649 57.24061 
L 136.062667 57.240198 
L 136.61135 57.234851 
L 136.696999 57.233248 
L 137.160145 57.228676 
L 137.238297 57.227205 
L 137.70894 57.2225 
L 137.779595 57.221163 
L 138.257735 57.216323 
L 138.320893 57.215122 
L 138.806531 57.210145 
L 138.862191 57.209081 
L 139.355326 57.203967 
L 139.403489 57.203041 
L 139.904121 57.197788 
L 139.944788 57.197002 
L 140.452917 57.191608 
L 140.486086 57.190964 
L 141.001713 57.185427 
L 141.027385 57.184926 
L 141.550509 57.179246 
L 141.568684 57.17889 
L 142.099305 57.173064 
L 142.109983 57.172853 
L 142.648101 57.166881 
L 142.651282 57.166818 
L 143.192574 57.160746 
L 143.196892 57.160734 
L 143.73386 57.154647 
L 143.745679 57.154614 
L 144.275147 57.14855 
L 144.294467 57.148493 
L 144.816435 57.142453 
L 144.843255 57.14237 
L 145.357722 57.136358 
L 145.392043 57.136247 
L 145.89901 57.130263 
L 145.940831 57.130122 
L 146.440298 57.12417 
L 146.489619 57.123997 
L 146.981586 57.118078 
L 147.038408 57.11787 
L 147.522874 57.111986 
L 147.587196 57.111743 
L 148.064162 57.105896 
L 148.135985 57.105614 
L 148.605451 57.099807 
L 148.684774 57.099485 
L 149.14674 57.093718 
L 149.233563 57.093354 
L 149.688029 57.087631 
L 149.782352 57.087223 
L 150.229318 57.081544 
L 150.331141 57.08109 
L 150.770607 57.075459 
L 151.312595 57.07297 
L 151.855447 57.074926 
L 152.399162 57.081326 
L 152.94374 57.092172 
L 153.489182 57.107462 
L 154.035488 57.127197 
L 154.582657 57.151377 
L 155.130689 57.180002 
L 155.679585 57.213071 
L 156.229345 57.250586 
L 156.779968 57.292545 
L 157.331454 57.338949 
L 157.883804 57.389798 
L 158.437018 57.445092 
L 158.991095 57.504831 
L 159.546035 57.569015 
L 160.101839 57.637643 
L 160.658507 57.710716 
L 161.216038 57.788234 
L 161.774432 57.870197 
L 162.33369 57.956605 
L 162.893812 58.047458 
L 163.454797 58.142755 
L 164.016645 58.242498 
L 164.579357 58.346685 
L 165.142932 58.455317 
L 179.459006 61.323327 
L 179.420834 61.462991 
L 179.309918 61.84979 
L 179.194505 62.234018 
L 179.074596 62.615673 
L 178.95019 62.994757 
L 178.821287 63.371269 
L 178.687888 63.745209 
L 178.549992 64.116578 
L 178.4076 64.485374 
L 178.260711 64.851599 
L 178.109326 65.215252 
L 175.606555 71.012603 
L 175.46907 71.344644 
L 175.337323 71.676968 
" style="fill:none;stroke:#dcdcdc;stroke-linecap:square;stroke-width:1.5;"/>
   </g>
   <g id="line2d_18">
    <defs>
     <path d="M 0 1.5 
C 0.397805 1.5 0.77937 1.341951 1.06066 1.06066 
C 1.341951 0.77937 1.5 0.397805 1.5 0 
C 1.5 -0.397805 1.341951 -0.77937 1.06066 -1.06066 
C 0.77937 -1.341951 0.397805 -1.5 0 -1.5 
C -0.397805 -1.5 -0.77937 -1.341951 -1.06066 -1.06066 
C -1.341951 -0.77937 -1.5 -0.397805 -1.5 0 
C -1.5 0.397805 -1.341951 0.77937 -1.06066 1.06066 
C -0.77937 1.341951 -0.397805 1.5 0 1.5 
z
" id="md42e9fe57f" style="stroke:#00bfbf;"/>
    </defs>
    <g clip-path="url(#p8671b9c27d)">
     <use style="fill:#00bfbf;stroke:#00bfbf;" x="117.606892" xlink:href="#md42e9fe57f" y="54.722696"/>
    </g>
   </g>
   <g id="line2d_19">
    <path clip-path="url(#p8671b9c27d)" d="M 92.371055 104.452684 
L 92.175217 104.169935 
L 91.950029 103.838859 
L 91.729018 103.507863 
L 91.512185 103.176947 
L 91.299529 102.846112 
L 91.091052 102.515358 
L 90.886752 102.184684 
L 90.686629 101.85409 
L 90.490684 101.523576 
L 90.298917 101.193143 
L 90.111328 100.86279 
L 89.927916 100.532518 
L 89.748682 100.202326 
L 89.573625 99.872214 
L 89.402746 99.542183 
L 89.236045 99.212232 
L 89.073521 98.882361 
L 88.915175 98.552571 
L 88.761007 98.222861 
L 88.611016 97.893231 
L 88.465203 97.563682 
L 88.323568 97.234213 
L 88.18611 96.904825 
L 88.05283 96.575517 
L 87.923728 96.246289 
L 87.798803 95.917141 
L 87.678056 95.588074 
L 87.561486 95.259088 
L 87.449095 94.930182 
L 87.34088 94.601356 
L 87.236844 94.27261 
L 87.136985 93.943945 
L 87.041304 93.61536 
L 86.9498 93.286856 
L 86.862474 92.958431 
L 86.779326 92.630088 
L 86.700355 92.301824 
L 86.625563 91.973641 
L 86.554947 91.645539 
L 86.48851 91.317516 
L 86.42625 90.989574 
L 86.368167 90.661713 
L 86.315324 90.340384 
" style="fill:none;stroke:#dcdcdc;stroke-linecap:square;stroke-width:1.5;"/>
   </g>
   <g id="line2d_20">
    <path clip-path="url(#p8671b9c27d)" d="M 92.371055 104.452684 
L 92.660597 104.525296 
L 93.188527 104.65519 
L 93.716639 104.782628 
L 94.244931 104.907609 
L 94.773404 105.030135 
L 95.302058 105.150205 
L 95.830892 105.267818 
L 96.359907 105.382976 
L 96.889103 105.495677 
L 97.41848 105.605922 
L 97.948037 105.713711 
L 98.477775 105.819044 
L 99.007694 105.921921 
L 99.537793 106.022342 
L 100.068073 106.120307 
L 100.598534 106.215815 
L 101.129176 106.308868 
L 101.659999 106.399464 
L 102.191002 106.487605 
L 102.722186 106.573289 
L 103.253551 106.656517 
L 103.785096 106.737289 
L 104.316822 106.815605 
L 104.848729 106.891465 
L 105.380817 106.964869 
L 105.913085 107.035816 
L 106.445534 107.104308 
L 106.978164 107.170343 
L 107.510975 107.233923 
L 108.043966 107.295046 
L 108.577138 107.353713 
L 109.110491 107.409924 
L 109.644024 107.463679 
L 110.177738 107.514978 
L 110.711633 107.563821 
L 111.245709 107.610208 
L 111.362448 107.619807 
" style="fill:none;stroke:#dcdcdc;stroke-linecap:square;stroke-width:1.5;"/>
   </g>
   <g id="line2d_21">
    <path clip-path="url(#p8671b9c27d)" d="M 92.371055 104.452684 
L 69.725597 117.461347 
L 67.383248 119.05001 
L 65.384278 120.645278 
L 63.728688 122.247152 
L 62.416478 123.855632 
L 61.613944 125.147171 
L 53.4929 141.001422 
L 53.400274 141.653129 
L 53.537124 142.635994 
L 54.710541 147.573463 
L 58.381313 162.987324 
L 58.915248 164.304572 
L 59.69043 165.626461 
L 60.706858 166.95299 
L 61.964533 168.28416 
L 63.875879 169.954649 
L 66.333993 171.745992 
L 85.879002 185.081401 
L 92.901736 189.872215 
L 95.616867 189.903887 
L 95.616867 189.903887 
" style="fill:none;stroke:#dcdcdc;stroke-linecap:square;stroke-width:1.5;"/>
   </g>
   <g id="line2d_22">
    <g clip-path="url(#p8671b9c27d)">
     <use style="fill:#00bfbf;stroke:#00bfbf;" x="92.371055" xlink:href="#md42e9fe57f" y="104.452684"/>
    </g>
   </g>
   <g id="line2d_23">
    <path clip-path="url(#p8671b9c27d)" d="M 86.315324 90.340384 
L 86.337097 90.324042 
L 86.910438 89.900701 
L 87.483304 89.484689 
L 88.055696 89.076007 
L 88.627613 88.674653 
L 89.199056 88.280629 
L 89.770024 87.893935 
L 90.340517 87.514569 
L 90.910536 87.142533 
L 91.48008 86.777827 
L 92.04915 86.420449 
L 92.617744 86.070401 
L 93.185865 85.727682 
L 95.62772 84.284929 
L 96.145874 83.971699 
L 96.652965 83.657923 
L 97.148993 83.3436 
L 97.63396 83.02873 
L 98.107865 82.713313 
L 98.570707 82.39735 
L 99.022487 82.08084 
L 99.463205 81.763784 
L 99.89286 81.446181 
L 100.311454 81.128031 
L 100.718985 80.809335 
L 101.115454 80.490092 
L 101.500861 80.170302 
L 101.875206 79.849966 
L 102.238488 79.529083 
L 102.590709 79.207653 
L 102.931867 78.885677 
L 103.261963 78.563154 
L 103.580996 78.240085 
L 103.888968 77.916468 
L 104.185877 77.592305 
L 104.471724 77.267596 
L 104.746509 76.94234 
L 105.010232 76.616537 
L 105.262893 76.290188 
L 105.504491 75.963291 
L 105.735027 75.635849 
L 105.954501 75.307859 
L 106.162913 74.979323 
L 106.360262 74.650241 
L 106.54655 74.320611 
L 106.721775 73.990435 
L 106.885938 73.659713 
L 107.039039 73.328443 
L 107.181077 72.996627 
L 107.312054 72.664265 
L 107.431968 72.331356 
L 107.54082 71.9979 
L 107.63861 71.663897 
L 107.725337 71.329348 
L 107.801003 70.994252 
L 107.865606 70.65861 
" style="fill:none;stroke:#dcdcdc;stroke-linecap:square;stroke-width:1.5;"/>
   </g>
   <g id="line2d_24">
    <g clip-path="url(#p8671b9c27d)">
     <use style="fill:#00bfbf;stroke:#00bfbf;" x="86.315324" xlink:href="#md42e9fe57f" y="90.340384"/>
    </g>
   </g>
   <g id="line2d_25">
    <path clip-path="url(#p8671b9c27d)" d="M 111.362448 107.619807 
L 111.6395 107.813121 
L 111.761886 107.899827 
L 112.160005 108.177677 
L 112.273034 108.25779 
L 112.680507 108.542233 
L 112.784182 108.615752 
L 113.201005 108.906789 
L 113.29533 108.97371 
L 113.721499 109.271344 
L 113.806478 109.331666 
L 114.241988 109.6359 
L 114.317627 109.689619 
L 114.762473 110.000455 
L 114.828776 110.047569 
L 115.282953 110.36501 
L 115.339925 110.405516 
L 115.803428 110.729564 
L 115.851074 110.76346 
L 116.323898 111.094119 
L 116.362223 111.121401 
L 116.844362 111.458673 
L 116.873373 111.479337 
L 117.36482 111.823227 
L 117.384523 111.83727 
L 117.885272 112.18778 
L 117.895673 112.195199 
L 118.405717 112.552334 
L 118.406824 112.553124 
L 118.917967 112.911151 
L 118.926326 112.916895 
L 119.429109 113.269193 
L 119.446958 113.281457 
L 119.940251 113.627234 
L 119.967589 113.64602 
L 120.451393 113.985276 
L 120.488221 114.010582 
L 120.962535 114.343319 
L 121.008854 114.375145 
L 121.473677 114.701361 
L 121.529487 114.739707 
L 122.048614 115.104195 
L 122.55551 115.468079 
L 123.050173 115.831358 
L 123.532605 116.194033 
L 124.002805 116.556103 
L 142.957592 131.516789 
L 143.409818 131.865114 
L 143.873536 132.213903 
L 144.348748 132.563155 
L 144.835453 132.912869 
L 144.894527 132.954391 
L 145.323307 133.26263 
L 145.394178 133.312491 
L 145.81117 133.612392 
L 145.893828 133.670597 
L 146.299044 133.962153 
L 146.393477 134.028708 
L 146.786926 134.311915 
L 146.893126 134.386824 
L 147.274817 134.661678 
L 147.392774 134.744945 
L 147.762715 135.011441 
L 147.892421 135.103071 
L 148.250621 135.361204 
L 148.392068 135.461202 
L 148.738534 135.710967 
L 148.891715 135.819336 
L 149.226454 136.060731 
L 149.39136 136.177475 
L 149.71438 136.410494 
L 149.891006 136.535617 
L 150.202312 136.760259 
L 150.254871 136.797515 
" style="fill:none;stroke:#dcdcdc;stroke-linecap:square;stroke-width:1.5;"/>
   </g>
   <g id="line2d_26">
    <path clip-path="url(#p8671b9c27d)" d="M 111.362448 107.619807 
L 115.519237 105.632997 
L 124.399544 100.989302 
L 130.101202 98.067507 
L 133.589149 96.583725 
L 136.463767 95.584473 
L 139.30929 94.800886 
L 142.125717 94.232966 
L 144.913049 93.880711 
L 154.020527 93.040556 
L 156.842773 92.429502 
L 159.694115 91.602783 
L 162.574551 90.560397 
L 165.484084 89.302346 
L 169.012029 87.522086 
L 174.325611 84.735321 
L 174.325611 84.735321 
" style="fill:none;stroke:#dcdcdc;stroke-linecap:square;stroke-width:1.5;"/>
   </g>
   <g id="line2d_27">
    <g clip-path="url(#p8671b9c27d)">
     <use style="fill:#00bfbf;stroke:#00bfbf;" x="111.362448" xlink:href="#md42e9fe57f" y="107.619807"/>
    </g>
   </g>
   <g id="line2d_28">
    <path clip-path="url(#p8671b9c27d)" d="M 208.154526 108.577987 
L 208.309394 108.60699 
L 208.848364 108.710871 
L 209.387558 108.817736 
L 209.926975 108.927586 
L 210.466616 109.040421 
L 211.006481 109.15624 
L 211.54657 109.275044 
L 212.086882 109.396833 
L 212.627418 109.521606 
L 213.168178 109.649363 
L 213.709161 109.780106 
L 214.250368 109.913832 
L 214.791799 110.050544 
L 215.333454 110.19024 
L 215.875332 110.332921 
L 216.417434 110.478586 
L 216.847291 110.596409 
L 216.591651 110.974082 
L 216.150252 111.612709 
L 215.70716 112.240358 
L 215.262376 112.857027 
L 214.815898 113.462717 
L 214.367728 114.057428 
L 213.917865 114.641159 
L 213.466309 115.213912 
L 213.01306 115.775684 
L 212.558119 116.326478 
L 212.101484 116.866292 
L 211.643157 117.395127 
L 211.183137 117.912983 
L 210.721424 118.41986 
L 210.258019 118.915757 
L 209.792921 119.400675 
L 209.326129 119.874614 
L 208.857645 120.337573 
L 208.387469 120.789553 
L 207.915599 121.230554 
L 207.442037 121.660576 
L 206.966781 122.079618 
L 206.489833 122.487681 
L 206.011193 122.884765 
L 205.530859 123.270869 
L 205.048833 123.645995 
L 204.565113 124.01014 
L 204.079701 124.363307 
L 203.592597 124.705495 
L 203.103799 125.036703 
L 202.613308 125.356931 
L 202.121125 125.666181 
L 201.627249 125.964451 
L 201.13168 126.251742 
L 200.634419 126.528054 
L 200.621843 126.534741 
L 200.137444 126.806229 
L 200.026262 126.865778 
" style="fill:none;stroke:#dcdcdc;stroke-linecap:square;stroke-width:1.5;"/>
   </g>
   <g id="line2d_29">
    <path clip-path="url(#p8671b9c27d)" d="M 208.154526 108.577987 
L 208.145113 108.572043 
L 207.756907 108.322774 
L 207.57013 108.204794 
L 207.199009 107.966352 
L 206.995153 107.837546 
L 206.641112 107.609935 
L 206.420183 107.470299 
L 206.083214 107.253521 
L 205.84522 107.103052 
L 205.525317 106.897112 
L 205.270265 106.735805 
L 204.967421 106.540708 
L 204.695319 106.368558 
L 204.12611 106.001595 
L 203.568632 105.635212 
L 203.022885 105.269409 
L 202.48887 104.904185 
L 201.966586 104.539541 
L 201.456034 104.175476 
L 200.957213 103.811992 
L 200.470124 103.449087 
L 199.994766 103.086762 
L 184.043743 90.640944 
L 183.643893 90.337935 
L 183.234113 90.036153 
L 182.814403 89.735597 
L 182.384763 89.436269 
L 181.945193 89.138167 
L 181.495693 88.841291 
L 181.036262 88.545643 
L 180.566902 88.251221 
L 180.087612 87.958026 
L 179.598392 87.666058 
L 179.099241 87.375317 
L 178.590161 87.085802 
L 178.07115 86.797514 
L 177.890404 86.699421 
L 177.548554 86.509669 
L 177.380353 86.418412 
L 177.025955 86.221825 
L 176.870302 86.137399 
L 176.503351 85.933981 
L 176.360252 85.856385 
L 175.980745 85.646137 
L 175.850201 85.575369 
L 175.458135 85.358294 
L 175.340151 85.294351 
L 174.935523 85.070451 
L 174.830102 85.013331 
L 174.412907 84.782609 
L 174.325611 84.735321 
" style="fill:none;stroke:#dcdcdc;stroke-linecap:square;stroke-width:1.5;"/>
   </g>
   <g id="line2d_30">
    <path clip-path="url(#p8671b9c27d)" d="M 208.154526 108.577987 
L 207.153213 108.861862 
L 206.154779 109.151358 
L 205.17568 109.44181 
L 204.215914 109.733217 
L 203.275484 110.02558 
L 202.354388 110.318898 
L 201.452626 110.613171 
L 200.570199 110.9084 
L 199.707106 111.204585 
L 198.863348 111.501725 
L 198.038925 111.79982 
L 197.233836 112.09887 
L 196.448081 112.398877 
L 195.681661 112.699838 
L 194.934575 113.001755 
L 194.206824 113.304627 
L 193.498408 113.608455 
L 192.809326 113.913239 
L 192.139578 114.218977 
L 191.644799 114.452284 
L 191.483562 114.525394 
L 190.873455 114.811504 
L 190.828263 114.831847 
L 190.171064 115.138206 
L 190.101804 115.171675 
L 189.512708 115.444508 
L 189.329982 115.53237 
L 188.854907 115.750837 
L 188.558281 115.892692 
L 188.197748 116.057197 
L 187.786718 116.252592 
L 187.541337 116.363595 
L 187.01531 116.612008 
L 186.885805 116.670036 
L 186.244082 116.970869 
L 186.231315 116.976529 
L 185.572587 117.282812 
L 185.472159 117.331877 
L 184.913837 117.589094 
L 184.28041 117.896628 
L 183.677791 118.205684 
L 183.105981 118.516262 
L 182.564979 118.828363 
L 182.054787 119.141986 
L 181.575403 119.457132 
L 175.879543 123.47808 
L 175.353038 123.81765 
L 174.787818 124.152438 
L 174.183885 124.482443 
L 173.541239 124.807665 
L 172.859879 125.128105 
L 172.796765 125.155772 
L 172.212106 125.42779 
L 172.171644 125.447695 
L 171.627642 125.698356 
L 171.485332 125.767523 
L 171.043099 125.969511 
L 170.798183 126.087247 
L 170.458488 126.241169 
L 169.872928 126.519855 
L 169.285449 126.812773 
L 168.69605 127.119921 
L 168.104731 127.4413 
L 167.511493 127.77691 
L 166.916334 128.126751 
L 166.319256 128.490822 
L 165.720257 128.869124 
L 165.119339 129.261657 
L 164.516501 129.668421 
L 163.911743 130.089416 
L 163.344843 130.496105 
" style="fill:none;stroke:#dcdcdc;stroke-linecap:square;stroke-width:1.5;"/>
   </g>
   <g id="line2d_31">
    <g clip-path="url(#p8671b9c27d)">
     <use style="fill:#00bfbf;stroke:#00bfbf;" x="208.154526" xlink:href="#md42e9fe57f" y="108.577987"/>
    </g>
   </g>
   <g id="line2d_32">
    <path clip-path="url(#p8671b9c27d)" d="M 95.616867 189.903887 
L 96.048203 189.674747 
L 96.154941 189.617344 
L 96.630464 189.364685 
L 96.727464 189.312503 
L 97.212723 189.054623 
L 97.299987 189.007663 
L 97.794979 188.744561 
L 97.87251 188.702824 
L 98.377233 188.434499 
L 98.445032 188.397988 
L 98.959483 188.124436 
L 99.017554 188.093153 
L 99.541731 187.814374 
L 99.590076 187.78832 
L 100.123976 187.504311 
L 100.162598 187.483489 
L 100.706217 187.194248 
L 100.73512 187.17866 
L 101.288455 186.884185 
L 101.307641 186.873833 
L 101.87069 186.574122 
L 101.880162 186.569009 
L 102.452683 186.264185 
L 102.452923 186.264059 
L 103.025212 185.959286 
L 103.035277 185.954001 
L 103.597742 185.654387 
L 103.617629 185.643944 
L 104.170271 185.349489 
L 104.199981 185.333886 
L 104.7428 185.044591 
L 104.782333 185.023829 
L 105.315329 184.739693 
L 105.364684 184.713771 
L 105.887858 184.434795 
L 105.947035 184.403714 
L 106.460387 184.129898 
L 106.529385 184.093656 
L 107.032916 183.825001 
L 107.111735 183.783599 
L 107.605445 183.520104 
L 107.694084 183.473541 
L 108.177974 183.215208 
L 108.276433 183.163484 
L 108.750503 182.910312 
L 108.85878 182.853426 
L 109.323032 182.605417 
L 109.441127 182.543368 
L 109.895561 182.300522 
L 110.023474 182.233311 
L 110.46809 181.995627 
L 110.60582 181.923253 
L 111.040619 181.690733 
L 111.188165 181.613195 
L 111.613147 181.38584 
L 112.185208 181.08519 
L 112.756636 180.790266 
L 113.327432 180.50107 
L 113.897596 180.2176 
L 114.467128 179.939856 
L 115.036027 179.66784 
L 146.581589 164.885602 
L 147.198774 164.59084 
L 147.787768 164.304269 
" style="fill:none;stroke:#dcdcdc;stroke-linecap:square;stroke-width:1.5;"/>
   </g>
   <g id="line2d_33">
    <path clip-path="url(#p8671b9c27d)" d="M 95.616867 189.903887 
L 95.760021 189.999341 
L 96.301721 190.364945 
L 96.836295 190.730196 
L 97.36374 191.095095 
L 97.884058 191.459642 
L 98.397248 191.823837 
L 98.903311 192.18768 
L 99.402246 192.55117 
L 99.894053 192.914308 
L 100.378732 193.277094 
L 100.856284 193.639527 
L 101.326709 194.001609 
L 101.790005 194.363338 
L 102.246175 194.724715 
L 102.695216 195.08574 
L 103.13713 195.446412 
L 103.571916 195.806732 
L 103.999574 196.1667 
L 104.420105 196.526316 
L 104.833508 196.88558 
L 105.239784 197.244491 
L 105.638932 197.60305 
L 106.030952 197.961257 
L 106.415845 198.319112 
L 106.79361 198.676615 
L 126.1922 217.369314 
L 126.539085 217.697111 
L 126.892505 218.02474 
L 127.252459 218.352201 
L 127.618949 218.679493 
L 127.991972 219.006618 
L 128.371531 219.333574 
L 128.757624 219.660362 
L 129.150252 219.986982 
L 129.549415 220.313433 
L 129.955113 220.639717 
L 130.367345 220.965832 
L 130.786112 221.291779 
L 131.211413 221.617558 
L 131.531531 221.858931 
" style="fill:none;stroke:#dcdcdc;stroke-linecap:square;stroke-width:1.5;"/>
   </g>
   <g id="line2d_34">
    <g clip-path="url(#p8671b9c27d)">
     <use style="fill:#00bfbf;stroke:#00bfbf;" x="95.616867" xlink:href="#md42e9fe57f" y="189.903887"/>
    </g>
   </g>
   <g id="line2d_35">
    <path clip-path="url(#p8671b9c27d)" d="M 163.344843 130.496105 
L 163.307095 130.509598 
L 162.730395 130.722612 
L 162.152721 130.942847 
L 161.574074 131.170303 
L 160.994452 131.40498 
L 160.413856 131.646877 
L 159.832285 131.895995 
L 159.249741 132.152334 
L 158.666223 132.415894 
L 158.08173 132.686675 
L 157.496263 132.964676 
L 156.909822 133.249898 
L 156.322407 133.542341 
L 155.734018 133.842005 
L 155.144654 134.14889 
L 154.554316 134.462995 
L 153.990519 134.76937 
L 153.963048 134.783998 
L 153.409216 135.085055 
L 153.37178 135.105005 
L 152.827906 135.400741 
L 152.780511 135.426015 
L 152.24659 135.716426 
L 152.189241 135.747029 
L 151.665268 136.032111 
L 151.597971 136.068046 
L 151.083941 136.347795 
L 151.0067 136.389066 
L 150.502609 136.66348 
L 150.415429 136.71009 
L 150.254871 136.797515 
" style="fill:none;stroke:#dcdcdc;stroke-linecap:square;stroke-width:1.5;"/>
   </g>
   <g id="line2d_36">
    <path clip-path="url(#p8671b9c27d)" d="M 163.344843 130.496105 
L 180.338659 131.450384 
L 180.881013 131.466533 
L 180.895597 131.46658 
L 181.423733 131.48506 
L 181.544334 131.486029 
L 181.966373 131.503061 
L 182.192899 131.506012 
L 182.508928 131.520513 
L 182.841284 131.526551 
L 183.051393 131.537389 
L 183.489481 131.547669 
L 183.593766 131.553661 
L 184.136049 131.569348 
L 184.137497 131.569348 
L 184.678797 131.588056 
L 184.786288 131.588632 
L 185.221459 131.606202 
L 185.434892 131.608492 
L 185.764029 131.623755 
L 186.083303 131.628953 
L 186.306504 131.640686 
L 186.848206 131.652608 
L 187.387334 131.64784 
L 187.92389 131.62638 
L 188.457872 131.58823 
L 188.98928 131.533389 
L 189.518115 131.461857 
L 190.044377 131.373635 
L 190.568065 131.268722 
L 191.08918 131.147118 
L 191.607721 131.008824 
L 192.123689 130.853838 
L 192.637084 130.682163 
L 193.147905 130.493796 
L 193.656153 130.288738 
L 194.161827 130.06699 
L 194.664928 129.828552 
L 195.165456 129.573422 
L 195.66341 129.301602 
L 195.865278 129.184034 
L 196.16057 129.024633 
L 196.459697 128.852853 
L 196.65764 128.747077 
L 197.054991 128.521781 
L 197.154633 128.469022 
L 197.651052 128.190804 
L 197.65156 128.190537 
L 198.148902 127.914746 
L 198.243637 127.859397 
L 198.646151 127.638356 
L 198.837083 127.528097 
L 199.143319 127.361431 
L 199.431318 127.196894 
L 199.640413 127.084037 
L 200.026262 126.865778 
" style="fill:none;stroke:#dcdcdc;stroke-linecap:square;stroke-width:1.5;"/>
   </g>
   <g id="line2d_37">
    <g clip-path="url(#p8671b9c27d)">
     <use style="fill:#00bfbf;stroke:#00bfbf;" x="163.344843" xlink:href="#md42e9fe57f" y="130.496105"/>
    </g>
   </g>
   <g id="line2d_38">
    <path clip-path="url(#p8671b9c27d)" d="M 131.531531 221.858931 
L 126.530847 225.441999 
L 123.579194 227.875043 
L 121.384246 229.951886 
L 119.498567 232.020768 
L 117.922156 234.081692 
L 108.802061 247.331828 
L 106.922943 249.475681 
L 105.382076 251.025701 
L 105.438301 251.057481 
L 129.526835 264.363605 
L 131.629243 265.068935 
L 133.209544 265.39425 
L 134.792841 265.544981 
L 136.908168 265.497481 
L 166.008684 263.983875 
L 168.130478 263.559562 
L 170.255726 262.933983 
L 172.384428 262.107138 
L 174.516584 261.079026 
L 177.186636 259.510856 
L 189.55828 251.322289 
L 189.55828 251.322289 
" style="fill:none;stroke:#dcdcdc;stroke-linecap:square;stroke-width:1.5;"/>
   </g>
   <g id="line2d_39">
    <path clip-path="url(#p8671b9c27d)" d="M 131.531531 221.858931 
L 131.534748 221.859094 
L 132.086574 221.884442 
L 132.638057 221.907138 
L 133.189196 221.927182 
L 133.739992 221.944575 
L 134.290444 221.959317 
L 134.840554 221.971407 
L 135.390319 221.980846 
L 135.939742 221.987634 
L 136.488821 221.99177 
L 137.037556 221.993255 
L 137.344741 221.992601 
L 137.5861 221.993255 
L 137.893284 221.992601 
L 138.134643 221.993255 
L 138.441827 221.9926 
L 138.683186 221.993256 
L 138.990371 221.9926 
L 139.23173 221.993256 
L 139.538914 221.9926 
L 139.780273 221.993257 
L 140.087457 221.992599 
L 140.328816 221.993257 
L 140.636001 221.992599 
L 140.87736 221.993258 
L 141.184544 221.992598 
L 141.425903 221.993258 
L 141.733087 221.992598 
L 141.974446 221.993258 
L 142.281631 221.992597 
L 142.52299 221.993259 
L 142.830174 221.992597 
L 143.071533 221.993259 
L 143.378717 221.992597 
L 143.620077 221.99326 
L 143.927261 221.992596 
L 144.16862 221.99326 
L 144.475804 221.992596 
L 144.717163 221.99326 
L 145.024348 221.992595 
L 145.265707 221.993261 
L 145.572891 221.992595 
L 145.81425 221.993261 
L 146.121434 221.992594 
L 146.362793 221.993262 
L 146.669978 221.992594 
L 146.911337 221.993262 
L 147.218521 221.992594 
L 147.45988 221.993263 
L 147.767064 221.992593 
L 148.008423 221.993263 
L 148.315608 221.992593 
L 148.556967 221.993263 
L 148.864151 221.992592 
L 149.10551 221.993264 
L 149.412694 221.992592 
L 149.654053 221.993264 
L 149.961238 221.992591 
L 150.202597 221.993265 
L 150.509781 221.992591 
L 150.75114 221.993265 
L 151.058324 221.992591 
L 151.299683 221.993266 
L 151.606868 221.99259 
L 151.761266 221.993023 
" style="fill:none;stroke:#dcdcdc;stroke-linecap:square;stroke-width:1.5;"/>
   </g>
   <g id="line2d_40">
    <g clip-path="url(#p8671b9c27d)">
     <use style="fill:#00bfbf;stroke:#00bfbf;" x="131.531531" xlink:href="#md42e9fe57f" y="221.858931"/>
    </g>
   </g>
   <g id="line2d_41">
    <path clip-path="url(#p8671b9c27d)" d="M 189.55828 251.322289 
L 220.159377 250.544773 
L 224.924511 250.10877 
L 229.693749 249.433692 
L 234.467089 248.51954 
L 239.244532 247.366314 
L 241.24522 246.812432 
L 241.24522 246.812432 
" style="fill:none;stroke:#dcdcdc;stroke-linecap:square;stroke-width:1.5;"/>
   </g>
   <g id="line2d_42">
    <path clip-path="url(#p8671b9c27d)" d="M 189.55828 251.322289 
L 189.479472 251.2804 
L 189.074693 251.069455 
L 188.889788 250.971142 
L 188.484205 250.7598 
L 187.901285 250.44977 
L 187.329373 250.139197 
L 186.768466 249.82808 
L 186.218567 249.516419 
L 185.679675 249.204214 
L 185.151789 248.891465 
L 184.63491 248.578172 
L 184.129038 248.264335 
L 183.634172 247.949955 
L 183.150314 247.63503 
L 182.677462 247.319561 
L 182.215617 247.003549 
L 181.764779 246.686993 
L 181.324947 246.369893 
L 180.896123 246.052248 
L 180.478305 245.73406 
L 180.071494 245.415328 
L 179.67569 245.096053 
L 179.290892 244.776233 
L 178.917102 244.455869 
L 178.554318 244.134961 
L 178.202541 243.81351 
L 177.86177 243.491515 
L 177.532007 243.168975 
L 177.21325 242.845892 
L 176.9055 242.522265 
L 176.608757 242.198094 
L 176.323021 241.873379 
L 169.951773 234.330305 
L 169.661586 234.000256 
L 169.360221 233.670483 
L 169.047677 233.340987 
L 168.723956 233.011767 
L 168.389056 232.682822 
L 168.042978 232.354155 
L 167.685721 232.025763 
L 167.317287 231.697647 
L 166.937674 231.369808 
L 166.546883 231.042245 
L 166.144914 230.714958 
L 165.731766 230.387947 
L 165.30744 230.061212 
L 164.871936 229.734754 
L 164.425254 229.408571 
L 163.967394 229.082665 
L 163.498355 228.757036 
L 163.018138 228.431682 
L 162.526743 228.106604 
L 162.02417 227.781803 
L 161.510418 227.457278 
L 160.985488 227.133029 
L 160.44938 226.809057 
L 159.902094 226.48536 
L 159.343629 226.16194 
L 158.773986 225.838796 
L 158.193165 225.515928 
L 157.759268 225.279488 
L 157.604114 225.193263 
L 157.168833 224.956034 
L 157.015064 224.870598 
L 156.578398 224.63258 
L 156.426015 224.547934 
L 155.987963 224.309126 
L 155.836967 224.225269 
L 155.397529 223.985673 
L 155.24792 223.902604 
L 154.807094 223.662221 
L 154.658874 223.57994 
L 154.21666 223.338769 
L 154.069828 223.257275 
L 153.626225 223.015317 
L 153.480784 222.93461 
L 153.035791 222.691867 
L 152.891739 222.611945 
L 152.445357 222.368416 
L 152.302696 222.289281 
L 151.854923 222.044966 
L 151.761266 221.993023 
" style="fill:none;stroke:#dcdcdc;stroke-linecap:square;stroke-width:1.5;"/>
   </g>
   <g id="line2d_43">
    <g clip-path="url(#p8671b9c27d)">
     <use style="fill:#00bfbf;stroke:#00bfbf;" x="189.55828" xlink:href="#md42e9fe57f" y="251.322289"/>
    </g>
   </g>
   <g id="line2d_44">
    <path clip-path="url(#p8671b9c27d)" d="M 205.123018 192.458855 
L 205.670892 192.688154 
L 206.283422 192.949095 
L 206.887499 193.211079 
L 207.483124 193.474108 
L 208.070298 193.738181 
L 208.64902 194.003298 
L 209.219289 194.269459 
L 209.781107 194.536664 
L 210.334474 194.804914 
L 210.879388 195.074208 
L 211.41585 195.344545 
L 211.943861 195.615927 
L 212.46342 195.888353 
L 212.974526 196.161823 
L 213.477181 196.436338 
L 213.971385 196.711896 
L 214.457136 196.988499 
L 214.934435 197.266145 
L 215.403283 197.544836 
L 215.863679 197.824571 
L 216.315622 198.105351 
L 216.759114 198.387174 
L 217.194155 198.670041 
L 217.620743 198.953953 
L 218.038879 199.238909 
L 218.448564 199.524908 
L 218.849797 199.811952 
L 219.242577 200.100041 
L 219.626906 200.389173 
L 220.002784 200.679349 
L 220.370209 200.97057 
L 220.729182 201.262835 
L 221.079704 201.556144 
L 221.421774 201.850497 
L 221.755391 202.145894 
L 222.080557 202.442335 
L 222.397271 202.73982 
L 222.705534 203.03835 
L 223.005344 203.337924 
L 223.296703 203.638542 
L 223.579609 203.940204 
L 223.854064 204.24291 
L 224.120067 204.54666 
L 224.377618 204.851454 
L 224.626718 205.157293 
L 224.867365 205.464176 
L 225.099561 205.772102 
L 225.323304 206.081073 
L 225.538596 206.391089 
L 225.745436 206.702148 
L 225.943824 207.014251 
L 226.133761 207.327399 
L 226.315245 207.64159 
L 226.488278 207.956826 
L 228.497851 211.818687 
L 228.677139 212.14556 
L 228.865422 212.472049 
L 229.0627 212.798156 
L 229.268974 213.123879 
L 229.484243 213.449219 
L 229.708508 213.774176 
L 229.941768 214.09875 
L 230.184023 214.42294 
L 230.435274 214.746747 
L 230.695521 215.070171 
L 230.964762 215.393212 
L 231.242999 215.71587 
L 231.530232 216.038144 
L 231.82646 216.360035 
L 232.131683 216.681543 
L 232.445902 217.002668 
L 232.769116 217.32341 
L 233.101325 217.643768 
L 233.44253 217.963743 
L 233.792731 218.283335 
L 234.151926 218.602544 
L 234.520117 218.921369 
L 234.897304 219.239812 
L 235.283486 219.557871 
L 235.678663 219.875547 
L 236.082836 220.19284 
L 236.496004 220.509749 
L 236.918167 220.826275 
L 237.349326 221.142419 
L 237.789481 221.458179 
L 238.23863 221.773555 
L 238.696775 222.088549 
L 239.163916 222.403159 
L 239.640052 222.717386 
L 240.125183 223.03123 
L 240.61931 223.344691 
L 241.122432 223.657768 
L 241.63455 223.970463 
L 241.756994 224.043845 
L 241.691621 224.302542 
L 241.683347 224.337413 
L 241.606782 224.640666 
L 241.599715 224.670486 
L 241.521945 224.978791 
L 241.516083 225.003557 
L 241.437109 225.316916 
L 241.432448 225.336629 
L 241.352274 225.65504 
L 241.272489 225.992949 
L 241.19806 226.33063 
L 241.128987 226.668083 
L 241.06527 227.005308 
L 241.006909 227.342305 
L 240.953903 227.679074 
L 240.906254 228.015614 
L 240.86396 228.351926 
L 240.827023 228.68801 
L 240.795441 229.023866 
L 240.769215 229.359494 
L 240.748346 229.694893 
L 240.732832 230.030065 
L 240.722674 230.365008 
L 240.717872 230.699723 
L 240.718426 231.03421 
L 240.724336 231.368468 
L 241.24522 246.812432 
" style="fill:none;stroke:#dcdcdc;stroke-linecap:square;stroke-width:1.5;"/>
   </g>
   <g id="line2d_45">
    <path clip-path="url(#p8671b9c27d)" d="M 205.123018 192.458855 
L 205.107584 188.045174 
L 204.896981 186.063681 
L 201.652574 184.053767 
L 198.021167 182.07655 
L 194.370443 180.373757 
L 191.225878 179.13264 
L 188.067122 178.09314 
L 184.894174 177.255258 
L 181.707035 176.618993 
L 178.505704 176.184347 
L 172.136723 175.455754 
L 168.990592 174.816013 
L 165.891361 173.973487 
L 162.839028 172.928174 
L 159.833594 171.680077 
L 156.875059 170.229193 
L 153.963423 168.575524 
L 151.098685 166.719069 
L 147.787768 164.304269 
L 147.787768 164.304269 
" style="fill:none;stroke:#dcdcdc;stroke-linecap:square;stroke-width:1.5;"/>
   </g>
   <g id="line2d_46">
    <path clip-path="url(#p8671b9c27d)" d="M 205.123018 192.458855 
L 201.364602 194.840204 
L 184.24754 205.746251 
L 181.486809 207.122591 
L 163.45832 215.19337 
L 159.913247 217.153123 
L 151.761266 221.993023 
L 151.761266 221.993023 
" style="fill:none;stroke:#dcdcdc;stroke-linecap:square;stroke-width:1.5;"/>
   </g>
   <g id="line2d_47">
    <g clip-path="url(#p8671b9c27d)">
     <use style="fill:#00bfbf;stroke:#00bfbf;" x="205.123018" xlink:href="#md42e9fe57f" y="192.458855"/>
    </g>
   </g>
   <g id="line2d_48">
    <path clip-path="url(#p8671b9c27d)" d="M 147.787768 164.304269 
L 148.37248 157.813448 
L 150.254871 136.797515 
L 150.254871 136.797515 
" style="fill:none;stroke:#dcdcdc;stroke-linecap:square;stroke-width:1.5;"/>
   </g>
   <g id="line2d_49">
    <g clip-path="url(#p8671b9c27d)">
     <use style="fill:#00bfbf;stroke:#00bfbf;" x="147.787768" xlink:href="#md42e9fe57f" y="164.304269"/>
    </g>
   </g>
   <g id="line2d_50">
    <g clip-path="url(#p8671b9c27d)">
     <use style="fill:#00bfbf;stroke:#00bfbf;" x="150.254871" xlink:href="#md42e9fe57f" y="136.797515"/>
    </g>
   </g>
   <g id="line2d_51">
    <path clip-path="url(#p8671b9c27d)" d="M 174.325611 84.735321 
L 174.302745 84.501571 
L 174.298084 84.444387 
L 174.270267 84.161131 
L 174.264942 84.096075 
L 174.237791 83.820691 
L 174.231796 83.747764 
L 174.205317 83.480251 
L 174.198648 83.399453 
L 174.172847 83.139812 
L 174.165498 83.051142 
L 174.140379 82.799372 
L 174.132344 82.702831 
L 174.107914 82.458933 
L 174.099188 82.354521 
L 174.075453 82.118494 
L 174.066029 82.006211 
L 174.042993 81.778055 
L 174.032867 81.657901 
L 174.010537 81.437617 
L 173.999702 81.309592 
L 173.978084 81.097178 
L 173.949164 80.756914 
L 173.925982 80.416933 
L 173.908538 80.077237 
L 173.896833 79.737823 
L 173.890865 79.398693 
L 173.890636 79.059847 
L 173.896144 78.721284 
L 173.907391 78.383005 
L 173.924376 78.04501 
L 173.947098 77.707298 
L 173.975559 77.369869 
L 174.009758 77.032724 
L 174.049695 76.695863 
L 174.095371 76.359285 
L 174.146784 76.022991 
L 174.203935 75.68698 
L 174.266825 75.351253 
L 174.335452 75.015809 
L 174.409818 74.680649 
L 174.489922 74.345773 
L 174.575764 74.01118 
L 174.667344 73.67687 
L 174.764662 73.342844 
L 174.867718 73.009102 
L 174.976512 72.675643 
L 175.091045 72.342468 
L 175.211315 72.009577 
L 175.337323 71.676968 
" style="fill:none;stroke:#dcdcdc;stroke-linecap:square;stroke-width:1.5;"/>
   </g>
   <g id="line2d_52">
    <g clip-path="url(#p8671b9c27d)">
     <use style="fill:#00bfbf;stroke:#00bfbf;" x="174.325611" xlink:href="#md42e9fe57f" y="84.735321"/>
    </g>
   </g>
   <g id="line2d_53">
    <g clip-path="url(#p8671b9c27d)">
     <use style="fill:#00bfbf;stroke:#00bfbf;" x="151.761266" xlink:href="#md42e9fe57f" y="221.993023"/>
    </g>
   </g>
   <g id="line2d_54">
    <path clip-path="url(#p8671b9c27d)" d="M 178.649648 72.0843 
L 175.337323 71.676968 
" style="fill:none;stroke:#dcdcdc;stroke-linecap:square;stroke-width:1.5;"/>
   </g>
   <g id="line2d_55">
    <g clip-path="url(#p8671b9c27d)">
     <use style="fill:#00bfbf;stroke:#00bfbf;" x="178.649648" xlink:href="#md42e9fe57f" y="72.0843"/>
    </g>
   </g>
   <g id="line2d_56">
    <g clip-path="url(#p8671b9c27d)">
     <use style="fill:#00bfbf;stroke:#00bfbf;" x="175.337323" xlink:href="#md42e9fe57f" y="71.676968"/>
    </g>
   </g>
   <g id="line2d_57">
    <path clip-path="url(#p8671b9c27d)" d="M 248.693214 256.503453 
L 241.24522 246.812432 
" style="fill:none;stroke:#dcdcdc;stroke-linecap:square;stroke-width:1.5;"/>
   </g>
   <g id="line2d_58">
    <g clip-path="url(#p8671b9c27d)">
     <use style="fill:#00bfbf;stroke:#00bfbf;" x="248.693214" xlink:href="#md42e9fe57f" y="256.503453"/>
    </g>
   </g>
   <g id="line2d_59">
    <g clip-path="url(#p8671b9c27d)">
     <use style="fill:#00bfbf;stroke:#00bfbf;" x="241.24522" xlink:href="#md42e9fe57f" y="246.812432"/>
    </g>
   </g>
   <g id="line2d_60">
    <g clip-path="url(#p8671b9c27d)">
     <use style="fill:#00bfbf;stroke:#00bfbf;" x="107.865606" xlink:href="#md42e9fe57f" y="70.65861"/>
    </g>
   </g>
   <g id="line2d_61">
    <g clip-path="url(#p8671b9c27d)">
     <use style="fill:#00bfbf;stroke:#00bfbf;" x="200.026262" xlink:href="#md42e9fe57f" y="126.865778"/>
    </g>
   </g>
   <g id="line2d_62">
    <path clip-path="url(#p8671b9c27d)" d="M 178.649648 72.0843 
L 175.337323 71.676968 
" style="fill:none;stroke:#bf00bf;stroke-linecap:square;stroke-width:2;"/>
   </g>
   <g id="line2d_63">
    <path clip-path="url(#p8671b9c27d)" d="M 175.337323 71.676968 
L 173.975559 77.369869 
L 174.325611 84.735321 
" style="fill:none;stroke:#bf00bf;stroke-linecap:square;stroke-width:2;"/>
   </g>
   <g id="line2d_64">
    <path clip-path="url(#p8671b9c27d)" d="M 174.325611 84.735321 
L 161.418885 91.003231 
L 155.145934 92.822014 
L 150.672237 93.489141 
L 141.002637 94.434254 
L 135.891171 95.76707 
L 128.929242 98.631114 
L 111.362448 107.619807 
" style="fill:none;stroke:#bf00bf;stroke-linecap:square;stroke-width:2;"/>
   </g>
   <g id="line2d_65">
    <path clip-path="url(#p8671b9c27d)" d="M 111.362448 107.619807 
L 150.254871 136.797515 
" style="fill:none;stroke:#bf00bf;stroke-linecap:square;stroke-width:2;"/>
   </g>
   <g id="line2d_66">
    <path clip-path="url(#p8671b9c27d)" d="M 150.254871 136.797515 
L 147.787768 164.304269 
" style="fill:none;stroke:#bf00bf;stroke-linecap:square;stroke-width:2;"/>
   </g>
   <g id="line2d_67">
    <path clip-path="url(#p8671b9c27d)" d="M 147.787768 164.304269 
L 156.875059 170.229193 
L 164.359332 173.476179 
L 170.557795 175.161231 
L 189.648274 178.587688 
L 197.500817 181.816492 
L 204.942079 186.382559 
L 205.123018 192.458855 
" style="fill:none;stroke:#bf00bf;stroke-linecap:square;stroke-width:2;"/>
   </g>
   <g id="line2d_68">
    <path clip-path="url(#p8671b9c27d)" d="M 205.123018 192.458855 
L 215.403283 197.544836 
L 221.755391 202.145894 
L 225.099561 205.772102 
L 233.792731 218.283335 
L 241.122432 223.657768 
L 241.691621 224.302542 
L 241.24522 246.812432 
" style="fill:none;stroke:#bf00bf;stroke-linecap:square;stroke-width:2;"/>
   </g>
   <g id="line2d_69">
    <path clip-path="url(#p8671b9c27d)" d="M 241.24522 246.812432 
L 248.693214 256.503453 
" style="fill:none;stroke:#bf00bf;stroke-linecap:square;stroke-width:2;"/>
   </g>
   <g id="patch_14">
    <path d="M 33.2875 276.812 
L 33.2875 10.7 
" style="fill:none;stroke:#000000;stroke-linecap:square;stroke-linejoin:miter;stroke-width:0.8;"/>
   </g>
   <g id="patch_15">
    <path d="M 390.4075 276.812 
L 390.4075 10.7 
" style="fill:none;stroke:#000000;stroke-linecap:square;stroke-linejoin:miter;stroke-width:0.8;"/>
   </g>
   <g id="patch_16">
    <path d="M 33.2875 276.812 
L 390.4075 276.812 
" style="fill:none;stroke:#000000;stroke-linecap:square;stroke-linejoin:miter;stroke-width:0.8;"/>
   </g>
   <g id="patch_17">
    <path d="M 33.2875 10.7 
L 390.4075 10.7 
" style="fill:none;stroke:#000000;stroke-linecap:square;stroke-linejoin:miter;stroke-width:0.8;"/>
   </g>
   <g id="text_15">
    <g id="patch_18">
     <path d="M 178.649648 77.601175 
C 180.698177 77.601175 182.663078 76.787286 184.111606 75.338758 
C 185.560134 73.89023 186.374023 71.925329 186.374023 69.8768 
C 186.374023 67.828272 185.560134 65.863371 184.111606 64.414842 
C 182.663078 62.966314 180.698177 62.152425 178.649648 62.152425 
C 176.60112 62.152425 174.636219 62.966314 173.18769 64.414842 
C 171.739162 65.863371 170.925273 67.828272 170.925273 69.8768 
C 170.925273 71.925329 171.739162 73.89023 173.18769 75.338758 
C 174.636219 76.787286 176.60112 77.601175 178.649648 77.601175 
z
" style="fill:#0000ff;opacity:0.5;stroke:#0000ff;stroke-linejoin:miter;stroke-width:2;"/>
    </g>
    <!-- R1 -->
    <defs>
     <path d="M 44.390625 34.1875 
Q 47.5625 33.109375 50.5625 29.59375 
Q 53.5625 26.078125 56.59375 19.921875 
L 66.609375 0 
L 56 0 
L 46.6875 18.703125 
Q 43.0625 26.03125 39.671875 28.421875 
Q 36.28125 30.8125 30.421875 30.8125 
L 19.671875 30.8125 
L 19.671875 0 
L 9.8125 0 
L 9.8125 72.90625 
L 32.078125 72.90625 
Q 44.578125 72.90625 50.734375 67.671875 
Q 56.890625 62.453125 56.890625 51.90625 
Q 56.890625 45.015625 53.6875 40.46875 
Q 50.484375 35.9375 44.390625 34.1875 
z
M 19.671875 64.796875 
L 19.671875 38.921875 
L 32.078125 38.921875 
Q 39.203125 38.921875 42.84375 42.21875 
Q 46.484375 45.515625 46.484375 51.90625 
Q 46.484375 58.296875 42.84375 61.546875 
Q 39.203125 64.796875 32.078125 64.796875 
z
" id="DejaVuSans-52"/>
    </defs>
    <g transform="translate(173.325273 72.0843)scale(0.08 -0.08)">
     <use xlink:href="#DejaVuSans-52"/>
     <use x="69.482422" xlink:href="#DejaVuSans-31"/>
    </g>
   </g>
   <g id="text_16">
    <g id="patch_19">
     <path d="M 248.693214 260.567203 
C 250.356369 260.567203 251.95163 259.906424 253.127658 258.730396 
C 254.303686 257.554368 254.964464 255.959108 254.964464 254.295953 
C 254.964464 252.632798 254.303686 251.037537 253.127658 249.861509 
C 251.95163 248.685481 250.356369 248.024703 248.693214 248.024703 
C 247.030059 248.024703 245.434799 248.685481 244.258771 249.861509 
C 243.082743 251.037537 242.421964 252.632798 242.421964 254.295953 
C 242.421964 255.959108 243.082743 257.554368 244.258771 258.730396 
C 245.434799 259.906424 247.030059 260.567203 248.693214 260.567203 
z
" style="fill:#ff0000;opacity:0.5;stroke:#ff0000;stroke-linejoin:miter;stroke-width:2;"/>
    </g>
    <!-- E -->
    <defs>
     <path d="M 9.8125 72.90625 
L 55.90625 72.90625 
L 55.90625 64.59375 
L 19.671875 64.59375 
L 19.671875 43.015625 
L 54.390625 43.015625 
L 54.390625 34.71875 
L 19.671875 34.71875 
L 19.671875 8.296875 
L 56.78125 8.296875 
L 56.78125 0 
L 9.8125 0 
z
" id="DejaVuSans-45"/>
    </defs>
    <g transform="translate(246.165714 256.503453)scale(0.08 -0.08)">
     <use xlink:href="#DejaVuSans-45"/>
    </g>
   </g>
   <g id="text_17">
    <!-- maxCost: 269 -->
    <defs>
     <path d="M 52 44.1875 
Q 55.375 50.25 60.0625 53.125 
Q 64.75 56 71.09375 56 
Q 79.640625 56 84.28125 50.015625 
Q 88.921875 44.046875 88.921875 33.015625 
L 88.921875 0 
L 79.890625 0 
L 79.890625 32.71875 
Q 79.890625 40.578125 77.09375 44.375 
Q 74.3125 48.1875 68.609375 48.1875 
Q 61.625 48.1875 57.5625 43.546875 
Q 53.515625 38.921875 53.515625 30.90625 
L 53.515625 0 
L 44.484375 0 
L 44.484375 32.71875 
Q 44.484375 40.625 41.703125 44.40625 
Q 38.921875 48.1875 33.109375 48.1875 
Q 26.21875 48.1875 22.15625 43.53125 
Q 18.109375 38.875 18.109375 30.90625 
L 18.109375 0 
L 9.078125 0 
L 9.078125 54.6875 
L 18.109375 54.6875 
L 18.109375 46.1875 
Q 21.1875 51.21875 25.484375 53.609375 
Q 29.78125 56 35.6875 56 
Q 41.65625 56 45.828125 52.96875 
Q 50 49.953125 52 44.1875 
z
" id="DejaVuSans-6d"/>
     <path d="M 34.28125 27.484375 
Q 23.390625 27.484375 19.1875 25 
Q 14.984375 22.515625 14.984375 16.5 
Q 14.984375 11.71875 18.140625 8.90625 
Q 21.296875 6.109375 26.703125 6.109375 
Q 34.1875 6.109375 38.703125 11.40625 
Q 43.21875 16.703125 43.21875 25.484375 
L 43.21875 27.484375 
z
M 52.203125 31.203125 
L 52.203125 0 
L 43.21875 0 
L 43.21875 8.296875 
Q 40.140625 3.328125 35.546875 0.953125 
Q 30.953125 -1.421875 24.3125 -1.421875 
Q 15.921875 -1.421875 10.953125 3.296875 
Q 6 8.015625 6 15.921875 
Q 6 25.140625 12.171875 29.828125 
Q 18.359375 34.515625 30.609375 34.515625 
L 43.21875 34.515625 
L 43.21875 35.40625 
Q 43.21875 41.609375 39.140625 45 
Q 35.0625 48.390625 27.6875 48.390625 
Q 23 48.390625 18.546875 47.265625 
Q 14.109375 46.140625 10.015625 43.890625 
L 10.015625 52.203125 
Q 14.9375 54.109375 19.578125 55.046875 
Q 24.21875 56 28.609375 56 
Q 40.484375 56 46.34375 49.84375 
Q 52.203125 43.703125 52.203125 31.203125 
z
" id="DejaVuSans-61"/>
     <path d="M 54.890625 54.6875 
L 35.109375 28.078125 
L 55.90625 0 
L 45.3125 0 
L 29.390625 21.484375 
L 13.484375 0 
L 2.875 0 
L 24.125 28.609375 
L 4.6875 54.6875 
L 15.28125 54.6875 
L 29.78125 35.203125 
L 44.28125 54.6875 
z
" id="DejaVuSans-78"/>
     <path d="M 64.40625 67.28125 
L 64.40625 56.890625 
Q 59.421875 61.53125 53.78125 63.8125 
Q 48.140625 66.109375 41.796875 66.109375 
Q 29.296875 66.109375 22.65625 58.46875 
Q 16.015625 50.828125 16.015625 36.375 
Q 16.015625 21.96875 22.65625 14.328125 
Q 29.296875 6.6875 41.796875 6.6875 
Q 48.140625 6.6875 53.78125 8.984375 
Q 59.421875 11.28125 64.40625 15.921875 
L 64.40625 5.609375 
Q 59.234375 2.09375 53.4375 0.328125 
Q 47.65625 -1.421875 41.21875 -1.421875 
Q 24.65625 -1.421875 15.125 8.703125 
Q 5.609375 18.84375 5.609375 36.375 
Q 5.609375 53.953125 15.125 64.078125 
Q 24.65625 74.21875 41.21875 74.21875 
Q 47.75 74.21875 53.53125 72.484375 
Q 59.328125 70.75 64.40625 67.28125 
z
" id="DejaVuSans-43"/>
     <path d="M 30.609375 48.390625 
Q 23.390625 48.390625 19.1875 42.75 
Q 14.984375 37.109375 14.984375 27.296875 
Q 14.984375 17.484375 19.15625 11.84375 
Q 23.34375 6.203125 30.609375 6.203125 
Q 37.796875 6.203125 41.984375 11.859375 
Q 46.1875 17.53125 46.1875 27.296875 
Q 46.1875 37.015625 41.984375 42.703125 
Q 37.796875 48.390625 30.609375 48.390625 
z
M 30.609375 56 
Q 42.328125 56 49.015625 48.375 
Q 55.71875 40.765625 55.71875 27.296875 
Q 55.71875 13.875 49.015625 6.21875 
Q 42.328125 -1.421875 30.609375 -1.421875 
Q 18.84375 -1.421875 12.171875 6.21875 
Q 5.515625 13.875 5.515625 27.296875 
Q 5.515625 40.765625 12.171875 48.375 
Q 18.84375 56 30.609375 56 
z
" id="DejaVuSans-6f"/>
     <path d="M 44.28125 53.078125 
L 44.28125 44.578125 
Q 40.484375 46.53125 36.375 47.5 
Q 32.28125 48.484375 27.875 48.484375 
Q 21.1875 48.484375 17.84375 46.4375 
Q 14.5 44.390625 14.5 40.28125 
Q 14.5 37.15625 16.890625 35.375 
Q 19.28125 33.59375 26.515625 31.984375 
L 29.59375 31.296875 
Q 39.15625 29.25 43.1875 25.515625 
Q 47.21875 21.78125 47.21875 15.09375 
Q 47.21875 7.46875 41.1875 3.015625 
Q 35.15625 -1.421875 24.609375 -1.421875 
Q 20.21875 -1.421875 15.453125 -0.5625 
Q 10.6875 0.296875 5.421875 2 
L 5.421875 11.28125 
Q 10.40625 8.6875 15.234375 7.390625 
Q 20.0625 6.109375 24.8125 6.109375 
Q 31.15625 6.109375 34.5625 8.28125 
Q 37.984375 10.453125 37.984375 14.40625 
Q 37.984375 18.0625 35.515625 20.015625 
Q 33.0625 21.96875 24.703125 23.78125 
L 21.578125 24.515625 
Q 13.234375 26.265625 9.515625 29.90625 
Q 5.8125 33.546875 5.8125 39.890625 
Q 5.8125 47.609375 11.28125 51.796875 
Q 16.75 56 26.8125 56 
Q 31.78125 56 36.171875 55.265625 
Q 40.578125 54.546875 44.28125 53.078125 
z
" id="DejaVuSans-73"/>
     <path d="M 18.3125 70.21875 
L 18.3125 54.6875 
L 36.8125 54.6875 
L 36.8125 47.703125 
L 18.3125 47.703125 
L 18.3125 18.015625 
Q 18.3125 11.328125 20.140625 9.421875 
Q 21.96875 7.515625 27.59375 7.515625 
L 36.8125 7.515625 
L 36.8125 0 
L 27.59375 0 
Q 17.1875 0 13.234375 3.875 
Q 9.28125 7.765625 9.28125 18.015625 
L 9.28125 47.703125 
L 2.6875 47.703125 
L 2.6875 54.6875 
L 9.28125 54.6875 
L 9.28125 70.21875 
z
" id="DejaVuSans-74"/>
     <path d="M 11.71875 12.40625 
L 22.015625 12.40625 
L 22.015625 0 
L 11.71875 0 
z
M 11.71875 51.703125 
L 22.015625 51.703125 
L 22.015625 39.3125 
L 11.71875 39.3125 
z
" id="DejaVuSans-3a"/>
     <path id="DejaVuSans-20"/>
     <path d="M 33.015625 40.375 
Q 26.375 40.375 22.484375 35.828125 
Q 18.609375 31.296875 18.609375 23.390625 
Q 18.609375 15.53125 22.484375 10.953125 
Q 26.375 6.390625 33.015625 6.390625 
Q 39.65625 6.390625 43.53125 10.953125 
Q 47.40625 15.53125 47.40625 23.390625 
Q 47.40625 31.296875 43.53125 35.828125 
Q 39.65625 40.375 33.015625 40.375 
z
M 52.59375 71.296875 
L 52.59375 62.3125 
Q 48.875 64.0625 45.09375 64.984375 
Q 41.3125 65.921875 37.59375 65.921875 
Q 27.828125 65.921875 22.671875 59.328125 
Q 17.53125 52.734375 16.796875 39.40625 
Q 19.671875 43.65625 24.015625 45.921875 
Q 28.375 48.1875 33.59375 48.1875 
Q 44.578125 48.1875 50.953125 41.515625 
Q 57.328125 34.859375 57.328125 23.390625 
Q 57.328125 12.15625 50.6875 5.359375 
Q 44.046875 -1.421875 33.015625 -1.421875 
Q 20.359375 -1.421875 13.671875 8.265625 
Q 6.984375 17.96875 6.984375 36.375 
Q 6.984375 53.65625 15.1875 63.9375 
Q 23.390625 74.21875 37.203125 74.21875 
Q 40.921875 74.21875 44.703125 73.484375 
Q 48.484375 72.75 52.59375 71.296875 
z
" id="DejaVuSans-36"/>
     <path d="M 10.984375 1.515625 
L 10.984375 10.5 
Q 14.703125 8.734375 18.5 7.8125 
Q 22.3125 6.890625 25.984375 6.890625 
Q 35.75 6.890625 40.890625 13.453125 
Q 46.046875 20.015625 46.78125 33.40625 
Q 43.953125 29.203125 39.59375 26.953125 
Q 35.25 24.703125 29.984375 24.703125 
Q 19.046875 24.703125 12.671875 31.3125 
Q 6.296875 37.9375 6.296875 49.421875 
Q 6.296875 60.640625 12.9375 67.421875 
Q 19.578125 74.21875 30.609375 74.21875 
Q 43.265625 74.21875 49.921875 64.515625 
Q 56.59375 54.828125 56.59375 36.375 
Q 56.59375 19.140625 48.40625 8.859375 
Q 40.234375 -1.421875 26.421875 -1.421875 
Q 22.703125 -1.421875 18.890625 -0.6875 
Q 15.09375 0.046875 10.984375 1.515625 
z
M 30.609375 32.421875 
Q 37.25 32.421875 41.125 36.953125 
Q 45.015625 41.5 45.015625 49.421875 
Q 45.015625 57.28125 41.125 61.84375 
Q 37.25 66.40625 30.609375 66.40625 
Q 23.96875 66.40625 20.09375 61.84375 
Q 16.21875 57.28125 16.21875 49.421875 
Q 16.21875 41.5 20.09375 36.953125 
Q 23.96875 32.421875 30.609375 32.421875 
z
" id="DejaVuSans-39"/>
    </defs>
    <g style="fill:#ff0000;" transform="translate(299.483614 19.033507)scale(0.1 -0.1)">
     <use xlink:href="#DejaVuSans-6d"/>
     <use x="97.412109" xlink:href="#DejaVuSans-61"/>
     <use x="158.691406" xlink:href="#DejaVuSans-78"/>
     <use x="217.871094" xlink:href="#DejaVuSans-43"/>
     <use x="287.695312" xlink:href="#DejaVuSans-6f"/>
     <use x="348.876953" xlink:href="#DejaVuSans-73"/>
     <use x="400.976562" xlink:href="#DejaVuSans-74"/>
     <use x="440.185547" xlink:href="#DejaVuSans-3a"/>
     <use x="473.876953" xlink:href="#DejaVuSans-20"/>
     <use x="505.664062" xlink:href="#DejaVuSans-32"/>
     <use x="569.287109" xlink:href="#DejaVuSans-36"/>
     <use x="632.910156" xlink:href="#DejaVuSans-39"/>
    </g>
   </g>
   <g id="text_18">
    <g id="patch_20">
     <path d="M 138.963705 90.179023 
L 141.678643 88.581536 
L 145.654064 95.337787 
L 142.939126 96.935274 
L 143.932982 98.624337 
L 135.884228 96.538714 
L 137.96985 88.48996 
L 138.963705 90.179023 
z
" style="fill:#ffffff;opacity:0.8;stroke:#bf00bf;stroke-linejoin:miter;"/>
    </g>
    <!-- 1 -->
    <g transform="translate(141.673868 91.531245)rotate(-210.472828)scale(0.05 -0.05)">
     <use xlink:href="#DejaVuSans-31"/>
    </g>
   </g>
   <g id="text_19">
    <g id="patch_21">
     <path d="M 127.820583 123.712576 
L 125.818312 121.280753 
L 131.870017 116.298007 
L 133.872288 118.729829 
L 135.385215 117.484142 
L 134.583496 125.759981 
L 126.307657 124.958263 
L 127.820583 123.712576 
z
" style="fill:#ffffff;opacity:0.8;stroke:#bf00bf;stroke-linejoin:miter;"/>
    </g>
    <!-- 1 -->
    <g transform="translate(128.7325 120.824342)rotate(-309.46676)scale(0.05 -0.05)">
     <use xlink:href="#DejaVuSans-31"/>
    </g>
   </g>
   <g id="text_20">
    <g id="patch_22">
     <path d="M 145.104502 148.316227 
L 145.278754 145.170995 
L 153.105814 145.604629 
L 152.931562 148.749862 
L 154.888327 148.85827 
L 148.692806 154.403339 
L 143.147737 148.207819 
L 145.104502 148.316227 
z
" style="fill:#ffffff;opacity:0.8;stroke:#bf00bf;stroke-linejoin:miter;"/>
    </g>
    <!-- 1 -->
    <g transform="translate(147.731733 146.809195)rotate(-266.828942)scale(0.05 -0.05)">
     <use xlink:href="#DejaVuSans-31"/>
    </g>
   </g>
   <g id="text_21">
    <g id="patch_23">
     <path d="M 187.255708 180.777414 
L 184.789887 178.817163 
L 189.668063 172.680853 
L 192.133884 174.641104 
L 193.353428 173.107027 
L 194.297028 181.367891 
L 186.036164 182.311491 
L 187.255708 180.777414 
z
" style="fill:#ffffff;opacity:0.8;stroke:#bf00bf;stroke-linejoin:miter;"/>
    </g>
    <!-- 1 -->
    <g transform="translate(187.544588 177.762445)rotate(-321.51639)scale(0.05 -0.05)">
     <use xlink:href="#DejaVuSans-31"/>
    </g>
   </g>
   <g id="text_22">
    <g id="patch_24">
     <path d="M 230.189395 218.417863 
L 228.99314 215.503789 
L 236.244949 212.526852 
L 237.441205 215.440925 
L 239.254157 214.696691 
L 236.048003 222.368251 
L 228.376442 219.162097 
L 230.189395 218.417863 
z
" style="fill:#ffffff;opacity:0.8;stroke:#bf00bf;stroke-linejoin:miter;"/>
    </g>
    <!-- 1 -->
    <g transform="translate(231.91235 215.926896)rotate(-292.318621)scale(0.05 -0.05)">
     <use xlink:href="#DejaVuSans-31"/>
    </g>
   </g>
  </g>
 </g>
 <defs>
  <clipPath id="p8671b9c27d">
   <rect height="266.112" width="357.12" x="33.2875" y="10.7"/>
  </clipPath>
 </defs>
</svg>
