<?xml version="1.0" encoding="utf-8" standalone="no"?>
<!DOCTYPE svg PUBLIC "-//W3C//DTD SVG 1.1//EN"
  "http://www.w3.org/Graphics/SVG/1.1/DTD/svg11.dtd">
<!-- Created with matplotlib (http://matplotlib.org/) -->
<svg height="300pt" version="1.1" viewBox="0 0 401 300" width="401pt" xmlns="http://www.w3.org/2000/svg" xmlns:xlink="http://www.w3.org/1999/xlink">
 <defs>
  <style type="text/css">
*{stroke-linecap:butt;stroke-linejoin:round;}
  </style>
 </defs>
 <g id="figure_1">
  <g id="patch_1">
   <path d="M 0 300.690125 
L 401.1075 300.690125 
L 401.1075 0 
L 0 0 
z
" style="fill:#ffffff;"/>
  </g>
  <g id="axes_1">
   <g id="patch_2">
    <path d="M 33.2875 276.812 
L 390.4075 276.812 
L 390.4075 10.7 
L 33.2875 10.7 
z
" style="fill:#ffffff;"/>
   </g>
   <g id="patch_3">
    <path clip-path="url(#p152687600c)" d="M 33.2875 276.812 
L 33.2875 10.7 
L 390.4075 10.7 
L 390.4075 276.812 
z
"/>
   </g>
   <g id="patch_4">
    <path clip-path="url(#p152687600c)" d="M 349.244136 269.790575 
L 101.151425 269.088433 
L 137.864696 260.662723 
L 140.089743 244.513446 
L 179.028061 242.407018 
L 94.476285 236.087736 
L 68.888248 198.172042 
L 145.65236 200.27847 
L 144.539836 182.724908 
L 85.576098 165.171346 
L 95.588808 130.766364 
L 44.412734 129.362079 
L 49.97535 106.191377 
L 148.98993 117.425657 
L 148.98993 100.574237 
L 116.726752 89.339958 
L 121.176846 68.275683 
L 68.888248 60.552116 
L 133.414603 43.700697 
L 111.164136 17.721425 
L 162.34021 18.423567 
L 189.040771 45.104982 
L 209.066192 44.402839 
L 202.391051 19.12571 
L 351.469182 20.529995 
L 309.193294 31.062132 
L 309.193294 47.913551 
L 358.144322 40.189984 
L 331.443762 56.339261 
L 358.144322 59.147831 
L 359.256846 72.488538 
L 295.843014 75.999251 
L 296.955537 93.552813 
L 358.144322 91.446385 
L 342.568995 116.021372 
L 379.282266 134.277077 
L 348.131612 137.787789 
L 348.131612 167.979916 
L 371.494603 171.490628 
L 318.093481 186.23562 
L 318.093481 209.406322 
L 373.71965 215.725604 
L 373.71965 232.577024 
L 308.080771 246.619873 
L 309.193294 263.471293 
z
" style="fill:#ffffff;"/>
   </g>
   <g id="patch_5">
    <path clip-path="url(#p152687600c)" d="M 374.832173 92.148528 
L 374.832173 89.339958 
L 407.09535 87.23353 
L 407.09535 90.744243 
z
"/>
   </g>
   <g id="patch_6">
    <path clip-path="url(#p152687600c)" d="M 176.803014 86.531388 
L 203.503575 85.127103 
L 201.278528 67.573541 
L 173.465444 68.977826 
z
"/>
   </g>
   <g id="patch_7">
    <path clip-path="url(#p152687600c)" d="M 225.754042 104.08495 
L 253.567126 105.489235 
L 255.792173 88.637815 
L 227.979089 87.23353 
z
"/>
   </g>
   <g id="patch_8">
    <path clip-path="url(#p152687600c)" d="M 319.206005 157.447778 
L 334.781332 151.830639 
L 322.543575 139.192074 
L 309.193294 141.298501 
z
"/>
   </g>
   <g id="patch_9">
    <path clip-path="url(#p152687600c)" d="M 294.730491 166.575631 
L 295.843014 134.979219 
L 246.891986 134.277077 
L 245.779463 165.171346 
z
"/>
   </g>
   <g id="patch_10">
    <path clip-path="url(#p152687600c)" d="M 120.064322 151.830639 
L 156.777593 166.575631 
L 203.503575 166.575631 
L 204.616098 134.979219 
L 154.552547 134.277077 
z
"/>
   </g>
   <g id="patch_11">
    <path clip-path="url(#p152687600c)" d="M 217.966379 205.193467 
L 243.554416 205.895609 
L 246.891986 188.342047 
L 219.078902 186.937763 
z
"/>
   </g>
   <g id="patch_12">
    <path clip-path="url(#p152687600c)" d="M 304.743201 211.512749 
L 310.305818 212.214892 
L 311.418341 208.704179 
L 305.855724 208.002037 
z
"/>
   </g>
   <g id="patch_13">
    <path clip-path="url(#p152687600c)" d="M 107.826565 226.257741 
L 136.752173 229.066311 
L 150.102453 215.023462 
z
"/>
   </g>
   <g id="patch_14">
    <path clip-path="url(#p152687600c)" d="M 152.3275 231.172739 
L 187.928248 233.279166 
L 190.153294 215.725604 
L 162.34021 215.023462 
z
"/>
   </g>
   <g id="patch_15">
    <path clip-path="url(#p152687600c)" d="M 268.02993 235.385594 
L 334.781332 224.151314 
L 269.142453 217.832032 
z
"/>
   </g>
   <g id="matplotlib.axis_1">
    <g id="xtick_1">
     <g id="line2d_1">
      <defs>
       <path d="M 0 0 
L 0 3.5 
" id="m0d82afefe9" style="stroke:#000000;stroke-width:0.8;"/>
      </defs>
      <g>
       <use style="stroke:#000000;stroke-width:0.8;" x="84.463575" xlink:href="#m0d82afefe9" y="276.812"/>
      </g>
     </g>
     <g id="text_1">
      <!-- 150 -->
      <defs>
       <path d="M 12.40625 8.296875 
L 28.515625 8.296875 
L 28.515625 63.921875 
L 10.984375 60.40625 
L 10.984375 69.390625 
L 28.421875 72.90625 
L 38.28125 72.90625 
L 38.28125 8.296875 
L 54.390625 8.296875 
L 54.390625 0 
L 12.40625 0 
z
" id="DejaVuSans-31"/>
       <path d="M 10.796875 72.90625 
L 49.515625 72.90625 
L 49.515625 64.59375 
L 19.828125 64.59375 
L 19.828125 46.734375 
Q 21.96875 47.46875 24.109375 47.828125 
Q 26.265625 48.1875 28.421875 48.1875 
Q 40.625 48.1875 47.75 41.5 
Q 54.890625 34.8125 54.890625 23.390625 
Q 54.890625 11.625 47.5625 5.09375 
Q 40.234375 -1.421875 26.90625 -1.421875 
Q 22.3125 -1.421875 17.546875 -0.640625 
Q 12.796875 0.140625 7.71875 1.703125 
L 7.71875 11.625 
Q 12.109375 9.234375 16.796875 8.0625 
Q 21.484375 6.890625 26.703125 6.890625 
Q 35.15625 6.890625 40.078125 11.328125 
Q 45.015625 15.765625 45.015625 23.390625 
Q 45.015625 31 40.078125 35.4375 
Q 35.15625 39.890625 26.703125 39.890625 
Q 22.75 39.890625 18.8125 39.015625 
Q 14.890625 38.140625 10.796875 36.28125 
z
" id="DejaVuSans-35"/>
       <path d="M 31.78125 66.40625 
Q 24.171875 66.40625 20.328125 58.90625 
Q 16.5 51.421875 16.5 36.375 
Q 16.5 21.390625 20.328125 13.890625 
Q 24.171875 6.390625 31.78125 6.390625 
Q 39.453125 6.390625 43.28125 13.890625 
Q 47.125 21.390625 47.125 36.375 
Q 47.125 51.421875 43.28125 58.90625 
Q 39.453125 66.40625 31.78125 66.40625 
z
M 31.78125 74.21875 
Q 44.046875 74.21875 50.515625 64.515625 
Q 56.984375 54.828125 56.984375 36.375 
Q 56.984375 17.96875 50.515625 8.265625 
Q 44.046875 -1.421875 31.78125 -1.421875 
Q 19.53125 -1.421875 13.0625 8.265625 
Q 6.59375 17.96875 6.59375 36.375 
Q 6.59375 54.828125 13.0625 64.515625 
Q 19.53125 74.21875 31.78125 74.21875 
z
" id="DejaVuSans-30"/>
      </defs>
      <g transform="translate(74.919825 291.410437)scale(0.1 -0.1)">
       <use xlink:href="#DejaVuSans-31"/>
       <use x="63.623047" xlink:href="#DejaVuSans-35"/>
       <use x="127.246094" xlink:href="#DejaVuSans-30"/>
      </g>
     </g>
    </g>
    <g id="xtick_2">
     <g id="line2d_2">
      <g>
       <use style="stroke:#000000;stroke-width:0.8;" x="140.089743" xlink:href="#m0d82afefe9" y="276.812"/>
      </g>
     </g>
     <g id="text_2">
      <!-- 200 -->
      <defs>
       <path d="M 19.1875 8.296875 
L 53.609375 8.296875 
L 53.609375 0 
L 7.328125 0 
L 7.328125 8.296875 
Q 12.9375 14.109375 22.625 23.890625 
Q 32.328125 33.6875 34.8125 36.53125 
Q 39.546875 41.84375 41.421875 45.53125 
Q 43.3125 49.21875 43.3125 52.78125 
Q 43.3125 58.59375 39.234375 62.25 
Q 35.15625 65.921875 28.609375 65.921875 
Q 23.96875 65.921875 18.8125 64.3125 
Q 13.671875 62.703125 7.8125 59.421875 
L 7.8125 69.390625 
Q 13.765625 71.78125 18.9375 73 
Q 24.125 74.21875 28.421875 74.21875 
Q 39.75 74.21875 46.484375 68.546875 
Q 53.21875 62.890625 53.21875 53.421875 
Q 53.21875 48.921875 51.53125 44.890625 
Q 49.859375 40.875 45.40625 35.40625 
Q 44.1875 33.984375 37.640625 27.21875 
Q 31.109375 20.453125 19.1875 8.296875 
z
" id="DejaVuSans-32"/>
      </defs>
      <g transform="translate(130.545993 291.410437)scale(0.1 -0.1)">
       <use xlink:href="#DejaVuSans-32"/>
       <use x="63.623047" xlink:href="#DejaVuSans-30"/>
       <use x="127.246094" xlink:href="#DejaVuSans-30"/>
      </g>
     </g>
    </g>
    <g id="xtick_3">
     <g id="line2d_3">
      <g>
       <use style="stroke:#000000;stroke-width:0.8;" x="195.715911" xlink:href="#m0d82afefe9" y="276.812"/>
      </g>
     </g>
     <g id="text_3">
      <!-- 250 -->
      <g transform="translate(186.172161 291.410437)scale(0.1 -0.1)">
       <use xlink:href="#DejaVuSans-32"/>
       <use x="63.623047" xlink:href="#DejaVuSans-35"/>
       <use x="127.246094" xlink:href="#DejaVuSans-30"/>
      </g>
     </g>
    </g>
    <g id="xtick_4">
     <g id="line2d_4">
      <g>
       <use style="stroke:#000000;stroke-width:0.8;" x="251.342079" xlink:href="#m0d82afefe9" y="276.812"/>
      </g>
     </g>
     <g id="text_4">
      <!-- 300 -->
      <defs>
       <path d="M 40.578125 39.3125 
Q 47.65625 37.796875 51.625 33 
Q 55.609375 28.21875 55.609375 21.1875 
Q 55.609375 10.40625 48.1875 4.484375 
Q 40.765625 -1.421875 27.09375 -1.421875 
Q 22.515625 -1.421875 17.65625 -0.515625 
Q 12.796875 0.390625 7.625 2.203125 
L 7.625 11.71875 
Q 11.71875 9.328125 16.59375 8.109375 
Q 21.484375 6.890625 26.8125 6.890625 
Q 36.078125 6.890625 40.9375 10.546875 
Q 45.796875 14.203125 45.796875 21.1875 
Q 45.796875 27.640625 41.28125 31.265625 
Q 36.765625 34.90625 28.71875 34.90625 
L 20.21875 34.90625 
L 20.21875 43.015625 
L 29.109375 43.015625 
Q 36.375 43.015625 40.234375 45.921875 
Q 44.09375 48.828125 44.09375 54.296875 
Q 44.09375 59.90625 40.109375 62.90625 
Q 36.140625 65.921875 28.71875 65.921875 
Q 24.65625 65.921875 20.015625 65.03125 
Q 15.375 64.15625 9.8125 62.3125 
L 9.8125 71.09375 
Q 15.4375 72.65625 20.34375 73.4375 
Q 25.25 74.21875 29.59375 74.21875 
Q 40.828125 74.21875 47.359375 69.109375 
Q 53.90625 64.015625 53.90625 55.328125 
Q 53.90625 49.265625 50.4375 45.09375 
Q 46.96875 40.921875 40.578125 39.3125 
z
" id="DejaVuSans-33"/>
      </defs>
      <g transform="translate(241.798329 291.410437)scale(0.1 -0.1)">
       <use xlink:href="#DejaVuSans-33"/>
       <use x="63.623047" xlink:href="#DejaVuSans-30"/>
       <use x="127.246094" xlink:href="#DejaVuSans-30"/>
      </g>
     </g>
    </g>
    <g id="xtick_5">
     <g id="line2d_5">
      <g>
       <use style="stroke:#000000;stroke-width:0.8;" x="306.968248" xlink:href="#m0d82afefe9" y="276.812"/>
      </g>
     </g>
     <g id="text_5">
      <!-- 350 -->
      <g transform="translate(297.424498 291.410437)scale(0.1 -0.1)">
       <use xlink:href="#DejaVuSans-33"/>
       <use x="63.623047" xlink:href="#DejaVuSans-35"/>
       <use x="127.246094" xlink:href="#DejaVuSans-30"/>
      </g>
     </g>
    </g>
    <g id="xtick_6">
     <g id="line2d_6">
      <g>
       <use style="stroke:#000000;stroke-width:0.8;" x="362.594416" xlink:href="#m0d82afefe9" y="276.812"/>
      </g>
     </g>
     <g id="text_6">
      <!-- 400 -->
      <defs>
       <path d="M 37.796875 64.3125 
L 12.890625 25.390625 
L 37.796875 25.390625 
z
M 35.203125 72.90625 
L 47.609375 72.90625 
L 47.609375 25.390625 
L 58.015625 25.390625 
L 58.015625 17.1875 
L 47.609375 17.1875 
L 47.609375 0 
L 37.796875 0 
L 37.796875 17.1875 
L 4.890625 17.1875 
L 4.890625 26.703125 
z
" id="DejaVuSans-34"/>
      </defs>
      <g transform="translate(353.050666 291.410437)scale(0.1 -0.1)">
       <use xlink:href="#DejaVuSans-34"/>
       <use x="63.623047" xlink:href="#DejaVuSans-30"/>
       <use x="127.246094" xlink:href="#DejaVuSans-30"/>
      </g>
     </g>
    </g>
   </g>
   <g id="matplotlib.axis_2">
    <g id="ytick_1">
     <g id="line2d_7">
      <defs>
       <path d="M 0 0 
L -3.5 0 
" id="mead80357e1" style="stroke:#000000;stroke-width:0.8;"/>
      </defs>
      <g>
       <use style="stroke:#000000;stroke-width:0.8;" x="33.2875" xlink:href="#mead80357e1" y="252.237013"/>
      </g>
     </g>
     <g id="text_7">
      <!-- 250 -->
      <g transform="translate(7.2 256.036232)scale(0.1 -0.1)">
       <use xlink:href="#DejaVuSans-32"/>
       <use x="63.623047" xlink:href="#DejaVuSans-35"/>
       <use x="127.246094" xlink:href="#DejaVuSans-30"/>
      </g>
     </g>
    </g>
    <g id="ytick_2">
     <g id="line2d_8">
      <g>
       <use style="stroke:#000000;stroke-width:0.8;" x="33.2875" xlink:href="#mead80357e1" y="217.129889"/>
      </g>
     </g>
     <g id="text_8">
      <!-- 300 -->
      <g transform="translate(7.2 220.929108)scale(0.1 -0.1)">
       <use xlink:href="#DejaVuSans-33"/>
       <use x="63.623047" xlink:href="#DejaVuSans-30"/>
       <use x="127.246094" xlink:href="#DejaVuSans-30"/>
      </g>
     </g>
    </g>
    <g id="ytick_3">
     <g id="line2d_9">
      <g>
       <use style="stroke:#000000;stroke-width:0.8;" x="33.2875" xlink:href="#mead80357e1" y="182.022765"/>
      </g>
     </g>
     <g id="text_9">
      <!-- 350 -->
      <g transform="translate(7.2 185.821984)scale(0.1 -0.1)">
       <use xlink:href="#DejaVuSans-33"/>
       <use x="63.623047" xlink:href="#DejaVuSans-35"/>
       <use x="127.246094" xlink:href="#DejaVuSans-30"/>
      </g>
     </g>
    </g>
    <g id="ytick_4">
     <g id="line2d_10">
      <g>
       <use style="stroke:#000000;stroke-width:0.8;" x="33.2875" xlink:href="#mead80357e1" y="146.915641"/>
      </g>
     </g>
     <g id="text_10">
      <!-- 400 -->
      <g transform="translate(7.2 150.71486)scale(0.1 -0.1)">
       <use xlink:href="#DejaVuSans-34"/>
       <use x="63.623047" xlink:href="#DejaVuSans-30"/>
       <use x="127.246094" xlink:href="#DejaVuSans-30"/>
      </g>
     </g>
    </g>
    <g id="ytick_5">
     <g id="line2d_11">
      <g>
       <use style="stroke:#000000;stroke-width:0.8;" x="33.2875" xlink:href="#mead80357e1" y="111.808517"/>
      </g>
     </g>
     <g id="text_11">
      <!-- 450 -->
      <g transform="translate(7.2 115.607736)scale(0.1 -0.1)">
       <use xlink:href="#DejaVuSans-34"/>
       <use x="63.623047" xlink:href="#DejaVuSans-35"/>
       <use x="127.246094" xlink:href="#DejaVuSans-30"/>
      </g>
     </g>
    </g>
    <g id="ytick_6">
     <g id="line2d_12">
      <g>
       <use style="stroke:#000000;stroke-width:0.8;" x="33.2875" xlink:href="#mead80357e1" y="76.701393"/>
      </g>
     </g>
     <g id="text_12">
      <!-- 500 -->
      <g transform="translate(7.2 80.500612)scale(0.1 -0.1)">
       <use xlink:href="#DejaVuSans-35"/>
       <use x="63.623047" xlink:href="#DejaVuSans-30"/>
       <use x="127.246094" xlink:href="#DejaVuSans-30"/>
      </g>
     </g>
    </g>
    <g id="ytick_7">
     <g id="line2d_13">
      <g>
       <use style="stroke:#000000;stroke-width:0.8;" x="33.2875" xlink:href="#mead80357e1" y="41.594269"/>
      </g>
     </g>
     <g id="text_13">
      <!-- 550 -->
      <g transform="translate(7.2 45.393488)scale(0.1 -0.1)">
       <use xlink:href="#DejaVuSans-35"/>
       <use x="63.623047" xlink:href="#DejaVuSans-35"/>
       <use x="127.246094" xlink:href="#DejaVuSans-30"/>
      </g>
     </g>
    </g>
   </g>
   <g id="line2d_14">
    <path clip-path="url(#p152687600c)" d="M 188.446239 110.375024 
L 188.866892 110.582714 
L 189.385253 110.835036 
L 189.903739 111.083809 
L 190.422349 111.329035 
L 190.941085 111.570711 
L 191.459945 111.80884 
L 191.97893 112.04342 
L 192.498041 112.274453 
L 193.017276 112.501936 
L 193.536636 112.725872 
L 194.056121 112.946259 
L 194.575731 113.163098 
L 195.095466 113.376389 
L 195.615326 113.586131 
L 196.135311 113.792325 
L 196.65542 113.994971 
L 197.175655 114.194069 
L 197.696015 114.389618 
L 198.216499 114.581619 
L 198.737109 114.770072 
L 199.257843 114.954977 
L 199.778702 115.136333 
L 200.299687 115.314141 
L 200.820796 115.488401 
L 201.34203 115.659112 
L 201.863389 115.826275 
L 202.384873 115.98989 
L 202.906482 116.149957 
L 203.428216 116.306475 
L 203.950075 116.459445 
L 204.472059 116.608867 
L 204.994167 116.75474 
L 223.768623 121.871375 
L 224.288484 122.016765 
L 224.80789 122.165744 
L 225.239696 122.292691 
" style="fill:none;stroke:#dcdcdc;stroke-linecap:square;stroke-width:1.5;"/>
   </g>
   <g id="line2d_15">
    <path clip-path="url(#p152687600c)" d="M 188.446239 110.375024 
L 191.685265 107.61271 
L 195.104411 105.000674 
L 198.560323 102.667079 
L 207.172602 97.168725 
L 209.660854 95.263379 
L 211.415391 93.658813 
L 212.879922 92.038993 
L 214.054446 90.403922 
L 214.938965 88.753598 
L 215.533477 87.088021 
L 216.838516 82.245582 
L 217.744769 80.501181 
L 218.948348 78.741768 
L 220.449254 76.967342 
L 222.247487 75.177904 
L 224.343047 73.373455 
L 227.250191 71.188299 
L 230.584974 68.981552 
L 239.352694 63.328783 
L 242.587864 60.997199 
L 242.587864 60.997199 
" style="fill:none;stroke:#dcdcdc;stroke-linecap:square;stroke-width:1.5;"/>
   </g>
   <g id="line2d_16">
    <path clip-path="url(#p152687600c)" d="M 188.446239 110.375024 
L 188.346891 110.37698 
L 188.286342 110.377911 
L 187.819289 110.387141 
L 187.749983 110.388211 
L 187.558999 110.391999 
" style="fill:none;stroke:#dcdcdc;stroke-linecap:square;stroke-width:1.5;"/>
   </g>
   <g id="line2d_17">
    <defs>
     <path d="M 0 1.5 
C 0.397805 1.5 0.77937 1.341951 1.06066 1.06066 
C 1.341951 0.77937 1.5 0.397805 1.5 0 
C 1.5 -0.397805 1.341951 -0.77937 1.06066 -1.06066 
C 0.77937 -1.341951 0.397805 -1.5 0 -1.5 
C -0.397805 -1.5 -0.77937 -1.341951 -1.06066 -1.06066 
C -1.341951 -0.77937 -1.5 -0.397805 -1.5 0 
C -1.5 0.397805 -1.341951 0.77937 -1.06066 1.06066 
C -0.77937 1.341951 -0.397805 1.5 0 1.5 
z
" id="m229f31b4ed" style="stroke:#00bfbf;"/>
    </defs>
    <g clip-path="url(#p152687600c)">
     <use style="fill:#00bfbf;stroke:#00bfbf;" x="188.446239" xlink:href="#m229f31b4ed" y="110.375024"/>
    </g>
   </g>
   <g id="line2d_18">
    <path clip-path="url(#p152687600c)" d="M 225.181515 172.348792 
L 224.711002 166.706686 
L 224.670791 165.042332 
L 225.733754 134.141578 
L 225.239696 122.292691 
L 225.239696 122.292691 
" style="fill:none;stroke:#dcdcdc;stroke-linecap:square;stroke-width:1.5;"/>
   </g>
   <g id="line2d_19">
    <path clip-path="url(#p152687600c)" d="M 225.181515 172.348792 
L 225.487854 172.473251 
L 226.00041 172.676274 
L 226.513594 172.874335 
L 227.027407 173.067435 
L 227.54185 173.255574 
L 228.056921 173.438751 
L 228.572621 173.616967 
L 229.08895 173.790221 
L 229.605907 173.958513 
L 230.123494 174.121845 
L 230.64171 174.280214 
L 231.160554 174.433623 
L 231.680027 174.58207 
L 232.20013 174.725555 
L 232.720861 174.864079 
L 233.242221 174.997641 
L 233.76421 175.126242 
L 234.286828 175.249882 
L 234.810075 175.36856 
L 235.33395 175.482277 
L 235.858455 175.591032 
L 236.383589 175.694825 
L 236.909351 175.793658 
L 237.435742 175.887529 
L 237.962763 175.976438 
L 238.490412 176.060386 
L 239.01869 176.139372 
L 239.547597 176.213397 
L 240.077132 176.282461 
L 240.607297 176.346563 
L 241.138091 176.405703 
L 241.669513 176.459882 
L 242.201565 176.5091 
L 242.734245 176.553356 
L 243.267554 176.592651 
L 243.801493 176.626984 
L 244.33606 176.656356 
L 244.871256 176.680767 
L 245.213366 176.693184 
L 245.406857 176.701976 
L 245.73931 176.713988 
L 245.942459 176.723184 
L 246.265254 176.734794 
L 246.478061 176.744391 
L 246.791198 176.755601 
L 247.013663 176.765596 
L 247.317142 176.77641 
L 247.549266 176.786799 
L 247.843086 176.79722 
L 248.084869 176.808 
L 248.36903 176.818032 
L 248.894791 176.841385 
L 249.420207 176.869516 
L 249.94528 176.902427 
L 250.470008 176.940116 
L 250.994392 176.982585 
L 251.518432 177.029833 
L 252.042127 177.08186 
L 252.565479 177.138666 
L 253.088486 177.200251 
L 253.611149 177.266616 
L 254.133468 177.337759 
L 254.655442 177.413681 
L 255.177073 177.494383 
L 255.698359 177.579864 
L 256.219301 177.670123 
L 256.739899 177.765162 
L 257.260152 177.86498 
L 257.780062 177.969577 
L 258.299627 178.078953 
L 258.818848 178.193109 
L 259.337725 178.312043 
L 259.856258 178.435756 
L 260.374446 178.564249 
L 260.89229 178.69752 
L 261.40979 178.835571 
L 261.926946 178.978401 
L 262.443758 179.12601 
L 262.960225 179.278398 
L 263.476349 179.435565 
L 263.992128 179.597511 
L 264.507562 179.764236 
L 265.022653 179.935741 
L 265.5374 180.112024 
L 266.051802 180.293087 
L 266.56586 180.478928 
L 267.079574 180.669549 
L 267.592944 180.864949 
L 268.105969 181.065128 
L 268.61865 181.270086 
L 269.130987 181.479823 
L 269.64298 181.694339 
L 270.154629 181.913635 
L 270.665934 182.137709 
L 271.176894 182.366563 
L 271.68751 182.600195 
L 272.197782 182.838607 
L 272.70771 183.081798 
L 273.217293 183.329768 
L 273.726532 183.582517 
L 274.235428 183.840045 
L 274.743979 184.102352 
L 275.252185 184.369438 
L 275.760048 184.641304 
L 276.267566 184.917948 
L 276.77474 185.199372 
L 277.28157 185.485575 
L 277.788056 185.776556 
L 278.294198 186.072317 
L 278.799995 186.372857 
L 279.305448 186.678176 
L 279.810557 186.988274 
L 280.315322 187.303152 
L 280.819742 187.622808 
L 281.323819 187.947244 
L 281.827551 188.276458 
L 282.330939 188.610452 
L 282.490548 188.71794 
" style="fill:none;stroke:#dcdcdc;stroke-linecap:square;stroke-width:1.5;"/>
   </g>
   <g id="line2d_20">
    <path clip-path="url(#p152687600c)" d="M 225.181515 172.348792 
L 224.95427 172.436124 
L 224.389158 172.647728 
L 223.824788 172.853474 
L 223.26116 173.053361 
L 222.698276 173.24739 
L 222.136133 173.435561 
L 221.574734 173.617873 
L 221.014077 173.794327 
L 203.238086 179.210343 
L 202.707109 179.377637 
L 202.176132 179.550447 
L 201.645155 179.728771 
L 201.114178 179.912611 
L 200.583201 180.101966 
L 200.052224 180.296836 
L 199.521247 180.497221 
L 198.99027 180.703121 
L 198.459293 180.914537 
L 197.928316 181.131468 
L 197.397339 181.353914 
L 196.866362 181.581875 
L 196.335384 181.815352 
L 195.804407 182.054343 
L 195.27343 182.29885 
L 194.742453 182.548872 
L 194.211476 182.804409 
L 193.680499 183.065461 
L 193.149522 183.332029 
L 192.618545 183.604111 
L 192.087568 183.881709 
L 191.556591 184.164822 
L 191.025614 184.453451 
L 190.494637 184.747594 
L 189.96366 185.047253 
L 189.432683 185.352427 
L 188.901706 185.663116 
L 188.370729 185.97932 
L 187.839751 186.301039 
L 187.765277 186.346937 
L 187.308774 186.623498 
L 187.229241 186.672494 
L 186.777797 186.945958 
L 186.693204 186.998051 
L 186.24682 187.268419 
L 186.157166 187.323608 
L 185.715843 187.590881 
L 185.621127 187.649165 
L 185.184866 187.913343 
L 185.085086 187.974722 
L 184.653889 188.235806 
L 184.549044 188.300279 
L 184.122912 188.55827 
L 184.013001 188.625835 
L 183.591935 188.880734 
L 183.476957 188.951392 
L 183.060958 189.2032 
L 182.940912 189.276949 
L 182.529981 189.525665 
L 182.404867 189.602505 
L 181.999004 189.848132 
L 181.947807 189.879566 
" style="fill:none;stroke:#dcdcdc;stroke-linecap:square;stroke-width:1.5;"/>
   </g>
   <g id="line2d_21">
    <g clip-path="url(#p152687600c)">
     <use style="fill:#00bfbf;stroke:#00bfbf;" x="225.181515" xlink:href="#m229f31b4ed" y="172.348792"/>
    </g>
   </g>
   <g id="line2d_22">
    <path clip-path="url(#p152687600c)" d="M 282.36713 191.012288 
L 282.691091 191.104826 
L 283.843573 191.440633 
L 284.972921 191.77644 
L 286.079135 192.112247 
L 287.162215 192.448055 
L 288.222162 192.783862 
L 289.258975 193.119669 
L 290.272654 193.455476 
L 291.263199 193.791284 
L 292.230611 194.127091 
L 293.174889 194.462898 
L 294.096033 194.798706 
L 294.994043 195.134513 
L 295.86892 195.47032 
L 296.720663 195.806127 
L 297.549272 196.141935 
L 298.354747 196.477742 
L 299.137089 196.813549 
L 299.896297 197.149356 
L 300.632371 197.485164 
L 301.345311 197.820971 
L 302.035118 198.156778 
L 302.70179 198.492586 
L 303.345329 198.828393 
L 303.965735 199.1642 
L 304.563006 199.500007 
L 305.137144 199.835815 
L 305.688148 200.171622 
L 306.216018 200.507429 
L 306.720755 200.843236 
L 307.202357 201.179044 
L 307.660826 201.514851 
L 308.096162 201.850658 
L 308.120239 201.870273 
L 308.534338 202.186466 
L 308.636628 202.269152 
L 308.971859 202.522273 
L 309.153161 202.667575 
L 309.408609 202.85808 
L 309.669861 203.065472 
L 309.84444 203.193887 
L 310.186755 203.462758 
L 310.279166 203.529695 
L 310.703876 203.859328 
L 310.712548 203.865502 
L 311.151084 204.201309 
L 311.22016 204.258536 
L 311.589595 204.537116 
L 311.736499 204.657572 
L 312.027176 204.872924 
L 312.25305 205.05594 
L 312.463566 205.208731 
L 312.88383 205.544538 
L 313.261681 205.880346 
L 313.59712 206.216153 
L 313.890148 206.55196 
L 314.140764 206.887767 
L 314.348967 207.223575 
L 314.514759 207.559382 
L 314.638139 207.895189 
L 314.719108 208.230996 
L 314.757664 208.566804 
L 314.753808 208.902611 
L 314.707541 209.238418 
L 314.686129 209.319498 
L 314.640051 209.719364 
L 314.651571 210.1265 
L 314.720688 210.540907 
L 314.847403 210.962584 
L 315.031716 211.391531 
L 315.273627 211.827749 
L 315.573135 212.271237 
L 315.930241 212.721995 
L 317.060243 213.970048 
L 317.459809 214.450928 
L 317.850791 214.961901 
L 318.233192 215.502966 
L 318.585245 216.040871 
" style="fill:none;stroke:#dcdcdc;stroke-linecap:square;stroke-width:1.5;"/>
   </g>
   <g id="line2d_23">
    <path clip-path="url(#p152687600c)" d="M 282.36713 191.012288 
L 282.389388 190.769018 
L 282.416136 190.433211 
L 282.438908 190.097404 
L 282.457704 189.761596 
L 282.472524 189.425789 
L 282.483368 189.089982 
L 282.490236 188.754175 
L 282.490548 188.71794 
" style="fill:none;stroke:#dcdcdc;stroke-linecap:square;stroke-width:1.5;"/>
   </g>
   <g id="line2d_24">
    <path clip-path="url(#p152687600c)" d="M 282.36713 191.012288 
L 282.219386 191.188787 
L 281.954462 191.511153 
L 281.694167 191.833869 
L 281.4385 192.156935 
L 281.187462 192.480352 
L 280.941052 192.80412 
L 280.69927 193.128238 
L 280.462116 193.452707 
L 280.229591 193.777526 
L 280.001694 194.102696 
L 279.778425 194.428216 
L 279.559784 194.754086 
L 279.345772 195.080308 
L 279.136388 195.406879 
L 278.931633 195.733802 
L 278.731505 196.061075 
L 278.536006 196.388698 
L 278.345135 196.716672 
L 278.158893 197.044996 
L 277.977279 197.373671 
L 277.800293 197.702696 
L 277.649302 197.991241 
" style="fill:none;stroke:#dcdcdc;stroke-linecap:square;stroke-width:1.5;"/>
   </g>
   <g id="line2d_25">
    <g clip-path="url(#p152687600c)">
     <use style="fill:#00bfbf;stroke:#00bfbf;" x="282.36713" xlink:href="#m229f31b4ed" y="191.012288"/>
    </g>
   </g>
   <g id="line2d_26">
    <path clip-path="url(#p152687600c)" d="M 282.490548 188.71794 
L 282.867045 188.49016 
L 282.987502 188.418367 
L 283.418439 188.157599 
L 283.544348 188.08256 
L 283.969833 187.825038 
L 284.101194 187.746753 
L 284.521228 187.492477 
L 284.65804 187.410946 
L 285.072622 187.159915 
L 285.214887 187.075138 
L 285.624016 186.827353 
L 285.771734 186.739331 
L 286.17541 186.494791 
L 286.328581 186.403524 
L 286.726804 186.162229 
L 287.277895 185.833876 
L 287.828567 185.511346 
L 288.378819 185.19464 
L 288.928652 184.883757 
L 289.478066 184.578697 
L 290.02706 184.27946 
L 290.575635 183.986047 
L 291.12379 183.698457 
L 291.671526 183.41669 
L 292.218842 183.140747 
L 292.765739 182.870626 
L 293.312217 182.60633 
L 310.294514 174.567852 
L 310.727035 174.357431 
L 311.156587 174.142728 
L 311.58317 173.923741 
L 312.006783 173.70047 
L 312.427427 173.472916 
L 312.845102 173.241079 
L 313.259808 173.004958 
L 313.671544 172.764555 
L 314.080312 172.519867 
L 314.486109 172.270897 
L 314.888938 172.017642 
L 315.288797 171.760105 
L 315.685688 171.498284 
L 315.786535 171.430159 
" style="fill:none;stroke:#dcdcdc;stroke-linecap:square;stroke-width:1.5;"/>
   </g>
   <g id="line2d_27">
    <g clip-path="url(#p152687600c)">
     <use style="fill:#00bfbf;stroke:#00bfbf;" x="282.490548" xlink:href="#m229f31b4ed" y="188.71794"/>
    </g>
   </g>
   <g id="line2d_28">
    <path clip-path="url(#p152687600c)" d="M 227.421814 242.773435 
L 231.641419 244.682057 
L 236.328899 246.55662 
L 241.018208 248.173635 
L 245.709347 249.533104 
L 250.402316 250.635025 
L 254.575381 251.398299 
L 258.749891 251.958078 
L 262.925847 252.314364 
L 267.103249 252.467155 
L 271.282097 252.416453 
L 275.985 252.120194 
L 280.168803 251.780088 
L 288.218502 245.060377 
L 290.772976 243.35574 
L 293.421191 241.872965 
L 296.163148 240.612051 
L 298.998848 239.572999 
L 301.92829 238.755809 
L 305.448386 238.044807 
L 340.354732 231.302291 
L 343.23026 230.415519 
L 345.528252 229.493561 
L 347.736897 228.405255 
L 349.856196 227.150602 
L 351.886149 225.729602 
L 352.849004 224.970751 
L 350.851454 223.455797 
L 348.58602 221.989695 
L 346.258914 220.739832 
L 343.870135 219.706208 
L 341.419684 218.888824 
L 338.907561 218.287678 
L 336.333765 217.902772 
L 320.955613 216.291486 
L 318.585245 216.040871 
L 318.585245 216.040871 
" style="fill:none;stroke:#dcdcdc;stroke-linecap:square;stroke-width:1.5;"/>
   </g>
   <g id="line2d_29">
    <path clip-path="url(#p152687600c)" d="M 227.421814 242.773435 
L 226.952747 242.975422 
L 226.428854 243.198012 
L 225.904983 243.417589 
L 225.381134 243.634152 
L 224.857305 243.847701 
L 224.333499 244.058236 
L 223.809713 244.265757 
L 223.285949 244.470265 
L 222.762207 244.671759 
L 222.238485 244.870239 
L 221.714786 245.065705 
L 221.191107 245.258157 
L 220.66745 245.447596 
L 220.143815 245.63402 
L 219.620201 245.817431 
L 219.096608 245.997828 
L 218.573037 246.175211 
L 218.049487 246.34958 
L 217.525958 246.520936 
L 217.002451 246.689278 
" style="fill:none;stroke:#dcdcdc;stroke-linecap:square;stroke-width:1.5;"/>
   </g>
   <g id="line2d_30">
    <path clip-path="url(#p152687600c)" d="M 227.421814 242.773435 
L 227.926508 235.128817 
L 227.952445 234.790398 
L 227.981964 234.452159 
L 228.006054 234.206135 
L 228.014092 234.114053 
L 228.03811 233.868836 
L 228.046221 233.775946 
L 228.070165 233.531536 
L 228.078349 233.437839 
L 228.102221 233.194237 
L 228.110478 233.099732 
L 228.134277 232.856937 
L 228.142606 232.761626 
L 228.166332 232.519638 
L 228.174734 232.423519 
L 228.198388 232.182339 
L 228.206863 232.085412 
L 228.230443 231.845039 
L 228.238991 231.747305 
L 228.262499 231.50774 
L 228.27112 231.409198 
L 228.294555 231.170441 
L 228.303248 231.071092 
L 228.32661 230.833141 
L 228.335377 230.732985 
L 228.336688 230.719637 
" style="fill:none;stroke:#dcdcdc;stroke-linecap:square;stroke-width:1.5;"/>
   </g>
   <g id="line2d_31">
    <g clip-path="url(#p152687600c)">
     <use style="fill:#00bfbf;stroke:#00bfbf;" x="227.421814" xlink:href="#m229f31b4ed" y="242.773435"/>
    </g>
   </g>
   <g id="line2d_32">
    <path clip-path="url(#p152687600c)" d="M 181.947807 189.879566 
L 181.948098 189.929987 
L 181.947331 190.064215 
L 181.94851 190.268565 
L 181.947743 190.402313 
L 181.948922 190.607144 
L 181.948155 190.740411 
L 181.949334 190.945723 
L 181.948566 191.078509 
L 181.949745 191.284301 
L 181.948978 191.416608 
L 181.950157 191.62288 
L 181.94939 191.754706 
L 181.950569 191.961459 
L 181.949802 192.092804 
L 181.950923 192.290028 
" style="fill:none;stroke:#dcdcdc;stroke-linecap:square;stroke-width:1.5;"/>
   </g>
   <g id="line2d_33">
    <path clip-path="url(#p152687600c)" d="M 181.947807 189.879566 
L 165.538715 180.087427 
L 162.352853 178.562528 
L 159.16699 177.287971 
L 157.043082 176.577345 
L 147.503885 173.58952 
L 109.750585 160.43783 
L 107.099868 159.3177 
L 105.680038 158.52572 
L 105.146796 156.770303 
L 104.841158 155.04127 
L 104.763122 153.338621 
L 104.91269 151.662356 
L 105.289861 150.012475 
L 105.894636 148.388978 
L 106.727013 146.791865 
L 107.786994 145.221136 
L 109.074579 143.676791 
L 121.09957 130.620108 
L 146.111729 126.595505 
L 157.780356 124.962746 
L 160.970388 124.208359 
L 164.168784 123.216439 
L 167.375543 121.986985 
L 170.590667 120.519999 
L 173.814153 118.815479 
L 177.584671 116.549027 
L 187.558999 110.391999 
L 187.558999 110.391999 
" style="fill:none;stroke:#dcdcdc;stroke-linecap:square;stroke-width:1.5;"/>
   </g>
   <g id="line2d_34">
    <g clip-path="url(#p152687600c)">
     <use style="fill:#00bfbf;stroke:#00bfbf;" x="181.947807" xlink:href="#m229f31b4ed" y="189.879566"/>
    </g>
   </g>
   <g id="line2d_35">
    <path clip-path="url(#p152687600c)" d="M 181.950923 192.290028 
L 181.718442 192.436753 
L 181.160397 192.78895 
L 180.602353 193.141146 
L 180.044308 193.493343 
L 179.486263 193.845539 
L 178.928219 194.197736 
L 178.370174 194.549932 
L 177.81213 194.902129 
L 177.254085 195.254325 
L 176.696041 195.606522 
L 176.137996 195.958718 
L 175.579951 196.310915 
L 175.021907 196.663111 
L 174.463862 197.015307 
L 173.905818 197.367504 
L 173.347773 197.7197 
L 172.789729 198.071897 
L 172.231684 198.424093 
L 171.673639 198.77629 
L 171.115595 199.128486 
L 170.55755 199.480683 
L 169.999506 199.832879 
L 169.441966 200.177107 
L 168.884932 200.513367 
L 168.328402 200.841659 
L 167.772378 201.161983 
L 167.216858 201.474338 
L 166.661844 201.778725 
L 166.107334 202.075144 
L 165.55333 202.363594 
L 164.99983 202.644076 
L 164.446836 202.91659 
L 163.894347 203.181136 
L 163.342362 203.437714 
L 156.221332 206.647905 
" style="fill:none;stroke:#dcdcdc;stroke-linecap:square;stroke-width:1.5;"/>
   </g>
   <g id="line2d_36">
    <path clip-path="url(#p152687600c)" d="M 181.950923 192.290028 
L 181.966252 192.300408 
L 182.25043 192.495679 
L 182.480502 192.65146 
L 182.763935 192.846241 
L 182.994752 193.002511 
L 183.277439 193.196804 
L 183.509003 193.353563 
L 183.790944 193.547367 
L 184.023254 193.704615 
L 184.304448 193.897931 
L 184.537505 194.055666 
L 184.817953 194.248494 
L 185.051758 194.406718 
L 185.331457 194.599058 
L 185.56601 194.75777 
L 185.844961 194.949623 
L 186.080263 195.108822 
L 186.358466 195.300188 
L 186.594517 195.459873 
L 186.87197 195.650753 
L 187.108772 195.810925 
L 187.385475 196.001319 
L 187.623027 196.161977 
L 187.898979 196.351885 
L 188.137283 196.513029 
L 188.412483 196.702451 
L 188.651539 196.86408 
L 188.925988 197.053018 
L 189.165796 197.215132 
L 189.439492 197.403585 
L 189.680054 197.566184 
L 189.952996 197.754153 
L 190.194313 197.917236 
L 190.4665 198.104722 
L 190.708573 198.268288 
L 190.980004 198.455291 
L 191.222834 198.61934 
L 191.732096 198.97027 
L 192.230782 199.320944 
L 192.718892 199.671361 
L 193.196426 200.021522 
L 193.663385 200.371425 
L 194.119768 200.721072 
L 194.565575 201.070463 
L 195.000806 201.419596 
L 195.425462 201.768473 
L 195.839542 202.117093 
L 196.243047 202.465457 
L 196.635975 202.813563 
L 197.018328 203.161413 
L 197.390105 203.509006 
L 197.751307 203.856343 
L 198.101933 204.203423 
L 198.441983 204.550246 
L 210.189412 216.907094 
L 210.539544 217.264501 
L 210.90055 217.622457 
L 211.27243 217.980962 
L 211.655183 218.340017 
L 212.04881 218.69962 
L 212.45331 219.059772 
L 212.868685 219.420473 
L 213.294932 219.781723 
L 213.732054 220.143523 
L 214.180049 220.505871 
L 214.638918 220.868768 
L 215.108661 221.232214 
L 215.589277 221.59621 
L 216.080767 221.960754 
L 216.58313 222.325847 
L 217.031185 222.645052 
L 217.095018 222.691422 
L 217.540233 223.008585 
L 217.606906 223.056996 
L 218.049281 223.372117 
L 218.118796 223.42257 
L 218.558329 223.735651 
L 218.630685 223.788144 
L 219.067377 224.099184 
L 219.142576 224.153719 
L 219.576425 224.462718 
L 219.654467 224.519293 
L 220.085473 224.826253 
L 220.166358 224.884867 
L 220.594521 225.189787 
L 220.678251 225.250442 
L 221.103569 225.553322 
L 221.190143 225.616016 
L 221.612617 225.916858 
L 221.702036 225.981591 
L 222.121665 226.280393 
L 222.21393 226.347165 
L 222.630713 226.643929 
L 222.725824 226.71274 
L 223.139761 227.007465 
L 223.237718 227.078314 
L 223.648808 227.371002 
L 223.749613 227.443889 
L 224.157856 227.734539 
L 224.261508 227.809463 
L 224.666904 228.098076 
L 224.773404 228.175038 
L 225.175952 228.461613 
L 225.285299 228.540613 
L 225.684999 228.82515 
L 225.797196 228.906187 
L 226.194047 229.188688 
L 226.309092 229.271762 
L 226.703095 229.552225 
L 226.820989 229.637337 
L 227.212143 229.915763 
L 227.332886 230.002911 
L 227.72119 230.279301 
L 227.844783 230.368486 
L 228.230238 230.64284 
L 228.336688 230.719637 
" style="fill:none;stroke:#dcdcdc;stroke-linecap:square;stroke-width:1.5;"/>
   </g>
   <g id="line2d_37">
    <g clip-path="url(#p152687600c)">
     <use style="fill:#00bfbf;stroke:#00bfbf;" x="181.950923" xlink:href="#m229f31b4ed" y="192.290028"/>
    </g>
   </g>
   <g id="line2d_38">
    <path clip-path="url(#p152687600c)" d="M 277.649302 197.991241 
L 277.867661 198.273729 
L 278.27575 198.790804 
L 278.685839 199.299603 
L 279.097929 199.800125 
L 279.51202 200.29237 
L 279.92811 200.776339 
L 280.346202 201.252031 
L 280.766293 201.719447 
L 281.188385 202.178586 
L 281.612478 202.629449 
L 282.038571 203.072035 
L 282.466664 203.506344 
L 282.896758 203.932377 
L 283.328852 204.350133 
L 283.762947 204.759613 
L 284.199042 205.160816 
L 284.601863 205.522105 
L 284.63694 205.554561 
L 285.074642 205.949114 
L 285.125668 205.993905 
L 285.512214 206.344208 
L 285.650082 206.465781 
L 285.949859 206.738996 
L 286.173983 206.937593 
L 286.387586 207.133447 
L 286.697328 207.409335 
L 286.825403 207.527526 
L 287.220067 207.881 
L 287.263321 207.921191 
L 287.701065 208.315571 
L 287.743682 208.352776 
L 288.138597 208.710829 
L 288.268329 208.824682 
L 288.576214 209.105734 
L 288.792376 209.296512 
L 289.013927 209.500242 
L 289.452802 209.889945 
L 289.89442 210.2683 
L 290.33878 210.635305 
L 290.785884 210.990962 
L 291.235731 211.33527 
L 291.68832 211.668229 
L 292.143653 211.98984 
L 292.601728 212.300102 
L 293.062547 212.599015 
L 293.526108 212.88658 
L 293.992412 213.162796 
L 294.46146 213.427663 
L 294.93325 213.681181 
L 295.407783 213.923351 
L 295.885059 214.154172 
L 296.365079 214.373644 
L 296.847841 214.581768 
L 297.333346 214.778543 
L 297.821594 214.963969 
L 298.312585 215.138047 
L 298.806319 215.300776 
L 299.302796 215.452156 
L 299.802016 215.592187 
L 300.303979 215.72087 
L 300.808685 215.838204 
L 301.316134 215.944189 
L 301.826326 216.038826 
L 302.339261 216.122114 
L 302.854938 216.194053 
L 303.373359 216.254644 
L 303.556438 216.271942 
L 303.892393 216.312697 
L 304.177388 216.340864 
L 304.411533 216.370314 
L 304.7982 216.410222 
L 304.930778 216.427492 
L 305.418874 216.480015 
L 305.450131 216.484228 
L 305.969142 216.542375 
L 306.039897 216.548709 
L 306.488058 216.600914 
L 306.660999 216.617151 
L 307.007081 216.659015 
L 307.281963 216.686029 
L 307.52621 216.716675 
L 307.902789 216.755346 
L 308.045446 216.773892 
L 308.523474 216.825103 
L 308.56479 216.830663 
L 309.083855 216.888589 
L 309.60571 216.934969 
L 310.130356 216.969803 
L 310.657793 216.99309 
L 311.188021 217.004832 
L 311.721039 217.005028 
L 312.256848 216.993677 
L 312.795447 216.970781 
L 313.336837 216.936338 
L 313.881018 216.89035 
L 314.427989 216.832815 
L 314.977752 216.763735 
L 315.530304 216.683108 
L 316.085648 216.590935 
L 316.643782 216.487216 
L 317.204707 216.371951 
L 317.768422 216.24514 
L 318.334928 216.106783 
L 318.585245 216.040871 
" style="fill:none;stroke:#dcdcdc;stroke-linecap:square;stroke-width:1.5;"/>
   </g>
   <g id="line2d_39">
    <path clip-path="url(#p152687600c)" d="M 277.649302 197.991241 
L 277.572499 198.027874 
L 277.370301 198.126 
L 276.956099 198.32362 
L 276.767315 198.41529 
L 276.339704 198.619367 
L 276.164329 198.704577 
L 275.723314 198.915114 
L 275.561344 198.99386 
L 275.106931 199.210862 
L 274.958361 199.28314 
L 274.490553 199.50661 
L 274.355378 199.572416 
L 273.874181 199.802358 
L 273.752396 199.861687 
L 273.257816 200.098107 
L 272.64986 200.394493 
L 272.05232 200.691668 
L 271.465198 200.989632 
L 270.888494 201.288384 
L 270.322206 201.587926 
L 269.766336 201.888257 
L 269.220884 202.189376 
L 268.685849 202.491285 
L 268.161231 202.793982 
L 267.64703 203.097469 
L 267.143247 203.401744 
L 266.649881 203.706808 
L 266.166933 204.012662 
L 265.694401 204.319304 
L 265.232288 204.626735 
L 264.780591 204.934955 
L 264.339312 205.243965 
L 263.90845 205.553763 
L 263.488006 205.86435 
L 263.077979 206.175726 
L 262.678369 206.487891 
L 262.289177 206.800845 
L 261.910402 207.114588 
L 249.734696 217.511136 
L 249.339221 217.839261 
L 248.932869 218.167111 
L 248.515641 218.494687 
L 248.087536 218.821988 
L 247.648555 219.149015 
L 247.198696 219.475767 
L 246.737962 219.802244 
L 246.26635 220.128447 
L 245.783862 220.454375 
L 245.290497 220.780028 
L 244.786256 221.105407 
L 244.271138 221.430512 
L 243.745143 221.755342 
L 243.208272 222.079897 
L 242.660524 222.404178 
L 242.128851 222.712551 
L 242.102412 222.728197 
L 241.572509 223.03553 
L 241.5443 223.052216 
L 241.016167 223.358509 
L 240.986188 223.376235 
L 240.459826 223.681489 
L 240.428075 223.700254 
L 239.903484 224.004469 
L 239.869961 224.024273 
L 239.347142 224.327449 
L 239.311848 224.348292 
L 238.7908 224.650429 
L 238.753733 224.672311 
L 238.234458 224.97341 
L 238.195619 224.99633 
L 237.678116 225.296391 
L 237.637504 225.320349 
L 237.121774 225.619372 
L 237.079389 225.644368 
L 236.565432 225.942353 
L 236.521273 225.968387 
L 236.00909 226.265334 
L 235.963157 226.292406 
L 235.452748 226.588316 
L 235.405041 226.616425 
L 234.896406 226.911298 
L 234.846925 226.940444 
L 234.340064 227.23428 
L 234.288808 227.264463 
L 233.783722 227.557262 
L 233.730691 227.588481 
L 233.22738 227.880244 
L 233.172574 227.9125 
L 232.671038 228.203227 
L 232.614456 228.236519 
L 232.114695 228.526209 
L 232.056339 228.560538 
L 231.558353 228.849192 
L 231.498221 228.884557 
L 231.002011 229.172175 
L 230.940103 229.208576 
L 230.445669 229.495158 
L 230.381985 229.532595 
L 229.889327 229.818141 
L 229.823866 229.856614 
L 229.332985 230.141124 
L 229.265748 230.180633 
L 228.776643 230.464108 
L 228.707629 230.504652 
L 228.336688 230.719637 
" style="fill:none;stroke:#dcdcdc;stroke-linecap:square;stroke-width:1.5;"/>
   </g>
   <g id="line2d_40">
    <g clip-path="url(#p152687600c)">
     <use style="fill:#00bfbf;stroke:#00bfbf;" x="277.649302" xlink:href="#m229f31b4ed" y="197.991241"/>
    </g>
   </g>
   <g id="line2d_41">
    <path clip-path="url(#p152687600c)" d="M 315.300805 121.66636 
L 333.936598 128.321577 
L 335.121715 136.116138 
L 335.602655 137.508692 
L 340.251254 147.945651 
L 341.155061 150.032374 
L 341.400159 151.038778 
L 341.454789 152.045182 
L 341.318952 153.051586 
L 340.992646 154.057991 
L 340.475872 155.064395 
L 339.490556 156.406267 
L 334.562957 161.773756 
L 327.527714 169.390907 
L 324.064173 170.235042 
L 320.467244 170.886755 
L 316.736927 171.346047 
L 315.786535 171.430159 
L 315.786535 171.430159 
" style="fill:none;stroke:#dcdcdc;stroke-linecap:square;stroke-width:1.5;"/>
   </g>
   <g id="line2d_42">
    <path clip-path="url(#p152687600c)" d="M 315.300805 121.66636 
L 308.337635 114.830256 
L 308.050473 114.801198 
L 307.516979 114.749874 
L 306.983716 114.701237 
L 306.450686 114.655285 
L 305.917888 114.612019 
L 305.385321 114.571439 
L 304.852988 114.533545 
L 304.320886 114.498336 
L 303.789016 114.465814 
L 303.257378 114.435977 
L 302.725973 114.408826 
L 302.1948 114.384361 
L 301.663858 114.362581 
L 301.133149 114.343488 
L 300.602672 114.32708 
L 300.072427 114.313358 
L 299.542415 114.302321 
L 299.012634 114.293971 
L 296.322764 114.265197 
L 295.790716 114.256783 
L 295.258766 114.245645 
L 294.726914 114.231785 
L 294.19516 114.215203 
L 293.663504 114.195899 
L 293.131946 114.173872 
L 292.600486 114.149122 
L 292.069124 114.12165 
L 291.53786 114.091456 
L 291.006694 114.058539 
L 290.475626 114.022899 
L 289.944656 113.984538 
L 289.413785 113.943453 
L 288.883011 113.899647 
L 288.352335 113.853117 
L 287.821757 113.803866 
L 287.291278 113.751892 
L 286.760896 113.697195 
L 286.230613 113.639776 
L 285.700427 113.579635 
L 285.17034 113.516771 
L 284.905047 113.483941 
" style="fill:none;stroke:#dcdcdc;stroke-linecap:square;stroke-width:1.5;"/>
   </g>
   <g id="line2d_43">
    <path clip-path="url(#p152687600c)" d="M 315.300805 121.66636 
L 315.020024 122.347395 
L 314.724983 123.034933 
L 314.424268 123.708147 
L 314.117879 124.367038 
L 313.805816 125.011604 
L 313.48808 125.641847 
L 313.164669 126.257767 
L 312.835585 126.859362 
L 312.500826 127.446634 
L 312.160394 128.019583 
L 311.814288 128.578207 
L 311.462508 129.122508 
L 311.105055 129.652485 
L 310.741927 130.168139 
L 310.373125 130.669468 
L 309.99865 131.156474 
L 309.618501 131.629157 
L 309.232678 132.087515 
L 308.841181 132.53155 
L 308.44401 132.961262 
L 308.041165 133.376649 
L 307.632647 133.777713 
L 307.218454 134.164453 
L 306.798588 134.536869 
L 305.907463 135.286752 
L 305.538983 135.614342 
L 305.190974 135.942219 
L 304.863436 136.270384 
L 304.556369 136.598835 
L 304.269774 136.927574 
L 304.003649 137.256599 
L 303.757996 137.585912 
L 303.532813 137.915512 
L 303.328102 138.245399 
L 303.143862 138.575573 
L 302.980093 138.906034 
L 302.836795 139.236783 
L 302.713969 139.567818 
L 302.611613 139.89914 
L 302.529729 140.23075 
L 302.468315 140.562647 
L 302.427373 140.894831 
L 302.406902 141.227302 
L 302.406902 141.56006 
L 302.427373 141.893105 
L 302.468315 142.226437 
L 302.529729 142.560056 
L 302.611613 142.893963 
L 302.67213 143.091553 
L 302.705492 143.228038 
L 302.767926 143.433033 
L 302.799378 143.562112 
L 302.863715 143.774514 
L 302.893272 143.896187 
L 302.959498 144.115998 
L 302.987172 144.230262 
L 303.055275 144.457482 
L 303.081078 144.564337 
L 303.151046 144.798969 
L 303.174991 144.898413 
L 303.246811 145.140456 
L 303.26891 145.232488 
L 303.34257 145.481945 
L 303.362834 145.566563 
L 303.438325 145.823436 
L 303.456764 145.900639 
L 303.534074 146.164927 
L 303.550699 146.234714 
L 303.629818 146.50642 
L 303.644639 146.56879 
L 303.725558 146.847914 
L 303.738584 146.902865 
L 303.821293 147.189409 
L 303.832534 147.236941 
L 303.917024 147.530905 
L 303.926488 147.571017 
L 304.012751 147.872402 
L 304.020446 147.905093 
L 304.108474 148.2139 
L 304.114409 148.239168 
L 304.204193 148.555399 
L 304.208375 148.573244 
L 304.299909 148.896899 
L 304.302345 148.90732 
L 304.39562 149.2384 
L 304.39632 149.241396 
" style="fill:none;stroke:#dcdcdc;stroke-linecap:square;stroke-width:1.5;"/>
   </g>
   <g id="line2d_44">
    <g clip-path="url(#p152687600c)">
     <use style="fill:#00bfbf;stroke:#00bfbf;" x="315.300805" xlink:href="#m229f31b4ed" y="121.66636"/>
    </g>
   </g>
   <g id="line2d_45">
    <path clip-path="url(#p152687600c)" d="M 225.239696 122.292691 
L 225.33315 122.268543 
L 225.889168 122.12868 
L 226.444688 121.992754 
L 226.999709 121.860766 
L 227.55423 121.732716 
L 228.108253 121.608603 
L 228.661776 121.488428 
L 229.2148 121.37219 
L 229.767325 121.25989 
L 230.319351 121.151528 
L 230.870878 121.047103 
L 231.421906 120.946616 
L 231.972434 120.850066 
L 232.522464 120.757454 
L 233.071994 120.668779 
L 233.621025 120.584042 
L 234.169557 120.503243 
L 234.71759 120.426381 
L 235.265124 120.353457 
L 235.812159 120.284471 
L 236.358694 120.219422 
L 236.904731 120.15831 
L 237.450268 120.101136 
L 237.995306 120.0479 
L 238.539846 119.998602 
L 239.083886 119.953241 
L 239.627426 119.911817 
L 240.170468 119.874331 
L 240.713011 119.840783 
L 241.255054 119.811172 
L 241.796599 119.785499 
L 242.337644 119.763764 
L 242.87819 119.745966 
L 243.418237 119.732105 
L 243.957785 119.722183 
L 244.496834 119.716198 
L 245.035384 119.71415 
L 245.573434 119.71604 
L 246.110986 119.721868 
L 246.648038 119.731633 
L 247.184591 119.745336 
L 247.680871 119.761667 
L 247.720682 119.762686 
L 248.212602 119.778904 
L 248.256773 119.780037 
L 248.744332 119.79614 
L 248.792864 119.797388 
L 249.276063 119.813376 
L 249.328955 119.814739 
L 249.807793 119.830612 
L 249.865045 119.83209 
L 250.339524 119.847848 
L 250.401136 119.849442 
L 250.871254 119.865083 
L 250.937227 119.866794 
L 251.402985 119.882319 
L 251.473317 119.884146 
L 251.934716 119.899554 
L 252.466568 119.913403 
L 252.998561 119.923346 
L 253.530695 119.929383 
L 254.06297 119.931513 
L 254.595385 119.929738 
L 255.127941 119.924056 
L 255.660637 119.914468 
L 256.193474 119.900974 
L 256.726452 119.883574 
L 257.259571 119.862267 
L 257.79283 119.837054 
L 258.32623 119.807936 
L 258.85977 119.774911 
L 259.393451 119.737979 
L 259.927273 119.697142 
L 260.461235 119.652398 
L 260.995339 119.603748 
L 261.529582 119.551192 
L 262.063967 119.49473 
L 262.598492 119.434362 
L 263.133158 119.370087 
L 263.667964 119.301907 
L 264.202911 119.22982 
L 264.737999 119.153826 
L 265.273228 119.073927 
L 265.808597 118.990122 
L 266.344107 118.90241 
L 266.879757 118.810792 
L 267.415548 118.715268 
L 267.95148 118.615838 
L 268.487552 118.512501 
L 269.023765 118.405258 
L 269.560119 118.29411 
L 270.096614 118.179055 
L 270.633249 118.060093 
L 271.170024 117.937226 
L 271.706941 117.810452 
L 272.243998 117.679773 
L 272.781196 117.545187 
L 273.318534 117.406694 
L 273.856013 117.264296 
L 274.393633 117.117991 
L 274.931393 116.967781 
L 275.469294 116.813664 
L 276.007336 116.655641 
L 276.545519 116.493711 
L 277.083842 116.327876 
L 277.622305 116.158134 
L 278.16091 115.984486 
L 278.699655 115.806932 
L 279.238541 115.625472 
L 279.777567 115.440105 
L 280.316734 115.250833 
L 280.856042 115.057654 
L 281.39549 114.860569 
L 281.935079 114.659578 
L 282.474809 114.45468 
L 283.014679 114.245877 
L 283.55469 114.033167 
L 284.094842 113.816551 
L 284.635134 113.596029 
L 284.905047 113.483941 
" style="fill:none;stroke:#dcdcdc;stroke-linecap:square;stroke-width:1.5;"/>
   </g>
   <g id="line2d_46">
    <g clip-path="url(#p152687600c)">
     <use style="fill:#00bfbf;stroke:#00bfbf;" x="225.239696" xlink:href="#m229f31b4ed" y="122.292691"/>
    </g>
   </g>
   <g id="line2d_47">
    <path clip-path="url(#p152687600c)" d="M 315.786535 171.430159 
L 311.303193 166.641684 
L 310.998997 166.30466 
L 310.706304 165.967797 
L 310.425114 165.631095 
L 310.155428 165.294554 
L 309.897244 164.958175 
L 309.650564 164.621958 
L 309.415387 164.285901 
L 309.191714 163.950006 
L 308.979543 163.614272 
L 308.778876 163.2787 
L 308.589712 162.943289 
L 308.412051 162.608039 
L 308.245894 162.272951 
L 308.091239 161.938024 
L 307.948088 161.603258 
L 307.81644 161.268654 
L 307.696296 160.93421 
L 307.587654 160.599929 
L 307.490516 160.265808 
L 307.464637 160.164885 
L 307.396655 159.931734 
L 307.368818 159.823411 
L 307.302798 159.597659 
L 307.272995 159.481938 
L 307.208946 159.263585 
L 307.177167 159.140465 
L 307.115099 158.929511 
L 307.081335 158.798994 
L 307.021257 158.595437 
L 306.985498 158.457525 
L 306.927421 158.261363 
L 306.889655 158.116056 
L 306.833589 157.927289 
L 306.793808 157.774588 
L 306.739764 157.593215 
L 306.697956 157.433122 
L 306.645943 157.259141 
L 306.602099 157.091658 
L 306.552129 156.925067 
L 306.506236 156.750194 
L 306.45832 156.590993 
L 306.410367 156.408732 
L 306.364518 156.25692 
L 306.314493 156.067271 
L 306.270722 155.922846 
L 306.218613 155.725812 
L 306.176932 155.588773 
L 306.122726 155.384354 
L 306.083149 155.254699 
L 306.026834 155.042898 
L 305.989373 154.920626 
L 305.930935 154.701444 
L 305.895603 154.586553 
L 305.835029 154.359991 
L 305.801842 154.25248 
L 305.739116 154.018539 
L 305.708087 153.918407 
L 305.643197 153.67709 
L 305.614341 153.584334 
L 305.54727 153.335642 
L 305.520602 153.250261 
L 305.451335 152.994196 
L 305.426872 152.916189 
L 305.355393 152.652752 
L 305.33315 152.582116 
L 305.259443 152.31131 
L 305.239436 152.248044 
L 305.163485 151.969871 
L 305.145732 151.913971 
L 305.067518 151.628433 
L 305.052038 151.579899 
L 304.971542 151.286997 
L 304.958353 151.245827 
L 304.875558 150.945564 
L 304.864678 150.911755 
L 304.779564 150.604132 
L 304.771013 150.577684 
L 304.68356 150.262704 
L 304.677359 150.243612 
L 304.587546 149.921277 
L 304.583716 149.909541 
L 304.491522 149.579854 
L 304.490085 149.57547 
L 304.39632 149.241396 
" style="fill:none;stroke:#dcdcdc;stroke-linecap:square;stroke-width:1.5;"/>
   </g>
   <g id="line2d_48">
    <g clip-path="url(#p152687600c)">
     <use style="fill:#00bfbf;stroke:#00bfbf;" x="315.786535" xlink:href="#m229f31b4ed" y="171.430159"/>
    </g>
   </g>
   <g id="line2d_49">
    <g clip-path="url(#p152687600c)">
     <use style="fill:#00bfbf;stroke:#00bfbf;" x="318.585245" xlink:href="#m229f31b4ed" y="216.040871"/>
    </g>
   </g>
   <g id="line2d_50">
    <path clip-path="url(#p152687600c)" d="M 143.370496 233.563529 
L 140.64859 233.99474 
L 137.971955 234.156844 
L 135.346013 234.048775 
L 129.46986 233.542275 
L 110.866007 231.946544 
L 104.115763 231.254109 
L 101.579929 230.665813 
L 101.084259 230.518379 
L 99.993676 229.366572 
L 99.125116 228.155081 
L 98.478578 226.883908 
L 98.054063 225.553053 
L 97.85157 224.162515 
L 97.8711 222.712294 
L 98.112652 221.202391 
L 98.576227 219.632806 
L 99.261824 218.003538 
L 100.43104 215.883024 
L 102.39342 212.819443 
L 123.843145 210.391559 
L 156.221332 206.647905 
L 156.221332 206.647905 
" style="fill:none;stroke:#dcdcdc;stroke-linecap:square;stroke-width:1.5;"/>
   </g>
   <g id="line2d_51">
    <path clip-path="url(#p152687600c)" d="M 143.370496 233.563529 
L 144.843403 234.203319 
L 146.832184 234.886533 
L 148.856718 235.3792 
L 150.917005 235.681318 
L 156.691101 236.0779 
L 182.151526 237.88715 
L 184.231039 238.321935 
L 186.282624 238.944736 
L 186.791157 239.129814 
L 210.800173 248.454562 
L 215.432058 247.17622 
L 217.002451 246.689278 
L 217.002451 246.689278 
" style="fill:none;stroke:#dcdcdc;stroke-linecap:square;stroke-width:1.5;"/>
   </g>
   <g id="line2d_52">
    <path clip-path="url(#p152687600c)" d="M 143.370496 233.563529 
L 144.029343 231.623058 
L 144.16567 231.276801 
L 144.318623 230.93684 
L 144.4882 230.603174 
L 144.674403 230.275804 
L 144.877231 229.954729 
L 145.096685 229.63995 
L 145.332764 229.331466 
L 145.380403 229.274498 
L 145.572007 229.024181 
L 145.618821 228.96824 
L 145.81125 228.716896 
L 145.857238 228.661982 
L 146.050494 228.409611 
L 146.095655 228.355724 
L 146.289738 228.102326 
L 146.334071 228.049466 
L 146.528983 227.795042 
L 146.572487 227.743208 
L 146.768228 227.487757 
L 146.810903 227.43695 
L 147.007473 227.180473 
L 147.049318 227.130691 
L 147.246718 226.873188 
L 147.287733 226.824433 
L 147.485964 226.565904 
L 147.526148 226.518174 
L 147.72521 226.25862 
L 147.764562 226.211916 
L 147.964457 225.951336 
L 148.002976 225.905657 
L 148.203704 225.644053 
L 148.241389 225.599398 
L 148.442951 225.336769 
L 148.479802 225.293139 
L 148.682199 225.029486 
L 148.718215 224.98688 
L 148.921447 224.722202 
L 148.956627 224.680621 
L 149.160695 224.414919 
L 149.195039 224.374361 
L 149.399944 224.107636 
L 149.43345 224.068102 
L 149.639194 223.800353 
L 149.671861 223.761842 
L 149.878443 223.493071 
L 149.910271 223.455583 
L 150.117694 223.185788 
L 150.148681 223.149323 
L 150.356944 222.878506 
" style="fill:none;stroke:#dcdcdc;stroke-linecap:square;stroke-width:1.5;"/>
   </g>
   <g id="line2d_53">
    <g clip-path="url(#p152687600c)">
     <use style="fill:#00bfbf;stroke:#00bfbf;" x="143.370496" xlink:href="#m229f31b4ed" y="233.563529"/>
    </g>
   </g>
   <g id="line2d_54">
    <path clip-path="url(#p152687600c)" d="M 242.587864 60.997199 
L 209.869914 56.617076 
L 206.58313 56.283132 
L 202.769021 56.126098 
L 198.976428 56.213497 
L 186.704803 56.642306 
L 182.914204 56.464271 
L 179.092752 56.042829 
L 175.240447 55.37798 
L 171.913913 54.614377 
L 163.770001 52.597117 
L 160.412605 51.938683 
L 147.611368 60.017877 
L 147.201348 75.399964 
L 147.204634 79.698644 
L 156.716287 88.596327 
L 158.118314 89.783288 
L 174.300103 102.427894 
L 177.386261 104.450064 
L 182.550051 107.483319 
L 187.558999 110.391999 
L 187.558999 110.391999 
" style="fill:none;stroke:#dcdcdc;stroke-linecap:square;stroke-width:1.5;"/>
   </g>
   <g id="line2d_55">
    <path clip-path="url(#p152687600c)" d="M 242.587864 60.997199 
L 242.888525 60.914011 
L 243.446727 60.756924 
L 244.005277 60.597098 
L 244.564173 60.434534 
L 245.123416 60.269231 
L 245.683007 60.101189 
L 246.242945 59.930409 
L 246.80323 59.75689 
L 247.363862 59.580633 
L 247.924841 59.401637 
L 248.486168 59.219902 
L 249.047841 59.035428 
L 249.609862 58.848216 
L 250.17223 58.658266 
L 250.734945 58.465577 
" style="fill:none;stroke:#dcdcdc;stroke-linecap:square;stroke-width:1.5;"/>
   </g>
   <g id="line2d_56">
    <g clip-path="url(#p152687600c)">
     <use style="fill:#00bfbf;stroke:#00bfbf;" x="242.587864" xlink:href="#m229f31b4ed" y="60.997199"/>
    </g>
   </g>
   <g id="line2d_57">
    <path clip-path="url(#p152687600c)" d="M 284.905047 113.483941 
L 280.234879 106.72211 
L 279.99852 106.37031 
L 279.76903 106.018871 
L 279.546407 105.667794 
L 279.330651 105.317078 
L 279.121763 104.966723 
L 278.919743 104.616729 
L 278.72459 104.267096 
L 278.536305 103.917824 
L 278.354887 103.568914 
L 278.180337 103.220365 
L 278.012654 102.872177 
L 277.851839 102.52435 
L 277.697891 102.176885 
L 277.550811 101.82978 
L 277.410599 101.483037 
L 277.277254 101.136655 
L 277.150776 100.790634 
L 277.031167 100.444975 
L 276.918424 100.099676 
L 276.812549 99.754739 
L 276.713542 99.410163 
L 276.621403 99.065948 
L 276.536131 98.722095 
L 276.457726 98.378602 
L 276.386189 98.035471 
L 276.32152 97.692701 
L 276.263718 97.350292 
L 276.212783 97.008244 
L 276.168717 96.666558 
L 276.131517 96.325232 
L 276.101186 95.984268 
L 276.077722 95.643665 
L 276.061125 95.303424 
L 276.051396 94.963543 
L 276.048535 94.624024 
L 276.052541 94.284865 
L 276.063414 93.946069 
L 276.065246 93.911135 
L 276.075002 93.607309 
L 276.076816 93.572734 
L 276.08659 93.26855 
L 276.088387 93.234333 
L 276.098178 92.92979 
L 276.099958 92.895933 
L 276.109766 92.591031 
L 276.111529 92.557532 
L 276.121355 92.252271 
L 276.1231 92.219131 
L 276.132943 91.913512 
L 276.134671 91.88073 
L 276.144531 91.574753 
L 276.146242 91.54233 
L 276.156119 91.235993 
L 276.157813 91.203929 
L 276.167707 90.897234 
L 276.169384 90.865528 
L 276.179295 90.558474 
L 276.180954 90.527127 
L 276.190883 90.219715 
L 276.192525 90.188727 
L 276.202472 89.880956 
L 276.204096 89.850326 
L 276.215038 89.511941 
L 276.218966 89.173733 
L 276.21588 88.835703 
L 276.205779 88.497849 
L 276.188665 88.160173 
L 276.164536 87.822673 
L 276.133394 87.485351 
L 276.095237 87.148205 
L 276.050066 86.811237 
L 275.99788 86.474446 
L 275.938681 86.137832 
L 275.872468 85.801395 
L 275.79924 85.465135 
L 275.718998 85.129052 
L 275.631743 84.793146 
L 275.537473 84.457417 
L 275.436189 84.121866 
L 275.32789 83.786491 
L 275.212578 83.451293 
L 275.090251 83.116273 
L 274.960911 82.78143 
L 274.824556 82.446763 
L 274.681187 82.112274 
L 274.530804 81.777962 
L 274.373407 81.443827 
L 274.208996 81.109869 
L 274.03757 80.776088 
L 273.85913 80.442484 
L 273.673677 80.109057 
L 273.481209 79.775807 
L 273.281727 79.442734 
L 273.075231 79.109839 
L 272.86172 78.77712 
L 272.641196 78.444579 
L 272.413658 78.112214 
L 272.179105 77.780027 
L 271.937538 77.448017 
L 271.688957 77.116184 
L 271.433362 76.784528 
L 259.01281 61.10666 
L 258.549758 60.513098 
L 258.087698 59.911713 
L 257.62663 59.302507 
L 257.166553 58.685478 
L 256.707467 58.060626 
L 256.249373 57.427952 
L 255.792271 56.787456 
L 255.697787 56.653157 
L 255.249162 56.825473 
L 254.68367 57.040071 
L 254.118525 57.25193 
L 253.553727 57.461051 
L 252.989276 57.667434 
L 252.425173 57.871077 
L 251.861416 58.071982 
L 251.298007 58.270149 
L 250.734945 58.465577 
" style="fill:none;stroke:#dcdcdc;stroke-linecap:square;stroke-width:1.5;"/>
   </g>
   <g id="line2d_58">
    <g clip-path="url(#p152687600c)">
     <use style="fill:#00bfbf;stroke:#00bfbf;" x="284.905047" xlink:href="#m229f31b4ed" y="113.483941"/>
    </g>
   </g>
   <g id="line2d_59">
    <g clip-path="url(#p152687600c)">
     <use style="fill:#00bfbf;stroke:#00bfbf;" x="228.336688" xlink:href="#m229f31b4ed" y="230.719637"/>
    </g>
   </g>
   <g id="line2d_60">
    <path clip-path="url(#p152687600c)" d="M 156.221332 206.647905 
L 156.221332 213.694898 
L 156.197612 214.054178 
L 156.150173 214.407601 
L 156.079015 214.755165 
L 155.984137 215.096872 
L 155.865539 215.432721 
L 155.723222 215.762712 
L 155.557185 216.086845 
L 155.367429 216.40512 
L 155.153953 216.717538 
L 154.916758 217.024098 
L 154.902805 217.040178 
L 154.67836 217.330361 
L 154.663544 217.347457 
L 154.439962 217.636623 
L 154.424283 217.654735 
L 154.201563 217.942886 
L 154.185024 217.962014 
L 153.963163 218.249148 
L 153.945764 218.269293 
L 153.724763 218.55541 
L 153.706506 218.576573 
L 153.486361 218.861672 
L 153.467248 218.883852 
L 153.247959 219.167934 
L 153.22799 219.191132 
L 153.009557 219.474195 
L 152.988734 219.498412 
L 152.771154 219.780457 
L 152.749477 219.805692 
L 152.53275 220.086718 
L 152.510222 220.112973 
L 152.294346 220.392979 
L 152.270967 220.420253 
L 152.055941 220.69924 
L 152.031712 220.727534 
L 151.817535 221.005501 
L 151.792458 221.034815 
L 151.579129 221.311761 
L 151.553205 221.342097 
L 151.340722 221.618022 
L 151.313952 221.649378 
L 151.102315 221.924282 
L 151.074699 221.95666 
L 150.863907 222.230543 
L 150.835447 222.263942 
L 150.625499 222.536803 
L 150.596195 222.571224 
L 150.38709 222.843063 
L 150.356944 222.878506 
" style="fill:none;stroke:#dcdcdc;stroke-linecap:square;stroke-width:1.5;"/>
   </g>
   <g id="line2d_61">
    <g clip-path="url(#p152687600c)">
     <use style="fill:#00bfbf;stroke:#00bfbf;" x="156.221332" xlink:href="#m229f31b4ed" y="206.647905"/>
    </g>
   </g>
   <g id="line2d_62">
    <g clip-path="url(#p152687600c)">
     <use style="fill:#00bfbf;stroke:#00bfbf;" x="187.558999" xlink:href="#m229f31b4ed" y="110.391999"/>
    </g>
   </g>
   <g id="line2d_63">
    <path clip-path="url(#p152687600c)" d="M 236.814776 42.135503 
L 250.734945 58.465577 
" style="fill:none;stroke:#dcdcdc;stroke-linecap:square;stroke-width:1.5;"/>
   </g>
   <g id="line2d_64">
    <g clip-path="url(#p152687600c)">
     <use style="fill:#00bfbf;stroke:#00bfbf;" x="236.814776" xlink:href="#m229f31b4ed" y="42.135503"/>
    </g>
   </g>
   <g id="line2d_65">
    <g clip-path="url(#p152687600c)">
     <use style="fill:#00bfbf;stroke:#00bfbf;" x="250.734945" xlink:href="#m229f31b4ed" y="58.465577"/>
    </g>
   </g>
   <g id="line2d_66">
    <path clip-path="url(#p152687600c)" d="M 224.641519 256.449868 
L 217.002451 246.689278 
" style="fill:none;stroke:#dcdcdc;stroke-linecap:square;stroke-width:1.5;"/>
   </g>
   <g id="line2d_67">
    <g clip-path="url(#p152687600c)">
     <use style="fill:#00bfbf;stroke:#00bfbf;" x="224.641519" xlink:href="#m229f31b4ed" y="256.449868"/>
    </g>
   </g>
   <g id="line2d_68">
    <g clip-path="url(#p152687600c)">
     <use style="fill:#00bfbf;stroke:#00bfbf;" x="217.002451" xlink:href="#m229f31b4ed" y="246.689278"/>
    </g>
   </g>
   <g id="line2d_69">
    <g clip-path="url(#p152687600c)">
     <use style="fill:#00bfbf;stroke:#00bfbf;" x="304.39632" xlink:href="#m229f31b4ed" y="149.241396"/>
    </g>
   </g>
   <g id="line2d_70">
    <g clip-path="url(#p152687600c)">
     <use style="fill:#00bfbf;stroke:#00bfbf;" x="150.356944" xlink:href="#m229f31b4ed" y="222.878506"/>
    </g>
   </g>
   <g id="line2d_71">
    <path clip-path="url(#p152687600c)" d="M 236.814776 42.135503 
L 250.734945 58.465577 
" style="fill:none;stroke:#bfbf00;stroke-linecap:square;stroke-width:2;"/>
   </g>
   <g id="line2d_72">
    <path clip-path="url(#p152687600c)" d="M 250.734945 58.465577 
L 255.792271 56.787456 
L 274.960911 82.78143 
L 276.164536 87.822673 
L 277.150776 100.790634 
L 284.905047 113.483941 
" style="fill:none;stroke:#bfbf00;stroke-linecap:square;stroke-width:2;"/>
   </g>
   <g id="line2d_73">
    <path clip-path="url(#p152687600c)" d="M 284.905047 113.483941 
L 274.393633 117.117991 
L 264.737999 119.153826 
L 256.193474 119.900974 
L 253.530695 119.929383 
L 244.496834 119.716198 
L 235.812159 120.284471 
L 225.33315 122.268543 
L 225.239696 122.292691 
" style="fill:none;stroke:#bfbf00;stroke-linecap:square;stroke-width:2;"/>
   </g>
   <g id="line2d_74">
    <path clip-path="url(#p152687600c)" d="M 225.239696 122.292691 
L 225.181515 172.348792 
" style="fill:none;stroke:#bfbf00;stroke-linecap:square;stroke-width:2;"/>
   </g>
   <g id="line2d_75">
    <path clip-path="url(#p152687600c)" d="M 225.181515 172.348792 
L 190.494637 184.747594 
L 181.947807 189.879566 
" style="fill:none;stroke:#bfbf00;stroke-linecap:square;stroke-width:2;"/>
   </g>
   <g id="line2d_76">
    <path clip-path="url(#p152687600c)" d="M 181.947807 189.879566 
L 181.950923 192.290028 
" style="fill:none;stroke:#bfbf00;stroke-linecap:square;stroke-width:2;"/>
   </g>
   <g id="line2d_77">
    <path clip-path="url(#p152687600c)" d="M 181.950923 192.290028 
L 197.751307 203.856343 
L 228.336688 230.719637 
" style="fill:none;stroke:#bfbf00;stroke-linecap:square;stroke-width:2;"/>
   </g>
   <g id="line2d_78">
    <path clip-path="url(#p152687600c)" d="M 228.336688 230.719637 
L 227.421814 242.773435 
" style="fill:none;stroke:#bfbf00;stroke-linecap:square;stroke-width:2;"/>
   </g>
   <g id="line2d_79">
    <path clip-path="url(#p152687600c)" d="M 227.421814 242.773435 
L 217.002451 246.689278 
" style="fill:none;stroke:#bfbf00;stroke-linecap:square;stroke-width:2;"/>
   </g>
   <g id="line2d_80">
    <path clip-path="url(#p152687600c)" d="M 217.002451 246.689278 
L 224.641519 256.449868 
" style="fill:none;stroke:#bfbf00;stroke-linecap:square;stroke-width:2;"/>
   </g>
   <g id="patch_16">
    <path d="M 33.2875 276.812 
L 33.2875 10.7 
" style="fill:none;stroke:#000000;stroke-linecap:square;stroke-linejoin:miter;stroke-width:0.8;"/>
   </g>
   <g id="patch_17">
    <path d="M 390.4075 276.812 
L 390.4075 10.7 
" style="fill:none;stroke:#000000;stroke-linecap:square;stroke-linejoin:miter;stroke-width:0.8;"/>
   </g>
   <g id="patch_18">
    <path d="M 33.2875 276.812 
L 390.4075 276.812 
" style="fill:none;stroke:#000000;stroke-linecap:square;stroke-linejoin:miter;stroke-width:0.8;"/>
   </g>
   <g id="patch_19">
    <path d="M 33.2875 10.7 
L 390.4075 10.7 
" style="fill:none;stroke:#000000;stroke-linecap:square;stroke-linejoin:miter;stroke-width:0.8;"/>
   </g>
   <g id="text_14">
    <g id="patch_20">
     <path d="M 236.814776 47.652378 
C 238.863304 47.652378 240.828206 46.838489 242.276734 45.389961 
C 243.725262 43.941433 244.539151 41.976531 244.539151 39.928003 
C 244.539151 37.879475 243.725262 35.914573 242.276734 34.466045 
C 240.828206 33.017517 238.863304 32.203628 236.814776 32.203628 
C 234.766248 32.203628 232.801346 33.017517 231.352818 34.466045 
C 229.90429 35.914573 229.090401 37.879475 229.090401 39.928003 
C 229.090401 41.976531 229.90429 43.941433 231.352818 45.389961 
C 232.801346 46.838489 234.766248 47.652378 236.814776 47.652378 
z
" style="fill:#0000ff;opacity:0.5;stroke:#0000ff;stroke-linejoin:miter;stroke-width:2;"/>
    </g>
    <!-- R3 -->
    <defs>
     <path d="M 44.390625 34.1875 
Q 47.5625 33.109375 50.5625 29.59375 
Q 53.5625 26.078125 56.59375 19.921875 
L 66.609375 0 
L 56 0 
L 46.6875 18.703125 
Q 43.0625 26.03125 39.671875 28.421875 
Q 36.28125 30.8125 30.421875 30.8125 
L 19.671875 30.8125 
L 19.671875 0 
L 9.8125 0 
L 9.8125 72.90625 
L 32.078125 72.90625 
Q 44.578125 72.90625 50.734375 67.671875 
Q 56.890625 62.453125 56.890625 51.90625 
Q 56.890625 45.015625 53.6875 40.46875 
Q 50.484375 35.9375 44.390625 34.1875 
z
M 19.671875 64.796875 
L 19.671875 38.921875 
L 32.078125 38.921875 
Q 39.203125 38.921875 42.84375 42.21875 
Q 46.484375 45.515625 46.484375 51.90625 
Q 46.484375 58.296875 42.84375 61.546875 
Q 39.203125 64.796875 32.078125 64.796875 
z
" id="DejaVuSans-52"/>
    </defs>
    <g transform="translate(231.490401 42.135503)scale(0.08 -0.08)">
     <use xlink:href="#DejaVuSans-52"/>
     <use x="69.482422" xlink:href="#DejaVuSans-33"/>
    </g>
   </g>
   <g id="text_15">
    <g id="patch_21">
     <path d="M 224.641519 260.513618 
C 226.304674 260.513618 227.899934 259.85284 229.075962 258.676811 
C 230.25199 257.500783 230.912769 255.905523 230.912769 254.242368 
C 230.912769 252.579213 230.25199 250.983953 229.075962 249.807925 
C 227.899934 248.631897 226.304674 247.971118 224.641519 247.971118 
C 222.978364 247.971118 221.383103 248.631897 220.207075 249.807925 
C 219.031047 250.983953 218.370269 252.579213 218.370269 254.242368 
C 218.370269 255.905523 219.031047 257.500783 220.207075 258.676811 
C 221.383103 259.85284 222.978364 260.513618 224.641519 260.513618 
z
" style="fill:#ff0000;opacity:0.5;stroke:#ff0000;stroke-linejoin:miter;stroke-width:2;"/>
    </g>
    <!-- E -->
    <defs>
     <path d="M 9.8125 72.90625 
L 55.90625 72.90625 
L 55.90625 64.59375 
L 19.671875 64.59375 
L 19.671875 43.015625 
L 54.390625 43.015625 
L 54.390625 34.71875 
L 19.671875 34.71875 
L 19.671875 8.296875 
L 56.78125 8.296875 
L 56.78125 0 
L 9.8125 0 
z
" id="DejaVuSans-45"/>
    </defs>
    <g transform="translate(222.114019 256.449868)scale(0.08 -0.08)">
     <use xlink:href="#DejaVuSans-45"/>
    </g>
   </g>
   <g id="text_16">
    <!-- maxCost: 260 -->
    <defs>
     <path d="M 52 44.1875 
Q 55.375 50.25 60.0625 53.125 
Q 64.75 56 71.09375 56 
Q 79.640625 56 84.28125 50.015625 
Q 88.921875 44.046875 88.921875 33.015625 
L 88.921875 0 
L 79.890625 0 
L 79.890625 32.71875 
Q 79.890625 40.578125 77.09375 44.375 
Q 74.3125 48.1875 68.609375 48.1875 
Q 61.625 48.1875 57.5625 43.546875 
Q 53.515625 38.921875 53.515625 30.90625 
L 53.515625 0 
L 44.484375 0 
L 44.484375 32.71875 
Q 44.484375 40.625 41.703125 44.40625 
Q 38.921875 48.1875 33.109375 48.1875 
Q 26.21875 48.1875 22.15625 43.53125 
Q 18.109375 38.875 18.109375 30.90625 
L 18.109375 0 
L 9.078125 0 
L 9.078125 54.6875 
L 18.109375 54.6875 
L 18.109375 46.1875 
Q 21.1875 51.21875 25.484375 53.609375 
Q 29.78125 56 35.6875 56 
Q 41.65625 56 45.828125 52.96875 
Q 50 49.953125 52 44.1875 
z
" id="DejaVuSans-6d"/>
     <path d="M 34.28125 27.484375 
Q 23.390625 27.484375 19.1875 25 
Q 14.984375 22.515625 14.984375 16.5 
Q 14.984375 11.71875 18.140625 8.90625 
Q 21.296875 6.109375 26.703125 6.109375 
Q 34.1875 6.109375 38.703125 11.40625 
Q 43.21875 16.703125 43.21875 25.484375 
L 43.21875 27.484375 
z
M 52.203125 31.203125 
L 52.203125 0 
L 43.21875 0 
L 43.21875 8.296875 
Q 40.140625 3.328125 35.546875 0.953125 
Q 30.953125 -1.421875 24.3125 -1.421875 
Q 15.921875 -1.421875 10.953125 3.296875 
Q 6 8.015625 6 15.921875 
Q 6 25.140625 12.171875 29.828125 
Q 18.359375 34.515625 30.609375 34.515625 
L 43.21875 34.515625 
L 43.21875 35.40625 
Q 43.21875 41.609375 39.140625 45 
Q 35.0625 48.390625 27.6875 48.390625 
Q 23 48.390625 18.546875 47.265625 
Q 14.109375 46.140625 10.015625 43.890625 
L 10.015625 52.203125 
Q 14.9375 54.109375 19.578125 55.046875 
Q 24.21875 56 28.609375 56 
Q 40.484375 56 46.34375 49.84375 
Q 52.203125 43.703125 52.203125 31.203125 
z
" id="DejaVuSans-61"/>
     <path d="M 54.890625 54.6875 
L 35.109375 28.078125 
L 55.90625 0 
L 45.3125 0 
L 29.390625 21.484375 
L 13.484375 0 
L 2.875 0 
L 24.125 28.609375 
L 4.6875 54.6875 
L 15.28125 54.6875 
L 29.78125 35.203125 
L 44.28125 54.6875 
z
" id="DejaVuSans-78"/>
     <path d="M 64.40625 67.28125 
L 64.40625 56.890625 
Q 59.421875 61.53125 53.78125 63.8125 
Q 48.140625 66.109375 41.796875 66.109375 
Q 29.296875 66.109375 22.65625 58.46875 
Q 16.015625 50.828125 16.015625 36.375 
Q 16.015625 21.96875 22.65625 14.328125 
Q 29.296875 6.6875 41.796875 6.6875 
Q 48.140625 6.6875 53.78125 8.984375 
Q 59.421875 11.28125 64.40625 15.921875 
L 64.40625 5.609375 
Q 59.234375 2.09375 53.4375 0.328125 
Q 47.65625 -1.421875 41.21875 -1.421875 
Q 24.65625 -1.421875 15.125 8.703125 
Q 5.609375 18.84375 5.609375 36.375 
Q 5.609375 53.953125 15.125 64.078125 
Q 24.65625 74.21875 41.21875 74.21875 
Q 47.75 74.21875 53.53125 72.484375 
Q 59.328125 70.75 64.40625 67.28125 
z
" id="DejaVuSans-43"/>
     <path d="M 30.609375 48.390625 
Q 23.390625 48.390625 19.1875 42.75 
Q 14.984375 37.109375 14.984375 27.296875 
Q 14.984375 17.484375 19.15625 11.84375 
Q 23.34375 6.203125 30.609375 6.203125 
Q 37.796875 6.203125 41.984375 11.859375 
Q 46.1875 17.53125 46.1875 27.296875 
Q 46.1875 37.015625 41.984375 42.703125 
Q 37.796875 48.390625 30.609375 48.390625 
z
M 30.609375 56 
Q 42.328125 56 49.015625 48.375 
Q 55.71875 40.765625 55.71875 27.296875 
Q 55.71875 13.875 49.015625 6.21875 
Q 42.328125 -1.421875 30.609375 -1.421875 
Q 18.84375 -1.421875 12.171875 6.21875 
Q 5.515625 13.875 5.515625 27.296875 
Q 5.515625 40.765625 12.171875 48.375 
Q 18.84375 56 30.609375 56 
z
" id="DejaVuSans-6f"/>
     <path d="M 44.28125 53.078125 
L 44.28125 44.578125 
Q 40.484375 46.53125 36.375 47.5 
Q 32.28125 48.484375 27.875 48.484375 
Q 21.1875 48.484375 17.84375 46.4375 
Q 14.5 44.390625 14.5 40.28125 
Q 14.5 37.15625 16.890625 35.375 
Q 19.28125 33.59375 26.515625 31.984375 
L 29.59375 31.296875 
Q 39.15625 29.25 43.1875 25.515625 
Q 47.21875 21.78125 47.21875 15.09375 
Q 47.21875 7.46875 41.1875 3.015625 
Q 35.15625 -1.421875 24.609375 -1.421875 
Q 20.21875 -1.421875 15.453125 -0.5625 
Q 10.6875 0.296875 5.421875 2 
L 5.421875 11.28125 
Q 10.40625 8.6875 15.234375 7.390625 
Q 20.0625 6.109375 24.8125 6.109375 
Q 31.15625 6.109375 34.5625 8.28125 
Q 37.984375 10.453125 37.984375 14.40625 
Q 37.984375 18.0625 35.515625 20.015625 
Q 33.0625 21.96875 24.703125 23.78125 
L 21.578125 24.515625 
Q 13.234375 26.265625 9.515625 29.90625 
Q 5.8125 33.546875 5.8125 39.890625 
Q 5.8125 47.609375 11.28125 51.796875 
Q 16.75 56 26.8125 56 
Q 31.78125 56 36.171875 55.265625 
Q 40.578125 54.546875 44.28125 53.078125 
z
" id="DejaVuSans-73"/>
     <path d="M 18.3125 70.21875 
L 18.3125 54.6875 
L 36.8125 54.6875 
L 36.8125 47.703125 
L 18.3125 47.703125 
L 18.3125 18.015625 
Q 18.3125 11.328125 20.140625 9.421875 
Q 21.96875 7.515625 27.59375 7.515625 
L 36.8125 7.515625 
L 36.8125 0 
L 27.59375 0 
Q 17.1875 0 13.234375 3.875 
Q 9.28125 7.765625 9.28125 18.015625 
L 9.28125 47.703125 
L 2.6875 47.703125 
L 2.6875 54.6875 
L 9.28125 54.6875 
L 9.28125 70.21875 
z
" id="DejaVuSans-74"/>
     <path d="M 11.71875 12.40625 
L 22.015625 12.40625 
L 22.015625 0 
L 11.71875 0 
z
M 11.71875 51.703125 
L 22.015625 51.703125 
L 22.015625 39.3125 
L 11.71875 39.3125 
z
" id="DejaVuSans-3a"/>
     <path id="DejaVuSans-20"/>
     <path d="M 33.015625 40.375 
Q 26.375 40.375 22.484375 35.828125 
Q 18.609375 31.296875 18.609375 23.390625 
Q 18.609375 15.53125 22.484375 10.953125 
Q 26.375 6.390625 33.015625 6.390625 
Q 39.65625 6.390625 43.53125 10.953125 
Q 47.40625 15.53125 47.40625 23.390625 
Q 47.40625 31.296875 43.53125 35.828125 
Q 39.65625 40.375 33.015625 40.375 
z
M 52.59375 71.296875 
L 52.59375 62.3125 
Q 48.875 64.0625 45.09375 64.984375 
Q 41.3125 65.921875 37.59375 65.921875 
Q 27.828125 65.921875 22.671875 59.328125 
Q 17.53125 52.734375 16.796875 39.40625 
Q 19.671875 43.65625 24.015625 45.921875 
Q 28.375 48.1875 33.59375 48.1875 
Q 44.578125 48.1875 50.953125 41.515625 
Q 57.328125 34.859375 57.328125 23.390625 
Q 57.328125 12.15625 50.6875 5.359375 
Q 44.046875 -1.421875 33.015625 -1.421875 
Q 20.359375 -1.421875 13.671875 8.265625 
Q 6.984375 17.96875 6.984375 36.375 
Q 6.984375 53.65625 15.1875 63.9375 
Q 23.390625 74.21875 37.203125 74.21875 
Q 40.921875 74.21875 44.703125 73.484375 
Q 48.484375 72.75 52.59375 71.296875 
z
" id="DejaVuSans-36"/>
    </defs>
    <g style="fill:#ff0000;" transform="translate(295.843014 19.041453)scale(0.1 -0.1)">
     <use xlink:href="#DejaVuSans-6d"/>
     <use x="97.412109" xlink:href="#DejaVuSans-61"/>
     <use x="158.691406" xlink:href="#DejaVuSans-78"/>
     <use x="217.871094" xlink:href="#DejaVuSans-43"/>
     <use x="287.695312" xlink:href="#DejaVuSans-6f"/>
     <use x="348.876953" xlink:href="#DejaVuSans-73"/>
     <use x="400.976562" xlink:href="#DejaVuSans-74"/>
     <use x="440.185547" xlink:href="#DejaVuSans-3a"/>
     <use x="473.876953" xlink:href="#DejaVuSans-20"/>
     <use x="505.664062" xlink:href="#DejaVuSans-32"/>
     <use x="569.287109" xlink:href="#DejaVuSans-36"/>
     <use x="632.910156" xlink:href="#DejaVuSans-30"/>
    </g>
   </g>
   <g id="text_17">
    <g id="patch_22">
     <path d="M 272.537017 87.873074 
L 271.387441 84.940272 
L 278.685858 82.0795 
L 279.835433 85.012302 
L 281.660037 84.297108 
L 278.331804 91.9165 
L 270.712413 88.588267 
L 272.537017 87.873074 
z
" style="fill:#ffffff;opacity:0.8;stroke:#bfbf00;stroke-linejoin:miter;"/>
    </g>
    <!-- 1 -->
    <g transform="translate(274.299524 85.409934)rotate(-291.403774)scale(0.05 -0.05)">
     <use xlink:href="#DejaVuSans-31"/>
    </g>
   </g>
   <g id="text_18">
    <g id="patch_23">
     <path d="M 252.580053 115.045436 
L 255.647305 114.32793 
L 257.432853 121.960932 
L 254.3656 122.678438 
L 254.811987 124.586689 
L 247.748075 120.201097 
L 252.133666 113.137185 
L 252.580053 115.045436 
z
" style="fill:#ffffff;opacity:0.8;stroke:#bfbf00;stroke-linejoin:miter;"/>
    </g>
    <!-- 1 -->
    <g transform="translate(254.765249 117.142674)rotate(-193.166149)scale(0.05 -0.05)">
     <use xlink:href="#DejaVuSans-31"/>
    </g>
   </g>
   <g id="text_19">
    <g id="patch_24">
     <path d="M 221.291031 145.170478 
L 221.293342 142.020423 
L 229.132403 142.026173 
L 229.130092 145.176228 
L 231.089857 145.177666 
L 225.206249 151.052648 
L 219.331266 145.16904 
L 221.291031 145.170478 
z
" style="fill:#ffffff;opacity:0.8;stroke:#bfbf00;stroke-linejoin:miter;"/>
    </g>
    <!-- 1 -->
    <g transform="translate(223.832085 143.522286)rotate(-269.957969)scale(0.05 -0.05)">
     <use xlink:href="#DejaVuSans-31"/>
    </g>
   </g>
   <g id="text_20">
    <g id="patch_25">
     <path d="M 188.32599 180.578308 
L 190.976199 178.87559 
L 195.213491 185.470759 
L 192.563283 187.173477 
L 193.622606 188.822269 
L 185.49826 187.053861 
L 187.266667 178.929515 
L 188.32599 180.578308 
z
" style="fill:#ffffff;opacity:0.8;stroke:#bfbf00;stroke-linejoin:miter;"/>
    </g>
    <!-- 1 -->
    <g transform="translate(191.087093 181.823218)rotate(-212.720106)scale(0.05 -0.05)">
     <use xlink:href="#DejaVuSans-31"/>
    </g>
   </g>
   <g id="text_21">
    <g id="patch_26">
     <path d="M 194.669428 205.211081 
L 192.760541 202.705288 
L 198.996327 197.954933 
L 200.905214 200.460726 
L 202.464161 199.273138 
L 201.350087 207.512743 
L 193.110482 206.39867 
L 194.669428 205.211081 
z
" style="fill:#ffffff;opacity:0.8;stroke:#bfbf00;stroke-linejoin:miter;"/>
    </g>
    <!-- 1 -->
    <g transform="translate(195.689904 202.359394)rotate(-307.299762)scale(0.05 -0.05)">
     <use xlink:href="#DejaVuSans-31"/>
    </g>
   </g>
  </g>
 </g>
 <defs>
  <clipPath id="p152687600c">
   <rect height="266.112" width="357.12" x="33.2875" y="10.7"/>
  </clipPath>
 </defs>
</svg>
